<?xml version="1.0" encoding="utf-8"?>
<!-- Generator: Adobe Illustrator 16.0.0, SVG Export Plug-In . SVG Version: 6.00 Build 0)  -->
<!DOCTYPE svg PUBLIC "-//W3C//DTD SVG 1.1//EN" "http://www.w3.org/Graphics/SVG/1.1/DTD/svg11.dtd">
<svg version="1.1" id="Capa_1" xmlns="http://www.w3.org/2000/svg" xmlns:xlink="http://www.w3.org/1999/xlink" x="0px" y="0px"
	 width="160px" height="80px" viewBox="0 0 160 80" enable-background="new 0 0 160 80" xml:space="preserve">
<g>
	<g>
		<g>
			<g>
				<path fill="#F11829" d="M58.116,15.002c1.656,0.333,4.664,1.785,9.662,3.736c0.331-1.19,0.692-3.068,1.268-4.363
					c1.676-3.746,5.625-4.795,13.278-3.956c10.325,1.126,21.931,8.015,24.051,8.729c4.839,1.103-3.883-5.459-7.377-6.998
					c7.736,1.645,13.87,6.616,15.575,9.145c2.212,3.289,3.488,8.41,3.761,11.003c-9.749-6.923-20.197-13.439-30.007-16.52
					c-10.624-3.342-16.716,1.81-7.301,14.28c-15.313-6.215-29.416-12.63-38.704-15.539C51.166,14.018,55.874,14.547,58.116,15.002z"
					/>
			</g>
		</g>
		<g>
			<path fill="#F11829" d="M17.404,32.032h7.774l1.971,18.523h0.072l9.853-18.523h7.846l-5.41,25.581h-5.267l4.658-20.35h-0.072
				l-10.82,20.35H23.71l-2.472-20.35h-0.072l-3.833,20.35h-5.338L17.404,32.032z"/>
			<path fill="#F11829" d="M52.949,38.589c5.087,0,8.634,2.508,8.634,7.846c0,6.521-4.048,11.68-10.784,11.68
				c-5.159,0-8.491-2.688-8.491-7.99C42.308,43.855,46.356,38.589,52.949,38.589z M51.05,54.281c3.798,0,5.446-4.658,5.446-7.774
				c0-2.472-1.075-4.084-3.726-4.084c-3.726,0-5.374,4.586-5.374,7.703C47.396,52.311,48.649,54.281,51.05,54.281z"/>
			<path fill="#F11829" d="M70.47,39.09h3.654l-0.788,3.404h-3.619l-1.899,9.208c-0.071,0.394-0.143,0.716-0.143,0.86
				c0,1.325,0.967,1.361,1.72,1.361c0.609,0,1.218-0.036,1.827-0.107l-0.86,3.941c-1.039,0.107-2.114,0.179-3.188,0.179
				c-2.365,0-4.909-0.752-4.837-3.762c0-0.466,0.107-1.11,0.251-1.756l2.078-9.924h-3.332l0.788-3.404h3.26l1.146-5.625h5.087
				L70.47,39.09z"/>
			<path fill="#F11829" d="M82.079,38.589c5.088,0,8.635,2.508,8.635,7.846c0,6.521-4.049,11.68-10.784,11.68
				c-5.159,0-8.491-2.688-8.491-7.99C71.438,43.855,75.487,38.589,82.079,38.589z M80.18,54.281c3.798,0,5.446-4.658,5.446-7.774
				c0-2.472-1.075-4.084-3.726-4.084c-3.727,0-5.375,4.586-5.375,7.703C76.526,52.311,77.78,54.281,80.18,54.281z"/>
			<path fill="#F11829" d="M108.844,54.998h-0.071c-1.684,2.293-4.084,3.225-6.449,3.225c-7.165,0-11.357-4.12-11.357-11.322
				c0-8.276,5.339-15.478,13.974-15.478c5.982,0,10.855,2.794,10.855,9.064h-5.625c-0.144-3.082-2.078-4.335-5.195-4.335
				c-5.768,0-8.384,5.84-8.384,10.749c0,3.511,1.72,6.592,5.805,6.592c4.264,0,6.126-2.257,7.094-5.518h-5.912l0.896-4.192h10.855
				l-2.938,13.83h-3.548V54.998z"/>
			<path fill="#F11829" d="M116.298,44.715c0.646-4.658,4.586-6.126,8.778-6.126c3.296,0,7.774,0.716,7.703,4.873
				c0,0.788-0.18,1.97-0.395,3.117l-1.648,7.452c-0.179,0.646-0.25,1.792-0.25,2.508c0,0.323,0.071,0.753,0.179,1.075h-5.088v-1.827
				c-1.397,1.576-3.582,2.329-5.66,2.329c-4.049,0-6.02-2.293-6.02-4.873c0-3.547,2.688-5.768,7.094-6.306
				c4.801-0.573,7.059-0.322,7.059-2.687c0-1.827-1.935-2.257-3.225-2.257c-1.827,0-3.439,0.86-3.762,2.723H116.298z
				 M127.047,48.728c-1.29,0.752-2.831,0.788-4.3,0.896c-1.935,0.215-3.762,0.681-3.762,3.009c0,1.397,1.325,2.078,2.794,2.078
				c3.153,0,4.192-2.186,4.766-4.191L127.047,48.728z"/>
			<path fill="#F11829" d="M135.468,39.09h4.837l-0.753,3.332l0.072,0.072c1.146-2.544,3.654-3.905,6.377-3.905
				c0.537,0,1.039,0.036,1.576,0.107l-1.039,4.944c-0.716-0.144-1.433-0.323-2.149-0.323c-3.905,0-5.303,2.938-5.983,6.091
				l-1.72,8.205h-5.087L135.468,39.09z"/>
		</g>
	</g>
	<g>
		<path fill="#F11829" d="M16.847,25.138v1.926h-0.619v-4.92h1.568c0.457,0,0.816,0.137,1.078,0.411
			c0.261,0.273,0.392,0.638,0.392,1.093c0,0.473-0.125,0.837-0.374,1.093c-0.249,0.256-0.6,0.388-1.053,0.397H16.847z
			 M16.847,24.608h0.95c0.274,0,0.485-0.083,0.632-0.247c0.146-0.165,0.219-0.4,0.219-0.708c0-0.295-0.075-0.533-0.226-0.711
			s-0.358-0.268-0.622-0.268h-0.953V24.608z"/>
		<path fill="#F11829" d="M19.811,25.067c0-0.532,0.129-0.952,0.387-1.262c0.258-0.31,0.599-0.464,1.022-0.464
			c0.424,0,0.764,0.151,1.022,0.453c0.258,0.302,0.39,0.713,0.397,1.233v0.385c0,0.529-0.128,0.948-0.385,1.257
			s-0.599,0.463-1.027,0.463c-0.423,0-0.763-0.149-1.019-0.449c-0.256-0.3-0.388-0.705-0.397-1.216V25.067z M20.409,25.412
			c0,0.376,0.074,0.672,0.222,0.887c0.147,0.215,0.346,0.322,0.596,0.322c0.527,0,0.799-0.38,0.814-1.142v-0.412
			c0-0.374-0.074-0.669-0.223-0.887c-0.148-0.217-0.348-0.326-0.598-0.326c-0.246,0-0.442,0.108-0.589,0.326
			c-0.148,0.218-0.222,0.512-0.222,0.884V25.412z"/>
		<path fill="#F11829" d="M26.136,26.014l0.554-2.605h0.591l-0.896,3.656H25.91l-0.713-2.615l-0.696,2.615h-0.48l-0.889-3.656h0.588
			l0.568,2.541l0.679-2.541h0.473L26.136,26.014z"/>
		<path fill="#F11829" d="M29.215,27.132c-0.455,0-0.804-0.135-1.048-0.407c-0.243-0.271-0.367-0.67-0.372-1.195v-0.442
			c0-0.545,0.119-0.973,0.356-1.283c0.238-0.31,0.569-0.464,0.995-0.464c0.428,0,0.748,0.136,0.96,0.409
			c0.211,0.272,0.32,0.697,0.324,1.274v0.392H28.39V25.5c0,0.392,0.074,0.677,0.221,0.855c0.147,0.178,0.36,0.267,0.637,0.267
			c0.176,0,0.331-0.033,0.464-0.1c0.134-0.066,0.26-0.171,0.377-0.316l0.311,0.378C30.142,26.95,29.746,27.132,29.215,27.132z
			 M29.147,23.854c-0.248,0-0.431,0.085-0.551,0.255c-0.119,0.17-0.187,0.434-0.203,0.792h1.439v-0.081
			c-0.016-0.347-0.078-0.595-0.188-0.744C29.536,23.929,29.37,23.854,29.147,23.854z"/>
		<path fill="#F11829" d="M32.658,23.969c-0.083-0.016-0.173-0.023-0.271-0.023c-0.306,0-0.52,0.167-0.642,0.503v2.615h-0.598
			v-3.656h0.582l0.01,0.372c0.16-0.292,0.386-0.439,0.679-0.439c0.094,0,0.173,0.016,0.236,0.047L32.658,23.969z"/>
		<path fill="#F11829" d="M34.496,27.132c-0.455,0-0.804-0.135-1.048-0.407c-0.243-0.271-0.367-0.67-0.372-1.195v-0.442
			c0-0.545,0.119-0.973,0.356-1.283c0.238-0.31,0.569-0.464,0.995-0.464c0.428,0,0.748,0.136,0.96,0.409
			c0.211,0.272,0.32,0.697,0.324,1.274v0.392h-2.041V25.5c0,0.392,0.074,0.677,0.221,0.855c0.147,0.178,0.36,0.267,0.637,0.267
			c0.176,0,0.331-0.033,0.464-0.1c0.134-0.066,0.26-0.171,0.377-0.316l0.311,0.378C35.423,26.95,35.027,27.132,34.496,27.132z
			 M34.428,23.854c-0.248,0-0.431,0.085-0.551,0.255c-0.119,0.17-0.187,0.434-0.203,0.792h1.439v-0.081
			c-0.016-0.347-0.078-0.595-0.188-0.744C34.817,23.929,34.651,23.854,34.428,23.854z"/>
		<path fill="#F11829" d="M36.304,25.071c0-0.563,0.105-0.992,0.316-1.288c0.211-0.295,0.513-0.442,0.908-0.442
			c0.349,0,0.622,0.142,0.817,0.426v-1.893h0.598v5.19h-0.547l-0.03-0.392c-0.196,0.307-0.477,0.459-0.841,0.459
			c-0.378,0-0.675-0.147-0.891-0.441c-0.215-0.294-0.325-0.709-0.33-1.245V25.071z M36.902,25.41c0,0.41,0.061,0.71,0.183,0.903
			s0.32,0.289,0.595,0.289c0.297,0,0.519-0.149,0.666-0.449V24.31c-0.153-0.292-0.374-0.439-0.662-0.439
			c-0.275,0-0.473,0.096-0.595,0.289s-0.184,0.488-0.186,0.886V25.41z"/>
		<path fill="#F11829" d="M44.096,25.412c0,0.57-0.103,0.999-0.308,1.288c-0.205,0.288-0.502,0.432-0.892,0.432
			c-0.387,0-0.678-0.167-0.872-0.5l-0.03,0.433H41.45v-5.19h0.595v1.937c0.196-0.313,0.478-0.47,0.845-0.47
			c0.401,0,0.702,0.142,0.902,0.426c0.201,0.284,0.302,0.712,0.304,1.284V25.412z M43.501,25.069c0-0.432-0.06-0.74-0.181-0.923
			c-0.121-0.184-0.316-0.275-0.586-0.275c-0.309,0-0.539,0.167-0.689,0.5v1.738c0.149,0.329,0.381,0.493,0.696,0.493
			c0.271,0,0.464-0.095,0.581-0.284s0.177-0.482,0.179-0.881V25.069z"/>
		<path fill="#F11829" d="M45.823,26.071l0.666-2.663h0.635l-1.196,4.173c-0.09,0.313-0.217,0.551-0.382,0.714
			c-0.164,0.164-0.351,0.245-0.561,0.245c-0.081,0-0.185-0.018-0.311-0.054V27.98l0.132,0.014c0.173,0,0.309-0.041,0.407-0.124
			c0.098-0.082,0.177-0.225,0.238-0.427l0.118-0.409l-1.075-3.626h0.652L45.823,26.071z"/>
	</g>
	<g>
		<path fill="#F11829" d="M92.004,69.301l-0.13,0.162c-0.374,0.438-0.923,0.655-1.644,0.655c-0.641,0-1.144-0.212-1.508-0.637
			c-0.365-0.425-0.552-1.024-0.56-1.801v-1.163c0-0.831,0.166-1.452,0.498-1.866s0.83-0.62,1.491-0.62
			c0.564,0,1.006,0.156,1.325,0.47c0.318,0.313,0.494,0.762,0.526,1.345H91.26c-0.03-0.369-0.133-0.657-0.308-0.864
			c-0.175-0.208-0.44-0.312-0.795-0.312c-0.427,0-0.738,0.139-0.937,0.417s-0.301,0.723-0.31,1.333v1.208
			c0,0.597,0.114,1.055,0.342,1.374c0.229,0.318,0.556,0.478,0.981,0.478c0.401,0,0.706-0.097,0.915-0.292l0.11-0.101v-1.361h-1.083
			v-0.639h1.827V69.301z"/>
		<path fill="#F11829" d="M95.984,68.486h-2.003l-0.459,1.551h-0.766l1.908-5.925h0.64l1.912,5.925h-0.765L95.984,68.486z
			 M94.177,67.848h1.616l-0.81-2.693L94.177,67.848z"/>
		<path fill="#F11829" d="M99.813,67.641h-1.042v2.396h-0.749v-5.925h1.66c0.581,0,1.021,0.151,1.318,0.453
			c0.299,0.303,0.448,0.746,0.448,1.329c0,0.366-0.081,0.686-0.242,0.958c-0.161,0.273-0.39,0.479-0.686,0.617l1.147,2.519v0.049
			h-0.802L99.813,67.641z M98.771,67.001h0.903c0.312,0,0.561-0.101,0.747-0.301c0.186-0.201,0.278-0.471,0.278-0.808
			c0-0.761-0.345-1.142-1.033-1.142h-0.896V67.001z"/>
		<path fill="#F11829" d="M105.21,68.486h-2.003l-0.459,1.551h-0.766l1.908-5.925h0.64l1.912,5.925h-0.765L105.21,68.486z
			 M103.402,67.848h1.616l-0.81-2.693L103.402,67.848z"/>
		<path fill="#F11829" d="M108.408,67.087l1.212-2.975h0.843l-1.685,3.715v2.21h-0.745v-2.21l-1.685-3.715h0.847L108.408,67.087z"/>
		<path fill="#F11829" d="M117.022,70.037h-0.748v-2.738h-2.385v2.738h-0.745v-5.925h0.745v2.547h2.385v-2.547h0.748V70.037z"/>
		<path fill="#F11829" d="M122.183,70.037h-0.749l-2.372-4.565v4.565h-0.749v-5.925h0.749l2.381,4.586v-4.586h0.74V70.037z"/>
		<path fill="#F11829" d="M127.325,67.596c0,0.809-0.172,1.431-0.517,1.867c-0.345,0.438-0.834,0.655-1.469,0.655
			c-0.61,0-1.093-0.212-1.447-0.637c-0.354-0.425-0.537-1.024-0.551-1.801v-1.114c0-0.793,0.175-1.413,0.524-1.862
			c0.351-0.449,0.839-0.673,1.466-0.673c0.623,0,1.109,0.215,1.458,0.645s0.527,1.044,0.535,1.842V67.596z M126.581,66.558
			c0-0.626-0.103-1.093-0.308-1.397c-0.205-0.306-0.519-0.458-0.941-0.458c-0.41,0-0.72,0.154-0.931,0.464
			c-0.21,0.31-0.316,0.766-0.319,1.367v1.063c0,0.604,0.105,1.066,0.315,1.384s0.524,0.476,0.942,0.476s0.727-0.146,0.928-0.439
			c0.2-0.293,0.305-0.742,0.313-1.347V66.558z"/>
		<path fill="#F11829" d="M131.065,68.54c0-0.296-0.08-0.522-0.239-0.68c-0.16-0.157-0.449-0.311-0.867-0.46
			s-0.737-0.306-0.958-0.47c-0.222-0.165-0.387-0.352-0.497-0.563c-0.109-0.21-0.164-0.45-0.164-0.722c0-0.47,0.156-0.856,0.47-1.16
			s0.724-0.455,1.23-0.455c0.348,0,0.657,0.077,0.928,0.232c0.271,0.154,0.48,0.37,0.627,0.646s0.22,0.58,0.22,0.911h-0.749
			c0-0.366-0.088-0.649-0.264-0.851c-0.177-0.2-0.431-0.301-0.762-0.301c-0.301,0-0.534,0.084-0.699,0.253
			c-0.166,0.168-0.249,0.404-0.249,0.709c0,0.25,0.09,0.459,0.269,0.628c0.18,0.168,0.456,0.319,0.831,0.452
			c0.583,0.193,1,0.431,1.251,0.713s0.376,0.651,0.376,1.106c0,0.48-0.155,0.865-0.468,1.154c-0.312,0.288-0.736,0.433-1.273,0.433
			c-0.345,0-0.663-0.075-0.954-0.226c-0.292-0.15-0.521-0.362-0.688-0.635c-0.166-0.272-0.25-0.585-0.25-0.938h0.749
			c0,0.366,0.103,0.65,0.308,0.854c0.204,0.203,0.483,0.305,0.836,0.305c0.328,0,0.575-0.084,0.74-0.252
			C130.983,69.06,131.065,68.83,131.065,68.54z"/>
		<path fill="#F11829" d="M137.291,68.54c0-0.296-0.08-0.522-0.239-0.68c-0.16-0.157-0.449-0.311-0.867-0.46
			s-0.737-0.306-0.958-0.47c-0.222-0.165-0.387-0.352-0.497-0.563c-0.109-0.21-0.164-0.45-0.164-0.722c0-0.47,0.156-0.856,0.47-1.16
			s0.724-0.455,1.23-0.455c0.348,0,0.657,0.077,0.928,0.232c0.271,0.154,0.48,0.37,0.627,0.646s0.22,0.58,0.22,0.911h-0.749
			c0-0.366-0.088-0.649-0.264-0.851c-0.177-0.2-0.431-0.301-0.762-0.301c-0.301,0-0.534,0.084-0.699,0.253
			c-0.166,0.168-0.249,0.404-0.249,0.709c0,0.25,0.09,0.459,0.269,0.628c0.18,0.168,0.456,0.319,0.831,0.452
			c0.583,0.193,1,0.431,1.251,0.713s0.376,0.651,0.376,1.106c0,0.48-0.155,0.865-0.468,1.154c-0.312,0.288-0.736,0.433-1.273,0.433
			c-0.345,0-0.663-0.075-0.954-0.226c-0.292-0.15-0.521-0.362-0.688-0.635c-0.166-0.272-0.25-0.585-0.25-0.938h0.749
			c0,0.366,0.103,0.65,0.308,0.854c0.204,0.203,0.483,0.305,0.836,0.305c0.328,0,0.575-0.084,0.74-0.252
			C137.209,69.06,137.291,68.83,137.291,68.54z"/>
		<path fill="#F11829" d="M140.812,67.641h-1.042v2.396h-0.749v-5.925h1.66c0.581,0,1.021,0.151,1.318,0.453
			c0.299,0.303,0.448,0.746,0.448,1.329c0,0.366-0.081,0.686-0.242,0.958c-0.161,0.273-0.39,0.479-0.686,0.617l1.147,2.519v0.049
			h-0.802L140.812,67.641z M139.77,67.001h0.903c0.312,0,0.561-0.101,0.747-0.301c0.186-0.201,0.278-0.471,0.278-0.808
			c0-0.761-0.345-1.142-1.033-1.142h-0.896V67.001z"/>
		<path fill="#F11829" d="M144.193,69.398h2.323v0.639h-3.072v-5.925h0.749V69.398z"/>
	</g>
</g>
</svg>
