<?xml version="1.0" encoding="utf-8"?>
<!-- Generator: Adobe Illustrator 16.0.0, SVG Export Plug-In . SVG Version: 6.00 Build 0)  -->
<!DOCTYPE svg PUBLIC "-//W3C//DTD SVG 1.1//EN" "http://www.w3.org/Graphics/SVG/1.1/DTD/svg11.dtd">
<svg version="1.1" id="Capa_1" xmlns="http://www.w3.org/2000/svg" xmlns:xlink="http://www.w3.org/1999/xlink" x="0px" y="0px"
	 width="172px" height="85.5px" viewBox="0 0 172 85.5" enable-background="new 0 0 172 85.5" xml:space="preserve">
<g>
	<g>
		<path fill="#DB1829" d="M46.443,23.314c2.829,0.568,7.974,3.052,16.521,6.385c0.567-2.034,1.187-5.242,2.172-7.457
			c2.862-6.406,9.615-8.2,22.704-6.763c17.65,1.924,37.498,13.704,41.123,14.923c8.275,1.886-6.641-9.332-12.613-11.965
			c13.225,2.811,23.713,11.313,26.631,15.641c3.783,5.618,5.961,14.375,6.432,18.81C132.742,41.05,114.873,29.908,98.1,24.64
			c-18.167-5.713-28.578,3.091-12.479,24.422C59.434,38.436,35.32,27.462,19.436,22.489C34.56,21.628,42.609,22.536,46.443,23.314z"
			/>
	</g>
	<g>
		<path fill="#FFFFFF" d="M131.939,69.975h0.762l-0.164,0.763h-0.763L131.939,69.975z"/>
		<path fill="#FFFFFF" d="M136.438,68.313c0-0.433-0.296-0.693-0.749-0.693c-0.898,0-1.379,0.893-1.379,1.669
			c0,0.549,0.227,1.016,0.879,1.016c0.5,0,0.871-0.295,1.036-0.729h0.583c-0.205,0.791-0.803,1.244-1.619,1.244
			c-0.969,0-1.463-0.577-1.463-1.531c0-1.127,0.693-2.184,1.963-2.184c0.805,0,1.305,0.384,1.332,1.208H136.438z"/>
		<path fill="#FFFFFF" d="M139.374,67.105c0.948,0,1.477,0.521,1.477,1.469c0,1.16-0.722,2.246-1.964,2.246
			c-0.934,0-1.497-0.625-1.497-1.484C137.39,68.176,138.131,67.105,139.374,67.105z M138.948,70.305
			c0.852,0,1.318-0.982,1.318-1.682c0-0.557-0.295-1.003-0.934-1.003c-0.893,0-1.36,0.975-1.36,1.71
			C137.973,69.913,138.31,70.305,138.948,70.305z"/>
		<path fill="#FFFFFF" d="M141.939,67.188h0.541l-0.13,0.528l0.014,0.015c0.302-0.371,0.749-0.625,1.236-0.625
			c0.446,0,0.79,0.178,0.893,0.639c0.274-0.379,0.741-0.639,1.216-0.639c0.5,0,0.988,0.219,0.988,0.796
			c0,0.206-0.055,0.509-0.104,0.708l-0.445,2.128h-0.584l0.494-2.252c0.027-0.11,0.055-0.282,0.055-0.385
			c0-0.274-0.233-0.48-0.542-0.48c-0.329,0-0.694,0.233-0.894,0.487c-0.191,0.206-0.268,0.494-0.328,0.797l-0.393,1.833h-0.583
			l0.425-2.025c0.063-0.274,0.111-0.542,0.111-0.625c0-0.296-0.18-0.467-0.495-0.467c-0.323,0-0.666,0.22-0.872,0.453
			c-0.247,0.24-0.303,0.453-0.377,0.804l-0.398,1.86h-0.584L141.939,67.188z"/>
		<path fill="#FFFFFF" d="M147.342,69.975h0.762l-0.164,0.763h-0.763L147.342,69.975z"/>
		<path fill="#FFFFFF" d="M149.348,68.258c0.117-0.789,0.783-1.152,1.539-1.152c0.687,0,1.297,0.186,1.297,0.906
			c0,0.199-0.068,0.453-0.109,0.645l-0.227,0.969c-0.027,0.145-0.096,0.344-0.096,0.508c0,0.165,0.075,0.22,0.172,0.22
			c0.055,0,0.13-0.027,0.185-0.048l-0.089,0.433c-0.09,0.048-0.254,0.083-0.357,0.083c-0.322,0-0.494-0.193-0.46-0.502l-0.014-0.014
			c-0.247,0.33-0.591,0.516-1.188,0.516c-0.59,0-1.084-0.275-1.084-1.003c0-1.03,1.01-1.099,1.792-1.167
			c0.618-0.056,0.893-0.09,0.893-0.563c0-0.385-0.405-0.467-0.714-0.467c-0.447,0-0.887,0.179-0.955,0.638H149.348z M150.139,70.305
			c0.453,0,0.789-0.15,0.995-0.467c0.192-0.268,0.227-0.584,0.309-0.913h-0.014c-0.254,0.151-0.714,0.185-1.14,0.24
			c-0.419,0.062-0.789,0.192-0.789,0.646C149.5,70.141,149.809,70.305,150.139,70.305z"/>
		<path fill="#FFFFFF" d="M153.258,67.188h0.55l-0.171,0.762h0.014c0.273-0.487,0.693-0.844,1.291-0.844
			c0.068,0,0.137-0.014,0.205,0l-0.137,0.625c-0.055-0.008-0.117-0.008-0.172-0.008c-0.145,0-0.213,0-0.35,0.035
			c-0.323,0.082-0.57,0.295-0.756,0.576c-0.158,0.227-0.24,0.563-0.295,0.831l-0.337,1.572h-0.583L153.258,67.188z"/>
	</g>
	<g>
		<path fill="#FFFFFF" d="M39.817,70.737H35.73l3.727-17.514h-0.059L31.76,70.737h-4.291l-0.098-17.514h-0.058l-3.727,17.514H19.5
			l4.459-20.958h6.393l0.28,16.521h0.058l7.251-16.521h6.334L39.817,70.737z"/>
		<path fill="#FFFFFF" d="M49.911,71.146c-4.174,0-7.393-2.569-6.201-8.174s5.504-8.173,9.679-8.173
			c4.174,0,7.393,2.569,6.201,8.173S54.085,71.146,49.911,71.146z M52.656,58.244c-3.153,0-4.32,2.744-4.743,4.729
			s-0.422,4.729,2.73,4.729c3.152,0,4.32-2.744,4.742-4.729S55.809,58.244,52.656,58.244z"/>
		<path fill="#FFFFFF" d="M67.951,55.208h2.54l-0.621,2.919h-2.54l-1.795,8.436c-0.192,0.905-0.238,1.256,1.426,1.256
			c0.263,0,0.561-0.029,0.859-0.059l-0.658,3.094c-0.648,0.029-1.297,0.059-1.939,0.059h-0.526c-3.532,0-3.888-1.342-3.46-3.356
			l2.006-9.429h-2.102l0.621-2.919h2.102l0.895-4.203h4.086L67.951,55.208z"/>
		<path fill="#FFFFFF" d="M76,71.146c-4.174,0-7.393-2.569-6.201-8.174s5.504-8.173,9.678-8.173c4.174,0,7.394,2.569,6.201,8.173
			S80.175,71.146,76,71.146z M78.746,58.244c-3.153,0-4.32,2.744-4.743,4.729s-0.422,4.729,2.73,4.729
			c3.152,0,4.32-2.744,4.742-4.729S81.898,58.244,78.746,58.244z"/>
		<path fill="#FFFFFF" d="M98.715,59.441h8.758l-2.404,11.296h-2.918l0.121-2.627c-1.383,1.284-3.393,3.182-7.216,3.182
			c-5.05,0-8.863-3.62-7.298-10.976c1.217-5.721,5.548-11.122,12.605-11.092c6.422,0,8.073,4.174,7.691,7.064h-4.378
			c0.174-0.817-0.756-3.444-3.851-3.444c-3.123,0-6.473,2.16-7.615,7.531c-1.217,5.721,1.59,7.21,4.567,7.21
			c0.964,0,4.255-0.38,6.06-4.612h-4.874L98.715,59.441z"/>
		<path fill="#FFFFFF" d="M121.355,67.701c-0.392,1.84-0.07,2.248,0.389,2.424l-0.13,0.612h-4.407
			c-0.079-0.729-0.088-0.964,0.012-1.839c-1.14,0.963-2.727,2.248-5.5,2.248c-2.334,0-4.449-1.314-3.766-4.525
			c0.646-3.035,2.901-4.583,5.58-4.962l3.796-0.555c0.661-0.087,1.505-0.35,1.691-1.226c0.366-1.722-1.249-1.81-2.3-1.81
			c-2.044,0-2.661,1.255-2.971,2.16h-3.94c1.479-4.758,4.921-5.43,8.103-5.43c2.189,0,6.045,0.671,5.231,4.496L121.355,67.701z
			 M118.318,63.177c-0.477,0.321-1.204,0.583-2.953,0.846c-1.574,0.263-2.909,0.643-3.27,2.335c-0.305,1.43,0.712,1.868,1.5,1.868
			c1.81,0,3.896-1.167,4.301-3.064L118.318,63.177z"/>
		<path fill="#FFFFFF" d="M126.898,55.208h3.912l-0.571,2.686h0.058c1.183-1.576,2.439-3.094,4.921-3.094
			c0.263,0,0.519,0.029,0.775,0.059l-0.882,4.145c-0.338-0.059-0.775-0.059-1.154-0.059c-3.183,0-4.188,1.985-4.555,3.708
			l-1.721,8.085h-4.086L126.898,55.208z"/>
	</g>
</g>
</svg>
