<?xml version="1.0" encoding="utf-8"?>
<!-- Generator: Adobe Illustrator 16.0.0, SVG Export Plug-In . SVG Version: 6.00 Build 0)  -->
<!DOCTYPE svg PUBLIC "-//W3C//DTD SVG 1.1//EN" "http://www.w3.org/Graphics/SVG/1.1/DTD/svg11.dtd">
<svg version="1.1" id="Capa_1" xmlns="http://www.w3.org/2000/svg" xmlns:xlink="http://www.w3.org/1999/xlink" x="0px" y="0px"
	 width="172px" height="46.75px" viewBox="0 38.75 172 46.75" enable-background="new 0 38.75 172 46.75" xml:space="preserve">
<g>
	<g>
		<path fill="#0F1116" d="M131.939,69.975h0.762l-0.164,0.764h-0.764L131.939,69.975z"/>
		<path fill="#0F1116" d="M136.438,68.313c0-0.433-0.295-0.692-0.748-0.692c-0.898,0-1.379,0.894-1.379,1.669
			c0,0.549,0.227,1.016,0.879,1.016c0.5,0,0.871-0.295,1.035-0.729h0.584c-0.205,0.791-0.804,1.244-1.619,1.244
			c-0.969,0-1.463-0.577-1.463-1.531c0-1.127,0.692-2.184,1.963-2.184c0.805,0,1.305,0.384,1.332,1.207H136.438L136.438,68.313z"/>
		<path fill="#0F1116" d="M139.374,67.105c0.948,0,1.478,0.521,1.478,1.469c0,1.16-0.723,2.246-1.965,2.246
			c-0.934,0-1.496-0.625-1.496-1.484C137.391,68.176,138.131,67.105,139.374,67.105z M138.948,70.305
			c0.852,0,1.317-0.981,1.317-1.682c0-0.557-0.295-1.003-0.934-1.003c-0.893,0-1.359,0.976-1.359,1.71
			C137.973,69.913,138.311,70.305,138.948,70.305z"/>
		<path fill="#0F1116" d="M141.939,67.188h0.541l-0.131,0.528l0.014,0.015c0.303-0.371,0.75-0.625,1.236-0.625
			c0.446,0,0.791,0.179,0.894,0.64c0.274-0.379,0.741-0.64,1.216-0.64c0.5,0,0.988,0.22,0.988,0.797
			c0,0.205-0.055,0.509-0.104,0.707l-0.444,2.129h-0.584l0.494-2.252c0.026-0.11,0.055-0.282,0.055-0.385
			c0-0.274-0.233-0.48-0.543-0.48c-0.328,0-0.693,0.232-0.894,0.486c-0.19,0.207-0.268,0.494-0.327,0.797l-0.394,1.834h-0.583
			l0.425-2.025c0.063-0.273,0.111-0.542,0.111-0.625c0-0.296-0.181-0.467-0.495-0.467c-0.323,0-0.666,0.22-0.872,0.453
			c-0.247,0.24-0.304,0.453-0.377,0.804l-0.397,1.86h-0.584L141.939,67.188z"/>
		<path fill="#0F1116" d="M147.342,69.975h0.762l-0.164,0.764h-0.763L147.342,69.975z"/>
		<path fill="#0F1116" d="M149.348,68.258c0.117-0.789,0.783-1.152,1.539-1.152c0.688,0,1.297,0.187,1.297,0.906
			c0,0.199-0.067,0.453-0.108,0.646l-0.228,0.969c-0.027,0.146-0.096,0.345-0.096,0.508c0,0.165,0.075,0.22,0.172,0.22
			c0.055,0,0.131-0.026,0.186-0.047l-0.09,0.433c-0.09,0.048-0.254,0.083-0.356,0.083c-0.322,0-0.494-0.193-0.46-0.502l-0.014-0.014
			c-0.248,0.33-0.592,0.516-1.188,0.516c-0.59,0-1.084-0.275-1.084-1.004c0-1.029,1.01-1.098,1.792-1.166
			c0.618-0.057,0.893-0.09,0.893-0.563c0-0.385-0.404-0.467-0.713-0.467c-0.447,0-0.888,0.179-0.955,0.638h-0.586V68.258z
			 M150.139,70.305c0.453,0,0.789-0.15,0.995-0.467c0.192-0.268,0.228-0.584,0.31-0.913h-0.014c-0.255,0.151-0.715,0.185-1.141,0.24
			c-0.419,0.062-0.789,0.192-0.789,0.646C149.5,70.141,149.809,70.305,150.139,70.305z"/>
		<path fill="#0F1116" d="M153.258,67.188h0.551l-0.172,0.763h0.014c0.273-0.487,0.693-0.845,1.291-0.845
			c0.068,0,0.138-0.014,0.205,0l-0.137,0.625c-0.055-0.008-0.117-0.008-0.172-0.008c-0.145,0-0.213,0-0.35,0.035
			c-0.323,0.082-0.57,0.295-0.756,0.576c-0.158,0.227-0.24,0.563-0.295,0.831l-0.338,1.571h-0.582L153.258,67.188z"/>
	</g>
	<g>
		<path fill="#0F1116" d="M39.817,70.736H35.73l3.727-17.514h-0.059L31.76,70.736h-4.291l-0.098-17.514h-0.058l-3.727,17.514H19.5
			l4.459-20.957h6.393l0.28,16.521h0.058l7.251-16.521h6.334L39.817,70.736z"/>
		<path fill="#0F1116" d="M49.911,71.146c-4.174,0-7.393-2.569-6.201-8.174c1.192-5.605,5.504-8.174,9.679-8.174
			c4.174,0,7.393,2.569,6.201,8.174C58.398,68.576,54.085,71.146,49.911,71.146z M52.656,58.244c-3.153,0-4.32,2.744-4.743,4.729
			c-0.423,1.985-0.422,4.729,2.73,4.729s4.32-2.744,4.742-4.729C55.807,60.988,55.809,58.244,52.656,58.244z"/>
		<path fill="#0F1116" d="M67.951,55.208h2.54l-0.621,2.919h-2.54l-1.795,8.436c-0.192,0.905-0.238,1.256,1.426,1.256
			c0.263,0,0.561-0.028,0.859-0.059l-0.658,3.094c-0.648,0.029-1.297,0.06-1.939,0.06h-0.526c-3.532,0-3.888-1.343-3.46-3.356
			l2.006-9.429h-2.102l0.621-2.919h2.102l0.895-4.203h4.086L67.951,55.208z"/>
		<path fill="#0F1116" d="M76,71.146c-4.174,0-7.393-2.569-6.201-8.174c1.192-5.605,5.504-8.174,9.678-8.174
			s7.394,2.569,6.201,8.174C84.485,68.576,80.175,71.146,76,71.146z M78.746,58.244c-3.153,0-4.32,2.744-4.743,4.729
			c-0.423,1.985-0.422,4.729,2.73,4.729s4.32-2.744,4.742-4.729C81.897,60.988,81.898,58.244,78.746,58.244z"/>
		<path fill="#0F1116" d="M98.715,59.441h8.758l-2.404,11.295h-2.918l0.121-2.627c-1.383,1.285-3.393,3.183-7.215,3.183
			c-5.051,0-8.864-3.62-7.299-10.976c1.217-5.721,5.549-11.123,12.605-11.092c6.422,0,8.072,4.174,7.691,7.063h-4.379
			c0.174-0.817-0.756-3.444-3.851-3.444c-3.123,0-6.474,2.16-7.615,7.531c-1.217,5.721,1.59,7.21,4.567,7.21
			c0.964,0,4.255-0.38,6.06-4.612h-4.874L98.715,59.441z"/>
		<path fill="#0F1116" d="M121.355,67.701c-0.393,1.84-0.07,2.248,0.389,2.424l-0.13,0.611h-4.407
			c-0.079-0.729-0.088-0.963,0.012-1.838c-1.14,0.963-2.727,2.248-5.5,2.248c-2.334,0-4.449-1.314-3.766-4.525
			c0.646-3.035,2.9-4.583,5.58-4.962l3.796-0.556c0.661-0.086,1.505-0.35,1.69-1.226c0.367-1.722-1.248-1.81-2.299-1.81
			c-2.045,0-2.662,1.255-2.972,2.16h-3.94c1.479-4.758,4.922-5.431,8.104-5.431c2.189,0,6.045,0.671,5.23,4.496L121.355,67.701z
			 M118.318,63.177c-0.478,0.321-1.205,0.583-2.953,0.847c-1.574,0.263-2.909,0.643-3.27,2.334c-0.306,1.431,0.711,1.869,1.5,1.869
			c1.809,0,3.896-1.168,4.301-3.064L118.318,63.177z"/>
		<path fill="#0F1116" d="M126.898,55.208h3.912l-0.572,2.687h0.059c1.184-1.576,2.439-3.095,4.921-3.095
			c0.263,0,0.519,0.029,0.775,0.06l-0.882,4.145c-0.338-0.059-0.775-0.059-1.154-0.059c-3.184,0-4.188,1.984-4.555,3.707
			l-1.721,8.086h-4.086L126.898,55.208z"/>
	</g>
</g>
</svg>
