<?xml version="1.0" encoding="utf-8"?>
<!-- Generator: Adobe Illustrator 24.0.1, SVG Export Plug-In . SVG Version: 6.00 Build 0)  -->
<svg version="1.1" id="Capa_1" xmlns="http://www.w3.org/2000/svg" xmlns:xlink="http://www.w3.org/1999/xlink" x="0px" y="0px"
	 viewBox="0 0 120 50" style="enable-background:new 0 0 120 50;" xml:space="preserve">
<style type="text/css">
	.st0{fill:#2A8CDD;}
</style>
<g id="_x23_0a51a1ff">
	<path id="path6" class="st0" d="M21.5,16.6c0.3,0,1-0.3,1.4,0c3.1,1.4,6.2,2.7,9.2,4.1c0.7,0,0.7,1.4,0,1.7c-2.4,1-4.8,2.4-7.2,3.4
		c2.4,1,4.8,2.1,7.2,3.4c0.3,0,0.7,0.3,0.7,1c0,0.3-0.7,0.7-1,1c-2.7,1.4-5.8,2.4-8.6,3.8c-0.3,0-1,0-1.4,0
		c-2.1-0.7-4.1-1.7-6.2-2.4c2.1-1,4.1-2.1,6.5-3.1c0,0,0.7,0,0.7-0.7c-0.3-0.3-1-0.7-1.4-1c-0.3,0-0.7-0.3-1,0
		c-2.4,1-4.8,2.1-7.2,3.4c0-1.4,0-2.7,0-3.8c1-0.3,2.1-1,3.1-1.4c-1-1-2.1-1.4-3.1-1.7c0-1.4,0-2.7,0-3.8c2.1,1.4,4.4,2.4,7.2,3.4
		c0.7-0.3,1.7-0.7,2.1-1c0-0.3,0-0.3-0.3-0.7c-2.4-1.4-4.4-2.1-6.5-3.1C17.8,18.3,19.5,17.2,21.5,16.6z"/>
	<path id="path8" class="st0" d="M42.1,21c2.7,0,5.5,0,8.2,0c1.4,0,2.7,0,3.8,0.7c1,0.7,1,1.7,0.7,2.7c-0.3,0.7-1,1-1.7,1.4
		c0.7,0.3,1.4,0.7,1.7,1.4c0.3,1,0,2.1-0.7,2.7c-1,0.7-2.4,0.7-3.8,0.7c-2.7,0-5.5,0-8.2,0C42.1,27.5,42.1,24.1,42.1,21 M45.1,23.1
		c0,1,0,2.1,0,3.4c0.3-0.7,0.7-1.7,1.7-2.1c1.4,0,2.4,0,3.8,0c0.3,0,1-0.3,0.7-0.7c0-0.3-0.3-0.7-0.7-0.7
		C48.9,23.1,47.2,23.1,45.1,23.1 M45.1,26.5c0,1.4,0,2.4,0,3.8c0.3-0.7,0.7-1.7,1.4-1.7c1.4,0,2.4,0,3.8,0c0.7,0,1.4-0.7,1-1
		c0-0.7-0.7-0.7-1.4-0.7C48.6,26.5,47.2,26.5,45.1,26.5z"/>
	<path id="path10" class="st0" d="M60.2,21c1.4,0,2.7,0,3.8,0c2.1,3.1,3.8,6.2,5.8,9.6c-1.4,0-2.4,0-3.8,0c-0.3-0.3-0.7-1-1-1.7l0,0
		c-1.7,0-3.4,0-5.1,0c0.3-0.7,0.7-1.7,1.7-2.1c0.7,0,1.7,0,2.4,0c-0.3-1-1-2.1-1.7-3.4c-1.4,2.4-2.7,4.8-4.1,7.2c-1.4,0-2.4,0-3.8,0
		C56.4,27.5,58.5,24.4,60.2,21z"/>
	<path id="path12" class="st0" d="M76.6,21c1,0,2.1,0,3.1,0c0,2.1,0,4.4,0,6.5c0,0.7,0,1.7-0.7,2.1c-0.7,0.7-2.1,0.7-3.1,0.7
		c-1.7,0-3.1,0-4.8,0c-1,0-1.4-1.4-1.7-2.1c2.1,0,3.8,0,5.8,0c0.3,0,1.4-0.3,1.4-1C76.6,25.5,76.6,23.1,76.6,21z"/>
	<path id="path14" class="st0" d="M85.2,21c1.4,0,2.7,0,3.8,0c2.1,3.1,3.8,6.2,5.8,9.6c-1.4,0-2.4,0-3.8,0c-0.3-0.7-0.7-1-1-1.7
		c-1.7,0-3.4,0-5.5,0c0.3-0.7,0.7-1.7,1.4-2.1c1,0,1.7,0,2.7,0c-0.7-1-1.4-2.1-2.1-3.4c-1.4,2.4-2.7,4.8-4.1,7.2c-1.4,0-2.4,0-3.8,0
		C81.1,27.5,83.1,24.4,85.2,21z"/>
	<path id="path16" class="st0" d="M101.6,21c1,0,2.1,0,3.1,0c0,2.4,0,4.8,0,7.2c0,0.7-0.3,1.7-1,2.1c-1,0.7-2.1,0.3-3.1,0.3
		c-1.4,0-2.7,0-4.1,0c-1,0-1.4-1.4-2.1-2.1c2.1,0,3.8,0,5.8,0c0.7,0,1.4-0.3,1.4-1C101.6,25.5,101.6,23.1,101.6,21z"/>
</g>
</svg>
