<?xml version="1.0" encoding="utf-8"?>
<!-- Generator: Adobe Illustrator 16.0.0, SVG Export Plug-In . SVG Version: 6.00 Build 0)  -->
<!DOCTYPE svg PUBLIC "-//W3C//DTD SVG 1.1//EN" "http://www.w3.org/Graphics/SVG/1.1/DTD/svg11.dtd">
<svg version="1.1" id="Capa_1" xmlns="http://www.w3.org/2000/svg" xmlns:xlink="http://www.w3.org/1999/xlink" x="0px" y="0px"
	 width="120px" height="50px" viewBox="0 0 120 50" enable-background="new 0 0 120 50" xml:space="preserve">
<g>
	<g>
		<path fill="#BB0411" d="M33.723-148.697c-5.176,0-9.373,4.194-9.373,9.372c0,5.176,4.197,9.372,9.373,9.372
			s9.375-4.196,9.375-9.372C43.097-144.503,38.899-148.697,33.723-148.697z M33.723-130.335c-4.969,0-8.99-4.026-8.99-8.99
			c0-4.966,4.021-8.988,8.99-8.988c4.961,0,8.991,4.022,8.991,8.988C42.713-134.361,38.684-130.335,33.723-130.335z"/>
		<path fill="#BB0411" d="M33.722-147.211c-4.358,0-7.888,3.531-7.888,7.886c0,4.356,3.53,7.889,7.888,7.889
			c4.355,0,7.882-3.532,7.882-7.889C41.604-143.68,38.077-147.211,33.722-147.211z M39.438-135.764l-1.596-0.313
			c-0.008-0.253-0.141-0.45-0.445-0.626c-0.351-0.202-0.447-0.195-0.859-0.125c-0.417,0.069-0.919-0.141-1.199-0.303
			c-0.058-0.035-0.257-0.148-0.544-0.318c0,1.92,0,3.741,0,3.741h-0.55v-4.057c-0.161-0.091-0.331-0.187-0.514-0.297
			c-0.186,0.11-0.36,0.209-0.525,0.303v4.051h-0.553c0,0,0-1.816,0-3.729c-0.276,0.157-0.462,0.267-0.522,0.299
			c-0.281,0.162-0.78,0.371-1.196,0.3c-0.414-0.067-0.506-0.078-0.86,0.123c-0.3,0.177-0.434,0.379-0.442,0.636l-1.596,0.31
			c-0.127,0.031-0.247,0.017-0.285-0.063c-0.047-0.086-0.012-0.2,0.075-0.301l1.071-1.223c0.227,0.12,0.465,0.106,0.77-0.065
			c0.351-0.206,0.394-0.294,0.537-0.683c0.146-0.398,0.577-0.726,0.859-0.889c0.057-0.034,0.251-0.141,0.527-0.3
			c-1.677-0.972-3.287-1.899-3.287-1.899l0.279-0.479l3.561,2.057c0.157-0.093,0.329-0.191,0.51-0.297c0-0.216,0-0.419,0-0.604
			l-3.552-2.055l0.279-0.477c0,0,1.599,0.926,3.273,1.894c0-0.359,0-0.602,0-0.676c0-0.327,0.071-0.867,0.335-1.189
			c0.272-0.32,0.326-0.403,0.326-0.805c0-0.353-0.108-0.568-0.326-0.702l0.529-1.538c0.04-0.128,0.109-0.225,0.199-0.217
			c0.094,0.006,0.18,0.089,0.221,0.217l0.523,1.538c-0.215,0.134-0.325,0.35-0.325,0.702c0,0.401,0.053,0.484,0.325,0.805
			c0.27,0.322,0.335,0.862,0.335,1.189c0,0.074,0,0.316,0,0.684c1.685-0.976,3.3-1.907,3.3-1.907l0.276,0.478l-3.576,2.063
			c0,0.186,0,0.382,0,0.594c0.186,0.105,0.362,0.21,0.522,0.304l3.574-2.063l0.275,0.483c0,0-1.611,0.925-3.293,1.901
			c0.283,0.159,0.478,0.271,0.535,0.308c0.28,0.161,0.716,0.487,0.863,0.884c0.139,0.393,0.187,0.48,0.534,0.683
			c0.304,0.175,0.546,0.191,0.771,0.07l1.069,1.223c0.09,0.1,0.14,0.205,0.085,0.282C39.683-135.764,39.563-135.731,39.438-135.764z
			"/>
		<polygon fill="#BB0411" points="33.732,-138.696 33.207,-138.999 33.207,-139.592 33.732,-139.895 34.246,-139.598 
			34.246,-138.991 		"/>
		<path fill="#BB0411" d="M33.207-141.777c0.038-0.429,0.242-0.512,0.515-0.512c0.267,0,0.482,0.083,0.524,0.512v0.95
			c-0.176,0.098-0.345,0.2-0.514,0.294c-0.172-0.098-0.348-0.202-0.525-0.305V-141.777z"/>
		<path fill="#BB0411" d="M31.902-137.639c-0.391,0.179-0.564,0.043-0.696-0.188c-0.138-0.236-0.176-0.46,0.178-0.714l0.76-0.438
			c0.17,0.1,0.343,0.201,0.51,0.299c0,0.195,0,0.401,0,0.604L31.902-137.639z"/>
		<path fill="#BB0411" d="M36.275-137.834c-0.133,0.233-0.307,0.381-0.7,0.198l-0.779-0.447c0-0.199,0-0.398,0-0.592
			c0.175-0.1,0.35-0.201,0.522-0.303l0.771,0.443C36.441-138.282,36.409-138.066,36.275-137.834z"/>
	</g>
	<g>
		<polygon fill="#FFFFFF" points="82.392,-145.664 82.392,-132.98 84.576,-132.98 84.576,-138.509 87.767,-138.509 87.767,-132.98 
			89.961,-132.98 89.961,-145.664 87.767,-145.664 87.767,-140.671 84.576,-140.671 84.576,-145.664 		"/>
		<polygon fill="#FFFFFF" points="62.292,-132.982 62.292,-145.668 65.979,-145.668 67.289,-140.176 68.67,-145.664 
			72.364,-145.668 72.364,-132.982 70.16,-132.982 70.16,-141.843 68.178,-134.254 66.405,-134.254 64.49,-141.843 64.49,-132.982 
					"/>
		<polygon fill="#FFFFFF" points="47.869,-132.98 47.869,-137.773 45.253,-145.664 47.692,-145.664 49.271,-140.44 51.31,-145.664 
			53.436,-145.664 50.294,-137.804 50.294,-132.98 		"/>
		<path fill="#FFFFFF" d="M78.875-145.668h-3.579l-1.984,12.686H75.4l0.465-2.8h2.686l0.566,2.8h2.203L78.875-145.668z
			 M76.18-137.908l0.852-5.739l1.121,5.739H76.18z"/>
		<path fill="#FFFFFF" d="M96.587-145.668h-3.579l-1.987,12.686h2.089l0.466-2.8h2.69l0.565,2.8h2.201L96.587-145.668z
			 M93.892-137.908l0.855-5.739l1.125,5.739H93.892z"/>
		<path fill="#FFFFFF" d="M58.68-145.668h-3.576l-1.987,12.686h2.091l0.462-2.8h2.693l0.563,2.8h2.199L58.68-145.668z
			 M55.988-137.908l0.849-5.739l1.124,5.739H55.988z"/>
		<path fill="#FFFFFF" d="M99.348-145.347c-0.195-0.193-0.427-0.293-0.703-0.293c-0.277,0-0.505,0.1-0.702,0.293
			c-0.191,0.189-0.287,0.423-0.287,0.697c0,0.273,0.095,0.51,0.283,0.703c0.198,0.195,0.427,0.294,0.706,0.294
			c0.275,0,0.508-0.099,0.703-0.294c0.192-0.193,0.289-0.43,0.289-0.703C99.636-144.924,99.54-145.157,99.348-145.347z
			 M99.248-144.043c-0.169,0.167-0.366,0.252-0.603,0.252c-0.241,0-0.443-0.085-0.607-0.252c-0.166-0.168-0.247-0.368-0.247-0.606
			c0-0.237,0.081-0.438,0.252-0.606c0.167-0.167,0.366-0.246,0.602-0.246c0.232,0,0.434,0.079,0.603,0.246
			c0.164,0.168,0.247,0.369,0.247,0.606C99.495-144.411,99.412-144.211,99.248-144.043z"/>
		<path fill="#FFFFFF" d="M99.084-144.119c-0.005-0.013-0.007-0.028-0.01-0.059c0-0.029,0-0.057,0-0.08v-0.082
			c0-0.054-0.02-0.109-0.058-0.168c-0.042-0.055-0.102-0.093-0.192-0.105c0.071-0.012,0.121-0.029,0.16-0.053
			c0.07-0.048,0.109-0.118,0.109-0.217c0-0.137-0.057-0.227-0.171-0.274c-0.062-0.027-0.163-0.043-0.297-0.043h-0.381v1.095h0.191
			v-0.433h0.152c0.102,0,0.171,0.014,0.209,0.035c0.074,0.039,0.106,0.124,0.106,0.249v0.086l0.006,0.036v0.013
			c0.001,0.003,0.005,0.01,0.005,0.01l0.179,0.004L99.084-144.119z M98.792-144.697c-0.044,0.018-0.103,0.027-0.183,0.027h-0.174
			v-0.394h0.163c0.109,0,0.188,0.013,0.229,0.037c0.05,0.027,0.076,0.082,0.076,0.163S98.867-144.724,98.792-144.697z"/>
	</g>
</g>
<g>
	<path fill-rule="evenodd" clip-rule="evenodd" fill="#DB1829" d="M-93.059-141.657l1.161,0.144c0.434,0,0.434,0.437,0.434,0.726
		v1.307h-4.928v-1.307c0-0.289,0-0.726,0.578-0.726l1.018-0.144v-1.161h-6.524v1.161l1.16,0.144c0.434,0,0.581,0.437,0.581,0.726
		v4.199c0,0.291-0.147,0.582-0.581,0.731l-1.16,0.141v1.019h6.524v-1.019l-1.018-0.141c-0.578-0.149-0.578-0.44-0.578-0.731v-1.302
		h4.928v1.302c0,0.291,0,0.582-0.434,0.731l-1.161,0.141v1.019h6.523v-1.019l-1.162-0.141c-0.433-0.149-0.433-0.44-0.433-0.731
		v-4.199c0-0.289,0-0.726,0.433-0.726l1.162-0.144v-1.161h-6.523V-141.657L-93.059-141.657z"/>
	<path fill-rule="evenodd" clip-rule="evenodd" fill="#DB1829" d="M-49.876-142.818h-7.969v1.161l0.869,0.144
		c0.437,0,0.581,0.145,0.581,0.58v4.345c0,0.291,0,0.582-0.436,0.731l-1.159,0.141v1.019h8.114c2.899,0,5.218-1.159,5.218-4.063
		C-44.658-141.514-46.977-142.818-49.876-142.818L-49.876-142.818L-49.876-142.818z M-50.458-136.298h-2.752v-4.924h2.752
		c1.596,0,2.176,0.724,2.176,2.461C-48.282-137.018-48.862-136.298-50.458-136.298L-50.458-136.298z"/>
	<path fill-rule="evenodd" clip-rule="evenodd" fill="#DB1829" d="M-31.038-135.857c-0.435-0.149-0.581-0.44-0.729-0.584
		c-3.763-5.796-3.763-5.796-3.763-5.796c-0.292-0.438-0.437-0.581-0.87-0.581h-6.085v1.161l1.452,0.144
		c0.139,0,0.431,0.292,0.286,0.726l-2.752,4.49c-0.143,0.149-0.294,0.44-0.582,0.44l-1.159,0.141v1.019h5.218v-1.019l-0.872-0.141
		c-0.435,0-0.578-0.291-0.435-0.584l0.435-0.724h4.928l0.437,0.576c0.291,0.44-0.144,0.731-0.437,0.731l-1.012,0.141v1.019h7.099
		v-1.019L-31.038-135.857L-31.038-135.857L-31.038-135.857z M-40.022-138.614l1.448-2.463l1.741,2.463H-40.022L-40.022-138.614z"/>
	<path fill-rule="evenodd" clip-rule="evenodd" fill="#DB1829" d="M-63.643-141.657l1.014,0.144c0.578,0,0.578,0.437,0.578,0.726
		v4.058l-4.199-5.65c-0.29-0.294-0.437-0.438-0.871-0.438c-0.29,0-5.508,0-5.508,0v1.161l1.011,0.144
		c0.585,0,0.585,0.437,0.585,0.726v4.199c0,0.291,0,0.582-0.585,0.731l-1.011,0.141v1.019h5.075v-1.019l-1.017-0.141
		c-0.435-0.149-0.583-0.44-0.583-0.731v-4.054l4.351,5.649c0.148,0.295,0.292,0.295,0.724,0.295c0.146,0,0.146,0,0.146,0
		c0.143,0,1.015,0,3.912,0v-6.09c0-0.289,0-0.726,0.433-0.726l1.16-0.144v-1.161h-5.216V-141.657L-63.643-141.657z"/>
	<path fill-rule="evenodd" clip-rule="evenodd" fill="#DB1829" d="M-79.583-142.965c-5.359,0-6.666,2.177-6.666,4.204
		c0,2.03,1.307,4.348,6.666,4.348c5.217,0,6.521-2.317,6.521-4.348C-73.062-140.788-74.366-142.965-79.583-142.965L-79.583-142.965
		L-79.583-142.965z M-79.583-135.857c-2.027,0-2.895-0.873-2.895-2.903c0-1.882,0.868-2.753,2.895-2.753
		c2.028,0,2.898,0.871,2.898,2.753C-76.685-136.73-77.554-135.857-79.583-135.857L-79.583-135.857z"/>
	<polygon fill-rule="evenodd" clip-rule="evenodd" fill="#DB1829" points="-117.019,-134.698 -118.134,-135.73 -112.517,-136.395 
		-109.793,-134.698 -117.019,-134.698 	"/>
	<path fill-rule="evenodd" clip-rule="evenodd" fill="#DB1829" d="M-107.563-139.117l-11.808,2.228l1.03,0.951l5.451-0.66
		c-0.082-0.043-0.123-0.126-0.123-0.168c0-0.083,0.042-0.164,0.123-0.164c0.085,0,3.053-0.454,3.264-0.454
		c0.08-0.039,0.325-0.087,0.575-0.208c0.248-0.123,0.414-0.249,0.539-0.33c0.042-0.083,0.287-0.327,0.452-0.494
		c0.126-0.124,0.166-0.207,0.246-0.292c0.085-0.081,0.208-0.244,0.292-0.325C-107.522-139.078-107.522-139.117-107.563-139.117
		L-107.563-139.117z"/>
	<path fill-rule="evenodd" clip-rule="evenodd" fill="#DB1829" d="M-105.704-141.679l-14.742,3.802l0.868,0.826l4.542-0.872
		c-0.083-0.083-0.122-0.083-0.122-0.163c0-0.083,0.04-0.164,0.122-0.164l7.391-1.446c0.083,0,0.372-0.04,0.619-0.208
		c0.205-0.166,0.373-0.29,0.414-0.409c0.125-0.087,0.286-0.332,0.415-0.495c0.078-0.125,0.161-0.249,0.243-0.335
		c0.045-0.078,0.21-0.37,0.292-0.495C-105.664-141.639-105.664-141.721-105.704-141.679L-105.704-141.679z"/>
	<path fill-rule="evenodd" clip-rule="evenodd" fill="#DB1829" d="M-107.646-145.969c0.166-0.087,1.157-0.498,1.361-0.62
		c0.247-0.087,0.871-0.377,1.115-0.496c0.289-0.125,1.033-0.493,1.155-0.541c0.581-0.246,1.239-0.574,1.365-0.658
		c0.038,0,0.082,0,0.082,0.084c-0.082,0.247-0.208,0.622-0.415,1.071c-0.084,0.247-0.249,0.578-0.369,0.784
		c-0.166,0.25-0.331,0.416-0.456,0.538c-0.249,0.245-0.496,0.373-0.703,0.454c-0.167,0.082-0.495,0.203-0.699,0.29
		c-0.046,0-0.869,0.331-1.035,0.37l-14.531,5.119c-0.331,0.127-0.745,0.375-0.745,0.783c0,0.207,0.125,0.456,0.33,0.664l3.674,3.428
		c0,0-1.526,0-1.692,0c-0.041-0.086-0.082-0.249-0.124-0.333c-0.08-0.121-0.123-0.207-0.292-0.371
		c-0.163-0.166-0.285-0.328-0.369-0.369l-1.94-1.944c-0.33-0.326-0.538-0.825-0.538-1.237c0-0.576,0.333-1.117,1.28-1.529
		L-107.646-145.969L-107.646-145.969z"/>
	<path fill-rule="evenodd" clip-rule="evenodd" fill="#DB1829" d="M-106.077-144.032c0.206-0.045,0.577-0.206,0.664-0.206
		c0.119-0.04,0.492-0.163,0.533-0.205c0.288-0.124,0.539-0.206,0.826-0.33c0.041,0,0.083,0.042,0.041,0.081
		c-0.041,0.08-0.207,0.414-0.249,0.497c-0.122,0.246-0.205,0.453-0.33,0.619c-0.122,0.164-0.288,0.413-0.368,0.535
		c-0.167,0.203-0.293,0.33-0.539,0.499c-0.289,0.161-0.538,0.243-0.662,0.29l-10.692,2.887c-0.08,0-0.124,0.081-0.124,0.123
		c0,0.081,0.044,0.125,0.124,0.164l-3.796,0.992l-0.333-0.288c-0.123-0.123-0.166-0.25-0.166-0.371c0-0.248,0.209-0.372,0.579-0.497
		L-106.077-144.032L-106.077-144.032z"/>
</g>
<g>
	<path fill-rule="evenodd" clip-rule="evenodd" fill="#0456FB" d="M75.315,23.125c-0.902,0-1.927,0.898-2.285,2.002
		c-0.357,1.109,0.08,2.006,0.981,2.006s1.929-0.896,2.286-2.006C76.653,24.023,76.215,23.125,75.315,23.125z"/>
	<path fill-rule="evenodd" clip-rule="evenodd" fill="#0456FB" d="M61.264,23.125c-0.901,0-1.924,0.898-2.283,2.002
		c-0.355,1.109,0.08,2.006,0.982,2.006c0.9,0,1.923-0.896,2.287-2.006C62.609,24.023,62.167,23.125,61.264,23.125z"/>
	<path fill-rule="evenodd" clip-rule="evenodd" fill="#0456FB" d="M102.131,17.734h-0.008h-0.015c-0.739,0-1.482,0-2.226,0
		c-0.631,0-1.108,0.578-1.294,1.129l-0.002,0.006l-0.004,0.004c-0.14,0.459-0.277,0.918-0.411,1.375h-0.012
		c-1.091,0-2.181,0-3.273,0c-1.453,0-2.785,0.48-3.823,1.455c-0.562-1.043-1.723-1.457-2.944-1.457c-2.535,0-5.072,0-7.61,0
		c-0.587-0.006-1.093,0.633-1.289,1.137L79.215,21.4l-0.006,0.014c-0.027,0.1-0.061,0.193-0.083,0.289
		c-0.026-0.031-0.048-0.061-0.074-0.092c-0.835-1.055-2.11-1.559-3.438-1.559c-1.153,0-2.283,0.365-3.258,0.977
		c-0.275-0.406-0.758-0.756-1.237-0.781h-0.015h-0.008c-0.04,0-0.084,0-0.123,0l0.167-0.533l0.003-0.006
		c0.217-0.75-0.46-1.971-1.285-1.975c-0.604,0-1.207,0-1.813,0c-0.657,0.004-1.217,0.465-1.447,1.066l-0.003,0.014l-0.006,0.012
		c-0.133,0.461-0.265,0.922-0.399,1.385h-0.682h-0.014c-0.305,0.029-0.488,0.16-0.665,0.393c-0.13,0.137-0.223,0.316-0.298,0.502
		c-0.809-0.713-1.873-1.053-2.967-1.053c-1.195,0-2.367,0.395-3.371,1.047l0.461-1.57c0.231-0.738-0.355-1.725-1.168-1.717
		c-1.014,0-2.023,0-3.04,0h-0.001h-0.008c-0.577,0.02-0.924,0.301-1.243,0.754h-0.006v0.008c-0.685,1.047-1.366,2.098-2.052,3.146
		l-0.104-2.459v-0.006c-0.059-0.77-0.338-1.428-1.224-1.436c-1.069-0.006-2.14-0.012-3.205-0.021h-0.012h-0.005
		c-0.575,0.027-0.991,0.34-1.171,0.883l-0.003,0.01c-0.912,3.035-1.825,6.078-2.742,9.119l-0.005,0.006
		c-0.22,0.811,0.07,2.021,1.081,2.051c0.784,0.016,1.57,0.023,2.352,0.047c0.496,0.008,0.772-0.211,0.936-0.6
		c0.158,0.344,0.493,0.615,0.886,0.596c0.893,0,1.788,0,2.686,0h0.011h0.01c0.398-0.027,0.613-0.197,0.816-0.527
		c0.006-0.02,0.017-0.033,0.026-0.047l0.004,0.008l0.007,0.02c0.155,0.406,0.535,0.58,0.952,0.584c0.746,0,1.489,0,2.234,0h0.009
		h0.008c0.533-0.025,0.967-0.398,1.181-0.869l0.011-0.025l0.008-0.02c0.049-0.162,0.097-0.332,0.144-0.498
		c0.028,0.047,0.063,0.092,0.096,0.133c0.839,1.057,2.11,1.563,3.438,1.563c1.783,0,3.519-0.885,4.715-2.195
		c0.119,0.484,0.373,0.93,0.783,1.281c0.413,0.359,0.994,0.619,1.539,0.666l0.058,0.008h2.351c0.595-0.01,1.082-0.465,1.299-0.996
		l0.01-0.02l0.007-0.025c0.008-0.027,0.015-0.053,0.021-0.078c0.836,0.918,2.025,1.359,3.271,1.359c1.362,0,2.699-0.521,3.784-1.346
		c0.233,0.518,0.559,1.025,1.18,1.051h0.01h0.008c0.689,0,1.379,0,2.071,0h0.01h0.012c0.383-0.025,0.753-0.217,0.938-0.553
		c0.149,0.264,0.434,0.477,0.746,0.5h0.009h0.015c0.624,0,1.25,0,1.873,0c0.474,0.031,0.9-0.23,1.184-0.594
		c0.051-0.051,0.097-0.107,0.145-0.162l0.096,0.377l0.048,0.057c0.179,0.234,0.446,0.314,0.729,0.322h0.012c0.737,0,1.476,0,2.218,0
		c0.575-0.006,0.91-0.371,1.149-0.855l0.017-0.025l0.006-0.027c0.011-0.025,0.018-0.057,0.025-0.082
		c0.681,0.771,1.718,1.055,2.793,1.055c1.092,0,2.188,0,3.276,0h3.039c0.676,0.01,1.241-0.404,1.492-1.029l0.006-0.014l0.006-0.02
		c0.919-3.096,1.842-6.195,2.764-9.297l0.006-0.014l0.005-0.006C103.456,18.814,102.971,17.787,102.131,17.734z M54.657,28.674
		h-2.273l2.035-6.148l-3.832,6.105h-2.516l-0.28-6.268l-1.677,6.268l-2.353-0.039l2.872-9.537l3.114,0.035l0.278,6.668l4.353-6.668
		h3.073L54.657,28.674z M64.466,25.139c-0.552,2.105-2.749,3.811-4.905,3.811c-2.154,0-3.453-1.705-2.9-3.811
		c0.553-2.104,2.748-3.811,4.904-3.811S65.021,23.035,64.466,25.139z M68.706,23.244l-0.88,3.111c0,0-0.236,0.559,0.361,0.559
		c0.599,0,1.317,0.039,1.317,0.039l-0.438,1.758h-2.357c0,0-1.795-0.16-1.076-2.355c0.718-2.197,0.956-3.152,0.956-3.152h-1.316
		c0,0,0.438-1.678,0.477-1.717h1.399l0.721-2.475h2.151l-0.8,2.514h1.918l-0.438,1.719H68.706z M73.614,28.949
		c-2.159,0-3.459-1.705-2.906-3.811c0.555-2.104,2.748-3.811,4.906-3.811c2.155,0,3.455,1.707,2.906,3.811
		C77.962,27.244,75.769,28.949,73.614,28.949z M90.007,24.051c-0.131,0.488-1.358,4.555-1.358,4.555h-2.251
		c0,0,1.026-3.303,1.279-4.17c0.247-0.859,0-1.08-0.665-1.08c-0.669,0-0.838,0-0.838,0l-1.605,5.25h-2.226l1.638-5.25h-1.806
		l-1.607,5.303H78.4l2.109-7.137c0,0,5.083,0,7.61,0S90.14,23.561,90.007,24.051z M93.449,27.035c0.961,0,2.954,0,2.954,0
		l-0.438,1.639c0,0-2.315,0-3.276,0c-0.955,0-2.792-0.199-2.191-3.234c0.597-3.035,2.713-3.914,4.39-3.914c1.678,0,3.273,0,3.273,0
		l-0.52,1.797c0,0-1.676,0-2.793,0s-1.557,0.998-1.557,0.998h4.031l-0.521,1.678h-4.069C92.733,25.998,92.491,27.035,93.449,27.035z
		 M99.238,28.674h-2.271l2.912-9.662h2.229L99.238,28.674z"/>
	<g>
		<path fill-rule="evenodd" clip-rule="evenodd" fill="#0456FB" d="M22.87,29.826c-0.584,0-1.176,0-1.764,0
			c-0.409,0-0.573-0.322-0.484-0.686v-0.01l0.006-0.012c0.984-3.33,2.054-6.625,3.159-9.918c-0.242,0.023-0.377,0.139-0.467,0.402
			c-1.13,3.365-2.226,6.736-3.233,10.148l-0.003,0.008l-0.005,0.008c-0.088,0.371,0.076,0.691,0.487,0.691c0.587,0,1.175,0,1.765,0
			c0.301,0,0.464-0.088,0.603-0.357c0.059-0.1,0.116-0.203,0.178-0.307C23.038,29.814,22.962,29.826,22.87,29.826z"/>
		<path fill-rule="evenodd" clip-rule="evenodd" fill="#0456FB" d="M26.453,21.646c0.15-0.254,0.304-0.496,0.456-0.74
			c0.17-0.277,0.417-0.674,0.703-1.063c-0.402,0.406-0.762,0.93-1.028,1.344L26.453,21.646z"/>
		<path fill-rule="evenodd" clip-rule="evenodd" fill="#0456FB" d="M30.637,21.865c0.15-0.27,0.304-0.537,0.457-0.805
			c0.176-0.311,0.466-0.805,0.82-1.275c-0.429,0.426-0.815,0.996-1.102,1.457C30.758,21.455,30.697,21.666,30.637,21.865z"/>
		<path fill-rule="evenodd" clip-rule="evenodd" fill="#0456FB" d="M29.952,29.877h-0.01c-0.594-0.01-0.99-0.475-0.779-1.047
			l1.034-3.32c-0.234,0.404-0.461,0.807-0.695,1.211c-0.013,0.029-0.033,0.043-0.048,0.064l-0.834,2.676
			c-0.211,0.578,0.19,1.035,0.78,1.047h0.01c1.915,0,3.827,0,5.745,0h0.307l0.207-0.631C33.762,29.877,31.858,29.877,29.952,29.877z
			"/>
		<path fill-rule="evenodd" clip-rule="evenodd" fill="#0456FB" d="M28.966,27.35c0.062-0.111,0.123-0.225,0.187-0.334
			c-0.086,0.035-0.174,0.061-0.264,0.059c-0.716,0.002-1.435,0.006-2.142,0.006c-0.487,0.006-0.745-0.461-0.635-0.908l0.002-0.01
			l0.602-2.238c-0.224,0.344-0.441,0.695-0.654,1.049l-0.488,1.82l-0.003,0.01c-0.111,0.445,0.147,0.912,0.633,0.906
			c0.715-0.004,1.429-0.006,2.139-0.006C28.596,27.705,28.836,27.566,28.966,27.35z"/>
	</g>
	<path fill-rule="evenodd" clip-rule="evenodd" fill="#0456FB" d="M24.434,18.986c0.729,0,1.457,0,2.186,0
		c0.084,0.004,0.123,0.068,0.097,0.145l-1.646,5.879c0,0,1.28-2.402,2.198-3.879c0.919-1.482,1.583-2.145,2.094-2.145
		c0.513,0,1.274,0.049,1.274,0.049s0.309,0.203,0,1.275c-0.306,1.072-1.429,5.059-1.429,5.059s1.388-2.568,2.255-4.102
		c0.871-1.529,1.629-2.281,2.086-2.281c0.459,0,1.225,0.049,1.225,0.049s0.724,0.307,0.261,1.381
		c-0.912,2.039-2.564,7.965-2.558,7.965h3.572l-0.354,1.068c-1.916,0-3.831,0-5.744,0c-0.341-0.002-0.493-0.207-0.389-0.482
		l2.198-7.072c-0.877,1.535-1.75,3.076-2.624,4.611c-0.051,0.082-0.147,0.143-0.247,0.139c-0.789,0-1.359,0.004-2.149,0.01
		c-0.158,0.004-0.269-0.158-0.217-0.379l1.208-4.484c-1.541,1.867-3.287,5.107-4.634,7.48c-0.066,0.125-0.081,0.131-0.229,0.131
		c-0.596,0-1.167,0-1.764,0c-0.114,0-0.095-0.063-0.071-0.16c1.079-3.631,2.048-6.611,3.231-10.133
		C24.309,18.979,24.311,18.986,24.434,18.986"/>
	<path fill-rule="evenodd" clip-rule="evenodd" fill="#0456FB" d="M28.234,14.578c5.755,0,10.425,4.666,10.425,10.424
		c0,5.76-4.67,10.424-10.425,10.424c-5.759,0-10.427-4.664-10.427-10.424C17.807,19.244,22.475,14.578,28.234,14.578 M28.234,13.445
		c6.378,0,11.558,5.178,11.558,11.557c0,6.377-5.18,11.553-11.558,11.553c-6.38,0-11.552-5.176-11.552-11.553
		C16.682,18.623,21.854,13.445,28.234,13.445z"/>
</g>
<g>
	<g>
		<path fill="#FE000C" d="M-101.923-45.653c0,0-1.668,0.479-4.906,2.442c-2.901,1.767-4.042,2.953-4.042,2.953l-8.946-6.114
			c0,0,3.764-2.742,6.91-0.642l4.224,2.865l0.508-0.336l-11.643-8.071c0,0,1.672-0.479,4.907-2.445
			c2.906-1.766,4.039-2.957,4.039-2.957l8.955,6.12c0,0-3.768,2.743-6.913,0.645l-4.217-2.868l-0.519,0.339L-101.923-45.653"/>
	</g>
	<g>
		<polyline fill="#093A80" points="-61.864,-53.913 -73.011,-53.913 -73.011,-51.465 -67.628,-51.465 -73.193,-46.319 
			-73.193,-44.267 -61.878,-44.267 -61.878,-46.726 -67.514,-46.726 -61.864,-51.861 -61.864,-53.913 		"/>
		<path fill="#093A80" d="M-79.57-44.019c4.457,0,5.603-1.128,5.603-3.609v-6.285h-3.536v5.911c0,0.992-0.859,1.583-2.066,1.583
			c-1.256,0-2.061-0.591-2.061-1.598v-5.896h-3.537v6.285C-85.168-45.146-84.02-44.019-79.57-44.019"/>
		<path fill="#093A80" d="M-55.398-44.019c4.458,0,5.602-1.128,5.602-3.609v-6.285h-3.536v5.911c0,0.992-0.858,1.583-2.065,1.583
			c-1.258,0-2.06-0.591-2.06-1.598v-5.896h-3.54v6.285C-60.998-45.146-59.852-44.019-55.398-44.019"/>
		<polyline fill="#093A80" points="-32.177,-53.913 -35.855,-53.913 -35.855,-44.267 -32.177,-44.267 -32.177,-53.913 		"/>
		<polyline fill="#093A80" points="-36.415,-53.913 -41.267,-53.913 -45.18,-50.585 -45.18,-53.913 -48.864,-53.913 
			-48.864,-44.267 -45.18,-44.267 -45.18,-47.685 -41.54,-44.267 -36.593,-44.267 -41.979,-49.214 -36.415,-53.913 		"/>
		<path fill="#093A80" d="M-93.871-51.247c0-0.747,1.119-0.769,1.498-0.769c0.386,0,1.233,0.145,1.81,1.086h4.161
			c0-1.814-1.738-3.26-5.953-3.26c-4.689,0-5.489,2.029-5.489,3.2c0,2.15,1.694,2.776,5.358,3.168
			c0.309,0.031,2.215-0.053,2.215,0.848c0,0.678-1.073,0.718-1.459,0.718c-0.395,0-1.125-0.063-1.738-1.129h-4.582
			c0,2.121,1.442,3.342,6.311,3.342c4.479,0,5.668-1.807,5.668-3.184c0-1.335-0.92-2.694-4.742-3.181
			C-92.411-50.61-93.871-50.696-93.871-51.247"/>
	</g>
</g>
<g>
	<g>
		<path fill-rule="evenodd" clip-rule="evenodd" fill="#E31C24" d="M-43.58,23.666c0.369-1.754,2.023-2.272,3.629-2.272
			c2.987,0,3.633,1.104,3.633,2.39v5.974h-2.639c-0.093-0.542-0.032-0.187-0.122-0.733c-0.655,0.598-1.575,0.947-2.478,0.947
			c-0.783,0-2.411-0.414-2.411-2.406c0-2.234,2.517-2.89,4.875-2.908v-0.675c0-0.611-0.445-0.811-0.967-0.811
			c-0.7,0-0.963,0.382-1.132,0.998L-43.58,23.666z M-39.109,26.034c-0.829,0.109-2.068,0.32-2.068,1.286
			c0,0.602,0.586,0.873,0.892,0.873c0.427,0,0.764-0.17,1.177-0.456V26.034z"/>
		<path fill-rule="evenodd" clip-rule="evenodd" fill="#E31C24" d="M-78.546,23.666c0.365-1.754,2.022-2.272,3.627-2.272
			c2.987,0,3.632,1.104,3.632,2.39v5.974h-2.637c-0.094-0.542-0.035-0.187-0.119-0.733c-0.657,0.598-1.578,0.947-2.48,0.947
			c-0.785,0-2.406-0.414-2.406-2.406c0-2.234,2.508-2.89,4.871-2.908v-0.675c0-0.611-0.446-0.811-0.969-0.811
			c-0.697,0-0.965,0.382-1.131,0.998L-78.546,23.666z M-74.079,26.034c-0.824,0.109-2.064,0.32-2.064,1.286
			c0,0.602,0.585,0.873,0.89,0.873c0.432,0,0.768-0.17,1.175-0.456V26.034z"/>
		<path fill-rule="evenodd" clip-rule="evenodd" fill="#E31C24" d="M-65.34,24.74c0-0.581-0.081-1.18-0.66-1.18
			c-0.537,0-0.857,0.299-1.243,0.735v5.461h-2.881v-8.146h2.881v1.158c0.702-0.7,1.379-1.376,2.439-1.376
			c0.778,0,2.346,0.443,2.346,2.466v5.897h-2.882V24.74z"/>
		<rect x="-51.828" y="18.76" fill-rule="evenodd" clip-rule="evenodd" fill="#E31C24" width="2.879" height="10.997"/>
		<rect x="-47.76" y="18.76" fill-rule="evenodd" clip-rule="evenodd" fill="#E31C24" width="2.88" height="10.997"/>
		<path fill-rule="evenodd" clip-rule="evenodd" fill="#E31C24" d="M-52.603,26.898c-0.64,1.897-2.372,3.075-4.597,3.075
			c-2.558,0-4.347-1.579-4.347-4.289c0-2.492,1.686-4.282,4.347-4.282c2.094,0,3.783,1.05,4.204,3.389
			c0.039,0.202,0.073,0.367,0.104,0.571l-5.598,1.18c0.152,1.104,1.179,1.707,2.245,1.477c0.703-0.142,1.422-0.766,1.553-1.55
			L-52.603,26.898z M-56.136,24.408c-0.151-0.848-0.671-1.348-1.488-1.266c-0.976,0.11-1.171,0.922-1.003,1.799L-56.136,24.408z"/>
		<polygon fill-rule="evenodd" clip-rule="evenodd" fill="#E31C24" points="-79.402,18.758 -88.287,18.758 -88.287,21.145 
			-83.748,21.145 -88.567,28.1 -88.567,29.757 -79.681,29.757 -79.681,27.276 -84.138,27.276 -79.402,20.416 		"/>
		<path fill-rule="evenodd" clip-rule="evenodd" fill="#E31C24" d="M-34.432,21.475c0.6,0,1.098,0.475,1.098,1.095
			c0,0.626-0.498,1.097-1.098,1.097c-0.598,0-1.102-0.471-1.102-1.097C-35.533,21.949-35.029,21.475-34.432,21.475 M-34.432,23.507
			c0.509,0,0.901-0.406,0.901-0.938c0-0.527-0.393-0.931-0.901-0.931c-0.508,0-0.905,0.403-0.905,0.931
			C-35.337,23.101-34.939,23.507-34.432,23.507z M-34.859,21.931h0.501c0.299,0,0.439,0.115,0.439,0.366
			c0,0.23-0.145,0.326-0.333,0.345l0.371,0.569H-34.1l-0.348-0.554h-0.21v0.554h-0.202V21.931z M-34.657,22.497h0.206
			c0.174,0,0.34-0.009,0.34-0.21c0-0.17-0.147-0.196-0.286-0.196h-0.26V22.497z"/>
	</g>
	<path fill-rule="evenodd" clip-rule="evenodd" fill="#E31C24" d="M-113.912,24.277v0.339c0,2.611,1.406,5.22,2.728,6.538
		c0.787,0.778,1.606,1.465,2.648,1.98c0.39,0.195,1.23,0.57,1.663,0.658c0.479,0.104,1.441,0.381,1.979,0.381h0.841
		c5.429,0,9.778-4.354,9.778-9.77v-0.545c0-2.641-1.58-5.143-2.921-6.479c-0.83-0.834-1.655-1.363-2.756-1.92
		c-0.823-0.419-2.59-0.917-3.805-0.917h-0.634c-1.203,0-3.077,0.516-3.862,0.944c-1.324,0.724-1.75,0.997-2.813,1.988
		C-112.511,18.825-113.912,21.495-113.912,24.277 M-112.645,23.772c0-2.165,1.448-4.516,2.573-5.594
		c1.224-1.166,3.356-2.409,5.724-2.409h0.715c1.153,0,2.211,0.45,3.046,0.748c0.457,0.162,2.142,1.187,2.266,1.524l-4.384-0.1
		l-2.274,0.019l-4.384,0.081c-0.353,0.239-1.579,1.545-1.683,1.938l6.277,1.098c-0.069,0.286-2.694,3.993-3.087,4.583
		c-0.346,0.521-3.065,4.37-3.065,4.596v0.087c0,0.192,0.66,0.421,0.926,0.421c0.373,0.248,0.733,0.609,1.164,0.9
		c0.42,0.279,0.846,0.485,1.31,0.714c0.786,0.387,2.219,0.702,3.388,0.702h0.165c4.688,0,8.595-3.94,8.595-8.638
		c0-1.143-0.216-2.279-0.56-3.102c-0.204-0.499-0.351-0.81-0.588-1.266c-0.103-0.189-0.703-1.018-0.703-1.104
		c0-0.047,0.355-0.494,0.417-0.761c0.508,0.34,1.229,1.779,1.544,2.417c0.315,0.643,0.732,2.277,0.732,3.231v0.627
		c0,5.058-4.26,9.438-9.266,9.438h-0.761c-1.555,0-3.379-0.686-4.357-1.293c-0.596-0.359-1.134-0.729-1.616-1.206
		c-0.287-0.285-1.221-1.147-1.314-1.508h0.168c0.187,0,0.672-0.292,0.672-0.459c0,0-0.537-0.835-0.604-0.955
		c-0.156-0.283-0.391-0.735-0.486-1.03c-0.232-0.715-0.549-1.587-0.549-2.521V23.772z M-110.037,30.469
		c0.009-0.341,1.178-1.323,1.446-1.59c0.509-0.514,0.986-0.989,1.495-1.494c0.508-0.511,0.984-0.986,1.495-1.491
		c0.418-0.425,1.151-1.068,1.481-1.518c0.376-0.507,5.923-5.95,6.01-5.95h0.672c0.069,0,0.129,0.02,0.129,0.083
		c0,0.159-2.777,4.112-3.105,4.605c-0.383,0.583-3.03,4.328-3.09,4.577l6.49,1.134c-0.089,0.37-1.053,1.441-1.35,1.644l-4.846,0.099
		l-3.498-0.012L-110.037,30.469z M-97.574,19.467c0.329,0.239,0.935,1.501,1.121,1.972c0.275,0.69,0.535,1.605,0.535,2.543v0.846
		c0,0.677-0.162,1.405-0.319,1.95c-0.071,0.244-0.563,1.571-0.736,1.543l-5.94-1.04L-97.574,19.467z M-104.306,32.578
		c-0.888,0-2.081-0.293-2.727-0.563c-0.499-0.216-1.826-0.863-2.076-1.211l4.001,0.057l1.268-0.018l4.76-0.048
		c-0.08,0.309-1.631,1.077-2.037,1.214c-0.779,0.262-1.623,0.568-2.64,0.568H-104.306z"/>
</g>
<path fill-rule="evenodd" clip-rule="evenodd" fill="#0082F3" d="M81.619-49.906l1.52-2.965l1.403,2.965H81.619z M48.999-56.477
	c3.026,0,5.495,2.621,5.495,5.838c0,3.209-2.469,5.833-5.495,5.833c-3.028,0-5.498-2.624-5.498-5.833
	C43.501-53.855,45.971-56.477,48.999-56.477z M28.775-44.617v-11.481h4.025l2.589,6.074l2.295-6.168h3.881v1.806
	c0,0,1.944-4.674,7.758-4.652c5.296,0.017,7.113,4.171,7.113,4.171v-1.608h3.235l3.948,5.883v-6.171h5.127
	c2.361,0,4.701,0.613,6.077,3.514v-3.705h2.657v8.643l4.528-8.734h2.445l3.658,8.734v-8.83h3.159v9.302h2.876v2.566h-7.33
	l-1.433-2.472h-4.551l-1.413,2.756h-4.526v-3.705c0,0-0.86,1.899-3.015,3.039c-2.156,1.14-4.459,0.759-4.459,0.759v-2.753
	c0,0,5.103,0.38,5.103-3.322c0-3.701-4.882-3.228-4.882-3.228h-0.868v9.405h-3.308l-4.088-6.178v6.269h-2.942v-2.092
	c0,0-2.081,4.558-7.331,4.558c-5.246,0-7.47-4.363-7.47-4.363v1.985H38.76v-5.028l-2.3,5.128h-2.295l-2.37-5.507v5.316
	L28.775-44.617z"/>
<g>
	<path fill="#FFFFFF" d="M-52.354,95.969h0.976v-0.554h-0.603c-0.071,0-0.126-0.009-0.164-0.026
		c-0.042-0.015-0.068-0.038-0.082-0.079c-0.017-0.036-0.023-0.088-0.023-0.159v-1.719h-0.738v1.851c0,0.14,0.023,0.263,0.071,0.365
		c0.05,0.097,0.115,0.178,0.209,0.236C-52.613,95.939-52.496,95.969-52.354,95.969 M-54.796,94.906
		c0.029-0.107,0.058-0.211,0.079-0.31c0.033-0.099,0.058-0.198,0.08-0.287c0.024-0.085,0.047-0.161,0.067-0.226
		c0.021-0.065,0.04-0.109,0.054-0.151c0.01,0.042,0.027,0.086,0.05,0.151c0.02,0.064,0.038,0.141,0.06,0.226
		c0.027,0.089,0.048,0.188,0.072,0.287c0.027,0.099,0.05,0.202,0.079,0.31H-54.796z M-55.785,95.969h0.738
		c0.014-0.07,0.036-0.151,0.053-0.233c0.023-0.088,0.041-0.177,0.063-0.266h0.8c0.024,0.089,0.043,0.178,0.061,0.266
		c0.02,0.082,0.038,0.163,0.051,0.233h0.792v-0.025c-0.026-0.118-0.053-0.215-0.076-0.309c-0.019-0.09-0.044-0.176-0.067-0.257
		c-0.022-0.083-0.046-0.159-0.069-0.239c-0.024-0.082-0.048-0.163-0.074-0.252c-0.033-0.11-0.066-0.227-0.106-0.342
		c-0.035-0.118-0.08-0.229-0.118-0.345c-0.04-0.116-0.075-0.222-0.121-0.326c-0.036-0.1-0.071-0.188-0.104-0.265
		c-0.032-0.077-0.059-0.139-0.08-0.178h-0.924c-0.023,0.039-0.048,0.101-0.081,0.178s-0.068,0.165-0.104,0.265
		c-0.043,0.104-0.079,0.21-0.122,0.326c-0.039,0.115-0.082,0.227-0.111,0.345c-0.045,0.115-0.078,0.231-0.106,0.342
		c-0.031,0.089-0.054,0.17-0.08,0.252c-0.028,0.08-0.048,0.156-0.073,0.239c-0.021,0.081-0.043,0.167-0.067,0.257
		c-0.023,0.094-0.052,0.19-0.075,0.309V95.969z M-56.76,95.969h0.734v-2.537h-0.734V95.969z M-57.848,95.991h0.162
		c0.047,0,0.098-0.003,0.154-0.004c0.058-0.008,0.109-0.019,0.167-0.025c0.055-0.013,0.108-0.025,0.157-0.039
		c0.051-0.017,0.088-0.031,0.127-0.049v-0.542h-0.025c-0.028,0.01-0.061,0.021-0.108,0.036c-0.043,0.01-0.095,0.021-0.147,0.035
		c-0.053,0.006-0.112,0.019-0.167,0.029c-0.058,0.004-0.107,0.008-0.158,0.008h-0.106c-0.117,0-0.216-0.025-0.299-0.077
		c-0.081-0.054-0.146-0.123-0.188-0.213c-0.043-0.094-0.064-0.198-0.064-0.318V94.54c0-0.115,0.016-0.215,0.053-0.298
		c0.033-0.09,0.093-0.158,0.167-0.208c0.07-0.049,0.166-0.069,0.275-0.072c0.019,0,0.043,0.003,0.067,0.003
		c0.022,0.002,0.047,0.01,0.07,0.012c0.02,0.002,0.038,0.008,0.053,0.009v0.292h0.577v-0.767c-0.043-0.018-0.093-0.032-0.154-0.044
		c-0.058-0.01-0.117-0.022-0.179-0.029c-0.061-0.012-0.129-0.017-0.188-0.023c-0.065-0.005-0.127-0.005-0.189-0.005
		c-0.187-0.003-0.368,0.022-0.523,0.062c-0.157,0.048-0.289,0.116-0.408,0.211c-0.116,0.093-0.203,0.212-0.265,0.359
		c-0.063,0.146-0.098,0.325-0.098,0.528v0.263c0,0.246,0.049,0.457,0.144,0.629c0.093,0.174,0.227,0.308,0.419,0.396
		C-58.349,95.949-58.12,95.991-57.848,95.991z M-60.115,95.969h0.739v-2.537h-0.739V95.969z M-62.095,95.969h0.736v-0.875h0.906
		V94.54h-0.906v-0.209c0-0.075,0.017-0.128,0.041-0.183c0.022-0.052,0.059-0.089,0.105-0.12c0.046-0.026,0.103-0.043,0.172-0.043
		h0.637v-0.554h-0.739c-0.148,0-0.277,0.016-0.397,0.053c-0.114,0.034-0.215,0.089-0.297,0.153c-0.081,0.07-0.147,0.156-0.189,0.265
		c-0.047,0.105-0.07,0.229-0.07,0.375V95.969z M-63.573,95.415c-0.097-0.006-0.169-0.02-0.23-0.045
		c-0.059-0.031-0.104-0.075-0.135-0.13c-0.031-0.058-0.058-0.125-0.067-0.197c-0.012-0.083-0.015-0.164-0.015-0.267v-0.154
		c0-0.097,0.003-0.186,0.015-0.262c0.009-0.074,0.036-0.146,0.067-0.199c0.031-0.06,0.076-0.098,0.135-0.127
		c0.061-0.032,0.133-0.049,0.23-0.049c0.098,0,0.174,0.017,0.234,0.049c0.058,0.029,0.104,0.067,0.134,0.127
		c0.029,0.054,0.056,0.125,0.069,0.199c0.006,0.076,0.013,0.165,0.013,0.262v0.154c0,0.103-0.006,0.184-0.013,0.267
		c-0.013,0.072-0.04,0.14-0.069,0.197c-0.031,0.055-0.076,0.099-0.134,0.13C-63.399,95.396-63.475,95.409-63.573,95.415z
		 M-63.573,95.991c0.262,0,0.48-0.042,0.654-0.142c0.176-0.091,0.311-0.226,0.402-0.409c0.088-0.183,0.127-0.397,0.127-0.664v-0.154
		c0-0.262-0.039-0.479-0.127-0.66c-0.091-0.184-0.226-0.316-0.402-0.416c-0.173-0.089-0.392-0.137-0.654-0.137
		c-0.258,0-0.474,0.048-0.654,0.137c-0.176,0.1-0.308,0.232-0.399,0.416c-0.09,0.181-0.132,0.398-0.132,0.66v0.154
		c0,0.267,0.042,0.481,0.132,0.664c0.091,0.184,0.223,0.318,0.399,0.409C-64.047,95.949-63.832,95.991-63.573,95.991z
		 M-67.06,95.415c-0.093-0.006-0.17-0.02-0.229-0.045c-0.063-0.031-0.106-0.075-0.139-0.13c-0.031-0.058-0.051-0.125-0.063-0.197
		c-0.012-0.083-0.017-0.164-0.017-0.267v-0.154c0-0.097,0.005-0.186,0.017-0.262c0.012-0.074,0.032-0.146,0.063-0.199
		c0.033-0.06,0.076-0.098,0.139-0.127c0.06-0.032,0.137-0.049,0.229-0.049c0.096,0,0.172,0.017,0.231,0.049
		c0.064,0.029,0.105,0.067,0.138,0.127c0.034,0.054,0.053,0.125,0.063,0.199c0.012,0.076,0.019,0.165,0.016,0.262v0.154
		c0.003,0.103-0.004,0.184-0.016,0.267c-0.011,0.072-0.029,0.14-0.063,0.197c-0.033,0.055-0.074,0.099-0.138,0.13
		C-66.888,95.396-66.964,95.409-67.06,95.415z M-67.06,95.991c0.26,0,0.478-0.042,0.655-0.142c0.177-0.091,0.305-0.226,0.396-0.409
		c0.091-0.183,0.137-0.397,0.137-0.664v-0.154c0-0.262-0.046-0.479-0.137-0.66c-0.091-0.184-0.219-0.316-0.396-0.416
		c-0.177-0.089-0.395-0.137-0.655-0.137c-0.259,0-0.478,0.048-0.654,0.137c-0.176,0.1-0.309,0.232-0.4,0.416
		c-0.087,0.181-0.135,0.398-0.135,0.66v0.154c0,0.267,0.047,0.481,0.135,0.664c0.091,0.184,0.224,0.318,0.4,0.409
		C-67.538,95.949-67.318,95.991-67.06,95.991z M-69.274,95.969h0.736v-2.537h-0.736V95.969z M-70.993,94.7v-0.715h0.266
		c0.086,0,0.16,0.015,0.213,0.033c0.056,0.022,0.09,0.059,0.116,0.104c0.026,0.053,0.043,0.12,0.041,0.209
		c0.002,0.094-0.015,0.167-0.032,0.221c-0.025,0.055-0.066,0.091-0.118,0.112c-0.056,0.023-0.128,0.036-0.22,0.036H-70.993z
		 M-71.731,95.969h0.738v-0.742h0.32c0.044,0.029,0.091,0.07,0.143,0.131c0.047,0.052,0.092,0.114,0.141,0.185
		c0.037,0.069,0.079,0.144,0.113,0.217c0.031,0.073,0.06,0.143,0.077,0.21h0.738v-0.025c-0.024-0.086-0.055-0.17-0.094-0.258
		c-0.043-0.087-0.086-0.178-0.134-0.259c-0.047-0.085-0.097-0.159-0.153-0.231c-0.06-0.065-0.11-0.119-0.16-0.163
		c0.091-0.06,0.163-0.127,0.218-0.193c0.059-0.072,0.102-0.151,0.126-0.236c0.03-0.085,0.039-0.183,0.035-0.297
		c0-0.209-0.039-0.377-0.121-0.504c-0.081-0.128-0.195-0.219-0.343-0.279c-0.151-0.063-0.326-0.091-0.536-0.091h-1.108V95.969z
		 M-73.539,94.906c0.029-0.107,0.056-0.211,0.083-0.31s0.052-0.198,0.078-0.287c0.021-0.085,0.042-0.161,0.065-0.226
		c0.021-0.065,0.037-0.109,0.051-0.151c0.014,0.042,0.029,0.086,0.051,0.151c0.015,0.064,0.037,0.141,0.064,0.226
		c0.021,0.089,0.047,0.188,0.07,0.287c0.025,0.099,0.051,0.202,0.073,0.31H-73.539z M-74.526,95.969h0.734
		c0.019-0.07,0.037-0.151,0.054-0.233c0.02-0.088,0.043-0.177,0.061-0.266h0.805c0.022,0.089,0.041,0.178,0.057,0.266
		c0.022,0.082,0.039,0.163,0.056,0.233h0.789v-0.025c-0.027-0.118-0.05-0.215-0.075-0.309c-0.023-0.09-0.048-0.176-0.07-0.257
		c-0.021-0.083-0.045-0.159-0.068-0.239c-0.024-0.082-0.048-0.163-0.073-0.252c-0.036-0.11-0.066-0.227-0.103-0.342
		c-0.042-0.118-0.081-0.229-0.123-0.345c-0.039-0.116-0.079-0.222-0.118-0.326c-0.039-0.1-0.074-0.188-0.108-0.265
		c-0.031-0.077-0.061-0.139-0.084-0.178h-0.916c-0.022,0.039-0.049,0.101-0.081,0.178s-0.066,0.165-0.105,0.265
		c-0.038,0.104-0.081,0.21-0.119,0.326c-0.04,0.115-0.08,0.227-0.116,0.345c-0.043,0.115-0.075,0.231-0.108,0.342
		c-0.024,0.089-0.05,0.17-0.075,0.252c-0.024,0.08-0.049,0.156-0.073,0.239c-0.024,0.081-0.043,0.167-0.067,0.257
		c-0.023,0.094-0.05,0.19-0.073,0.309V95.969z M-77.036,95.969h0.734v-1.321l0.901,1.321h0.637v-2.537h-0.739v1.322l-0.9-1.322
		h-0.634V95.969z M-78.513,95.415c-0.1-0.006-0.173-0.02-0.234-0.045c-0.058-0.031-0.103-0.075-0.135-0.13
		c-0.036-0.058-0.058-0.125-0.065-0.197c-0.011-0.083-0.019-0.164-0.019-0.267v-0.154c0-0.097,0.007-0.186,0.019-0.262
		c0.008-0.074,0.029-0.146,0.065-0.199c0.033-0.06,0.077-0.098,0.135-0.127c0.061-0.032,0.134-0.049,0.234-0.049
		c0.092,0,0.167,0.017,0.226,0.049c0.063,0.029,0.108,0.067,0.14,0.127c0.031,0.054,0.052,0.125,0.063,0.199
		c0.013,0.076,0.021,0.165,0.021,0.262v0.154c0,0.103-0.007,0.184-0.021,0.267c-0.011,0.072-0.032,0.14-0.063,0.197
		c-0.032,0.055-0.077,0.099-0.14,0.13C-78.345,95.396-78.421,95.409-78.513,95.415z M-78.513,95.991
		c0.253,0,0.474-0.042,0.648-0.142c0.18-0.091,0.313-0.226,0.4-0.409c0.092-0.183,0.135-0.397,0.135-0.664v-0.154
		c0-0.262-0.043-0.479-0.135-0.66c-0.087-0.184-0.22-0.316-0.4-0.416c-0.174-0.089-0.395-0.137-0.648-0.137
		c-0.262,0-0.481,0.048-0.658,0.137c-0.175,0.1-0.311,0.232-0.397,0.416c-0.095,0.181-0.138,0.398-0.138,0.66v0.154
		c0,0.267,0.043,0.481,0.138,0.664c0.086,0.184,0.222,0.318,0.397,0.409C-78.994,95.949-78.775,95.991-78.513,95.991z
		 M-80.732,95.969h0.736v-2.537h-0.736V95.969z M-82.238,95.991h0.134c0.11,0,0.216-0.003,0.319-0.022
		c0.103-0.02,0.198-0.053,0.283-0.087c0.086-0.043,0.163-0.092,0.228-0.153c0.062-0.062,0.11-0.134,0.146-0.221
		c0.038-0.086,0.056-0.183,0.056-0.295c0-0.146-0.024-0.275-0.07-0.374c-0.047-0.106-0.11-0.191-0.197-0.254
		c-0.086-0.067-0.192-0.113-0.318-0.148l-0.342-0.092c-0.036-0.007-0.065-0.021-0.102-0.037c-0.033-0.016-0.059-0.039-0.075-0.065
		c-0.021-0.029-0.031-0.064-0.031-0.111c0-0.034,0.006-0.064,0.024-0.09c0.019-0.022,0.039-0.036,0.069-0.053
		c0.029-0.008,0.063-0.014,0.098-0.021c0.034-0.002,0.07-0.005,0.105-0.005h0.07c0.033,0,0.07,0.003,0.113,0.003
		c0.042,0.002,0.086,0.01,0.136,0.014c0.051,0.002,0.095,0.007,0.144,0.015c0.044,0.009,0.09,0.015,0.13,0.025
		c0.036,0.006,0.073,0.016,0.1,0.022h0.022v-0.543c-0.038-0.011-0.088-0.027-0.144-0.033c-0.06-0.014-0.12-0.021-0.179-0.033
		c-0.068-0.006-0.127-0.011-0.189-0.018c-0.056-0.005-0.111-0.005-0.162-0.005h-0.05c-0.109,0-0.209,0.005-0.308,0.022
		c-0.104,0.016-0.199,0.039-0.284,0.079c-0.083,0.035-0.161,0.081-0.227,0.137c-0.069,0.061-0.116,0.127-0.154,0.206
		c-0.036,0.083-0.055,0.171-0.055,0.277c0,0.111,0.012,0.207,0.04,0.289c0.026,0.091,0.062,0.158,0.115,0.213
		c0.048,0.067,0.103,0.119,0.167,0.158c0.058,0.041,0.128,0.07,0.202,0.096l0.345,0.104c0.047,0.017,0.09,0.028,0.132,0.046
		c0.04,0.015,0.074,0.035,0.092,0.068c0.026,0.025,0.041,0.065,0.041,0.108c0,0.061-0.019,0.107-0.047,0.145
		c-0.034,0.031-0.073,0.052-0.123,0.064c-0.053,0.015-0.111,0.021-0.175,0.019h-0.08c-0.045,0-0.098-0.004-0.16-0.008
		c-0.059-0.006-0.122-0.014-0.184-0.026c-0.067-0.011-0.128-0.025-0.187-0.036c-0.058-0.013-0.109-0.028-0.152-0.038h-0.026v0.556
		c0.043,0.014,0.102,0.028,0.162,0.041c0.063,0.011,0.126,0.022,0.191,0.033c0.071,0.007,0.135,0.018,0.193,0.026
		C-82.335,95.988-82.283,95.991-82.238,95.991z M-84.478,95.969h1.189v-0.554h-0.817c-0.068,0-0.125-0.009-0.164-0.026
		c-0.039-0.015-0.067-0.038-0.082-0.079c-0.017-0.036-0.024-0.088-0.024-0.159v-0.187h0.929v-0.56h-0.929v-0.419h1.056v-0.554
		h-1.789v1.851c0,0.14,0.021,0.263,0.068,0.365c0.051,0.097,0.12,0.178,0.211,0.236C-84.738,95.939-84.622,95.969-84.478,95.969z
		 M-86.195,95.991h0.159c0.045,0,0.099-0.003,0.151-0.004c0.058-0.008,0.112-0.019,0.17-0.025c0.054-0.013,0.106-0.025,0.159-0.039
		c0.047-0.017,0.089-0.031,0.128-0.049v-0.542h-0.028c-0.028,0.01-0.06,0.021-0.106,0.036c-0.046,0.01-0.095,0.021-0.151,0.035
		c-0.057,0.006-0.107,0.019-0.167,0.029c-0.055,0.004-0.107,0.008-0.156,0.008h-0.106c-0.118,0-0.214-0.025-0.302-0.077
		c-0.083-0.054-0.141-0.123-0.185-0.213c-0.042-0.094-0.064-0.198-0.064-0.318V94.54c0-0.115,0.016-0.215,0.054-0.298
		c0.033-0.09,0.086-0.158,0.166-0.208c0.071-0.049,0.165-0.069,0.278-0.072c0.019,0,0.037,0.003,0.063,0.003
		c0.023,0.002,0.043,0.01,0.07,0.012c0.023,0.002,0.036,0.008,0.053,0.009v0.292h0.582v-0.767c-0.05-0.018-0.101-0.032-0.158-0.044
		c-0.053-0.01-0.117-0.022-0.181-0.029c-0.062-0.012-0.126-0.017-0.191-0.023c-0.061-0.005-0.125-0.005-0.186-0.005
		c-0.193-0.003-0.366,0.022-0.527,0.062c-0.154,0.048-0.291,0.116-0.405,0.211c-0.112,0.093-0.203,0.212-0.266,0.359
		c-0.064,0.146-0.094,0.325-0.096,0.528v0.263c0,0.246,0.048,0.457,0.141,0.629c0.093,0.174,0.229,0.308,0.416,0.396
		C-86.698,95.949-86.471,95.991-86.195,95.991z M-89.993,95.969h0.736v-1.321l0.902,1.321h0.634v-2.537h-0.74v1.322l-0.901-1.322
		h-0.632V95.969z M-91.47,95.415c-0.097-0.006-0.175-0.02-0.235-0.045c-0.06-0.031-0.104-0.075-0.134-0.13
		c-0.033-0.058-0.056-0.125-0.066-0.197c-0.011-0.083-0.019-0.164-0.019-0.267v-0.154c0-0.097,0.008-0.186,0.019-0.262
		c0.01-0.074,0.033-0.146,0.066-0.199c0.03-0.06,0.074-0.098,0.134-0.127c0.06-0.032,0.138-0.049,0.235-0.049
		c0.092,0,0.171,0.017,0.229,0.049c0.06,0.029,0.104,0.067,0.133,0.127c0.036,0.054,0.055,0.125,0.067,0.199
		c0.013,0.076,0.016,0.165,0.016,0.262v0.154c0,0.103-0.003,0.184-0.016,0.267c-0.013,0.072-0.032,0.14-0.067,0.197
		c-0.029,0.055-0.073,0.099-0.133,0.13C-91.299,95.396-91.378,95.409-91.47,95.415z M-91.47,95.991c0.254,0,0.475-0.042,0.647-0.142
		c0.177-0.091,0.312-0.226,0.401-0.409c0.091-0.183,0.134-0.397,0.134-0.664v-0.154c0-0.262-0.043-0.479-0.134-0.66
		c-0.09-0.184-0.224-0.316-0.401-0.416c-0.172-0.089-0.393-0.137-0.647-0.137c-0.261,0-0.482,0.048-0.657,0.137
		c-0.179,0.1-0.31,0.232-0.4,0.416c-0.089,0.181-0.133,0.398-0.133,0.66v0.154c0,0.267,0.044,0.481,0.133,0.664
		c0.09,0.184,0.221,0.318,0.4,0.409C-91.953,95.949-91.731,95.991-91.47,95.991z M-93.666,95.991h0.163
		c0.042,0,0.097-0.003,0.148-0.004c0.056-0.008,0.11-0.019,0.165-0.025c0.058-0.013,0.11-0.025,0.161-0.039
		c0.049-0.017,0.094-0.031,0.129-0.049v-0.542h-0.026c-0.027,0.01-0.063,0.021-0.107,0.036c-0.047,0.01-0.098,0.021-0.151,0.035
		c-0.06,0.006-0.11,0.019-0.166,0.029c-0.057,0.004-0.112,0.008-0.153,0.008h-0.106c-0.118,0-0.221-0.025-0.301-0.077
		c-0.086-0.054-0.146-0.123-0.189-0.213c-0.042-0.094-0.067-0.198-0.067-0.318V94.54c0-0.115,0.02-0.215,0.055-0.298
		c0.036-0.09,0.089-0.158,0.164-0.208c0.077-0.049,0.171-0.069,0.283-0.072c0.021,0,0.038,0.003,0.065,0.003
		c0.022,0.002,0.045,0.01,0.067,0.012c0.023,0.002,0.04,0.008,0.056,0.009v0.292h0.579v-0.767c-0.045-0.018-0.102-0.032-0.156-0.044
		c-0.057-0.01-0.118-0.022-0.181-0.029c-0.063-0.012-0.125-0.017-0.188-0.023c-0.069-0.005-0.127-0.005-0.185-0.005
		c-0.194-0.003-0.367,0.022-0.526,0.062c-0.155,0.048-0.293,0.116-0.408,0.211c-0.115,0.093-0.204,0.212-0.269,0.359
		c-0.061,0.146-0.093,0.325-0.094,0.528v0.263c0,0.246,0.051,0.457,0.145,0.629c0.088,0.174,0.229,0.308,0.409,0.396
		C-94.167,95.949-93.938,95.991-93.666,95.991z"/>
	<polygon fill-rule="evenodd" clip-rule="evenodd" fill="#FFFFFF" points="-105.359,106.005 -108.555,106.005 -108.555,94.825 
		-105.359,94.825 -105.359,99.142 -101.102,94.825 -97.044,94.825 -101.294,98.989 -97.079,106.005 -100.712,106.005 
		-103.597,101.036 -105.359,102.749 	"/>
	<path fill-rule="evenodd" clip-rule="evenodd" fill="#FFFFFF" d="M-91.614,102.168c-0.644,0.674-2.479,0.422-2.479,1.659
		c0,0.58,0.504,0.926,1.002,0.926c0.754,0,1.354-0.521,1.383-1.051L-91.614,102.168z M-96.753,100.743
		c0.317-1.963,2.022-2.412,3.793-2.412c3.225,0,4.119,1.204,4.119,3.084v2.664c0,0.812,0.107,1.482,0.52,1.926l0,0h-3.046
		c-0.154-0.251-0.183-0.595-0.218-1.036h-0.028c-0.624,1.002-1.879,1.348-2.591,1.348c-0.979,0-2.83-0.374-2.83-2.301
		c0-1.646,0.972-2.43,3.472-2.43c1.385,0,1.965-0.374,1.965-0.872c0-0.69-0.52-0.913-1.115-0.913c-0.626,0-1.129,0.253-1.159,0.942
		H-96.753z"/>
	<polygon fill-rule="evenodd" clip-rule="evenodd" fill="#FFFFFF" points="-78.417,103.25 -78.382,103.25 -77.445,98.641 
		-74.561,98.641 -76.785,106.005 -80.02,106.005 -81.421,101.415 -81.392,101.388 -81.392,101.434 -81.421,101.434 -82.803,106.005 
		-86.027,106.005 -88.251,98.641 -85.363,98.641 -84.428,103.25 -84.396,103.25 -82.944,98.641 -79.871,98.641 	"/>
	<path fill-rule="evenodd" clip-rule="evenodd" fill="#FFFFFF" d="M-69.422,102.168c-0.635,0.674-2.462,0.422-2.462,1.659
		c0,0.58,0.498,0.926,0.997,0.926c0.75,0,1.342-0.521,1.378-1.051L-69.422,102.168z M-74.551,100.743
		c0.313-1.963,2.024-2.412,3.785-2.412c3.229,0,4.124,1.204,4.124,3.084v2.664c0,0.812,0.108,1.482,0.511,1.926l0,0h-3.036
		c-0.157-0.251-0.188-0.595-0.221-1.036h-0.033c-0.625,1.002-1.873,1.348-2.574,1.348c-0.989,0-2.833-0.374-2.833-2.301
		c0-1.646,0.972-2.43,3.475-2.43c1.371,0,1.955-0.374,1.955-0.872c0-0.69-0.524-0.913-1.116-0.913c-0.621,0-1.122,0.253-1.153,0.942
		l0,0H-74.551z"/>
	<path fill-rule="evenodd" clip-rule="evenodd" fill="#FFFFFF" d="M-63.248,103.979c0.041,0.318,0.155,0.57,0.322,0.742
		c0.191,0.159,0.461,0.247,0.802,0.247c0.671,0,1.13-0.278,1.13-0.877c0-1.455-4.92,0-4.92-3.004c0-1.976,1.727-2.757,4.102-2.757
		c1.628,0,3.384,0.5,3.48,2.412h-2.792c0.033-0.349-0.043-0.602-0.218-0.769c-0.17-0.189-0.424-0.28-0.764-0.301
		c-0.407,0-1.023,0.163-1.023,0.721c0,1.583,4.969,0.111,4.969,3.297c0,2.092-2.302,2.625-4.088,2.625
		c-1.489,0-3.792-0.455-3.792-2.337l0,0H-63.248z"/>
	<path fill-rule="evenodd" clip-rule="evenodd" fill="#FFFFFF" d="M-52.431,102.168c-0.639,0.674-2.473,0.422-2.473,1.659
		c0,0.58,0.498,0.926,1.002,0.926c0.747,0,1.338-0.521,1.378-1.051L-52.431,102.168z M-57.567,100.743
		c0.31-1.963,2.023-2.412,3.785-2.412c3.234,0,4.125,1.204,4.125,3.084l0,0v2.664c0,0.812,0.106,1.482,0.512,1.926l0,0h-3.036
		c-0.16-0.251-0.191-0.595-0.221-1.036h-0.029c-0.627,1.002-1.877,1.348-2.583,1.348c-0.992,0-2.835-0.374-2.835-2.301
		c0-1.646,0.973-2.43,3.475-2.43c1.379,0,1.964-0.374,1.964-0.872c0-0.69-0.521-0.913-1.114-0.913c-0.629,0-1.131,0.253-1.159,0.942
		l0,0H-57.567z"/>
	<polygon fill-rule="evenodd" clip-rule="evenodd" fill="#FFFFFF" points="-48.612,106.005 -48.612,94.825 -45.608,94.825 
		-45.608,100.806 -43.667,98.641 -40.063,98.641 -42.585,101.212 -39.797,106.005 -43.176,106.005 -44.676,103.12 -45.619,104.033 
		-45.619,106.005 	"/>
	<path fill-rule="evenodd" clip-rule="evenodd" fill="#FFFFFF" d="M-39.419,97.52v-2.694h3.005v2.694H-39.419z M-39.419,98.641
		h3.005v7.364h-3.005V98.641z"/>
</g>
</svg>
