<?xml version="1.0" encoding="utf-8"?>
<!-- Generator: Adobe Illustrator 16.0.0, SVG Export Plug-In . SVG Version: 6.00 Build 0)  -->
<!DOCTYPE svg PUBLIC "-//W3C//DTD SVG 1.1//EN" "http://www.w3.org/Graphics/SVG/1.1/DTD/svg11.dtd">
<svg version="1.1" id="Capa_1" xmlns="http://www.w3.org/2000/svg" xmlns:xlink="http://www.w3.org/1999/xlink" x="0px" y="0px"
	 width="120px" height="50px" viewBox="0 0 120 50" enable-background="new 0 0 120 50" xml:space="preserve">
<g>
	<g>
		<path fill="#FE000C" d="M33.077,29.347c0,0-1.668,0.479-4.906,2.442c-2.901,1.767-4.042,2.953-4.042,2.953l-8.946-6.114
			c0,0,3.764-2.742,6.91-0.642l4.224,2.865l0.508-0.336l-11.643-8.071c0,0,1.672-0.479,4.907-2.445
			c2.906-1.766,4.039-2.957,4.039-2.957l8.955,6.12c0,0-3.768,2.743-6.913,0.645l-4.217-2.868l-0.519,0.339L33.077,29.347"/>
	</g>
	<g>
		<polyline fill="#093A80" points="73.136,21.087 61.989,21.087 61.989,23.535 67.372,23.535 61.807,28.681 61.807,30.733 
			73.122,30.733 73.122,28.274 67.486,28.274 73.136,23.139 73.136,21.087 		"/>
		<path fill="#093A80" d="M55.43,30.981c4.457,0,5.603-1.128,5.603-3.609v-6.285h-3.536v5.911c0,0.992-0.859,1.583-2.066,1.583
			c-1.256,0-2.061-0.591-2.061-1.598v-5.896h-3.537v6.285C49.832,29.854,50.98,30.981,55.43,30.981"/>
		<path fill="#093A80" d="M79.602,30.981c4.458,0,5.602-1.128,5.602-3.609v-6.285h-3.536v5.911c0,0.992-0.858,1.583-2.065,1.583
			c-1.258,0-2.06-0.591-2.06-1.598v-5.896h-3.54v6.285C74.002,29.854,75.148,30.981,79.602,30.981"/>
		<polyline fill="#093A80" points="102.823,21.087 99.145,21.087 99.145,30.733 102.823,30.733 102.823,21.087 		"/>
		<polyline fill="#093A80" points="98.585,21.087 93.733,21.087 89.82,24.415 89.82,21.087 86.136,21.087 86.136,30.733 
			89.82,30.733 89.82,27.315 93.46,30.733 98.407,30.733 93.021,25.786 98.585,21.087 		"/>
		<path fill="#093A80" d="M41.129,23.753c0-0.747,1.119-0.769,1.498-0.769c0.386,0,1.233,0.145,1.81,1.086h4.161
			c0-1.814-1.738-3.26-5.953-3.26c-4.689,0-5.489,2.029-5.489,3.2c0,2.15,1.694,2.776,5.358,3.168
			c0.309,0.031,2.215-0.053,2.215,0.848c0,0.678-1.073,0.718-1.459,0.718c-0.395,0-1.125-0.063-1.738-1.129h-4.582
			c0,2.121,1.442,3.342,6.311,3.342c4.479,0,5.668-1.807,5.668-3.184c0-1.335-0.92-2.694-4.742-3.181
			C42.589,24.39,41.129,24.304,41.129,23.753"/>
	</g>
</g>
</svg>
