<?xml version="1.0" encoding="utf-8"?>
<!-- Generator: Adobe Illustrator 16.0.0, SVG Export Plug-In . SVG Version: 6.00 Build 0)  -->
<!DOCTYPE svg PUBLIC "-//W3C//DTD SVG 1.1//EN" "http://www.w3.org/Graphics/SVG/1.1/DTD/svg11.dtd">
<svg version="1.1" id="Capa_1" xmlns="http://www.w3.org/2000/svg" xmlns:xlink="http://www.w3.org/1999/xlink" x="0px" y="0px"
	 width="120px" height="50px" viewBox="0 0 120 50" enable-background="new 0 0 120 50" xml:space="preserve">
<g>
	<g>
		<path fill-rule="evenodd" clip-rule="evenodd" fill="#E31C24" d="M91.42,23.666c0.369-1.754,2.023-2.272,3.629-2.272
			c2.987,0,3.633,1.104,3.633,2.39v5.974h-2.639c-0.093-0.542-0.032-0.187-0.122-0.733c-0.655,0.598-1.575,0.947-2.478,0.947
			c-0.783,0-2.411-0.414-2.411-2.406c0-2.234,2.517-2.89,4.875-2.908v-0.675c0-0.611-0.445-0.811-0.967-0.811
			c-0.7,0-0.963,0.382-1.132,0.998L91.42,23.666z M95.891,26.034c-0.829,0.109-2.068,0.32-2.068,1.286
			c0,0.602,0.586,0.873,0.892,0.873c0.427,0,0.764-0.17,1.177-0.456V26.034z"/>
		<path fill-rule="evenodd" clip-rule="evenodd" fill="#E31C24" d="M56.454,23.666c0.365-1.754,2.022-2.272,3.627-2.272
			c2.987,0,3.632,1.104,3.632,2.39v5.974h-2.637c-0.094-0.542-0.035-0.187-0.119-0.733c-0.657,0.598-1.578,0.947-2.48,0.947
			c-0.785,0-2.406-0.414-2.406-2.406c0-2.234,2.508-2.89,4.871-2.908v-0.675c0-0.611-0.446-0.811-0.969-0.811
			c-0.697,0-0.965,0.382-1.131,0.998L56.454,23.666z M60.921,26.034c-0.824,0.109-2.064,0.32-2.064,1.286
			c0,0.602,0.585,0.873,0.89,0.873c0.432,0,0.768-0.17,1.175-0.456V26.034z"/>
		<path fill-rule="evenodd" clip-rule="evenodd" fill="#E31C24" d="M69.66,24.74c0-0.581-0.081-1.18-0.66-1.18
			c-0.537,0-0.857,0.299-1.243,0.735v5.461h-2.881v-8.146h2.881v1.158c0.702-0.7,1.379-1.376,2.439-1.376
			c0.778,0,2.346,0.443,2.346,2.466v5.897H69.66V24.74z"/>
		<rect x="83.172" y="18.76" fill-rule="evenodd" clip-rule="evenodd" fill="#E31C24" width="2.879" height="10.997"/>
		<rect x="87.24" y="18.76" fill-rule="evenodd" clip-rule="evenodd" fill="#E31C24" width="2.88" height="10.997"/>
		<path fill-rule="evenodd" clip-rule="evenodd" fill="#E31C24" d="M82.397,26.898c-0.64,1.897-2.372,3.075-4.597,3.075
			c-2.558,0-4.347-1.579-4.347-4.289c0-2.492,1.686-4.282,4.347-4.282c2.094,0,3.783,1.05,4.204,3.389
			c0.039,0.202,0.073,0.367,0.104,0.571l-5.598,1.18c0.152,1.104,1.179,1.707,2.245,1.477c0.703-0.142,1.422-0.766,1.553-1.55
			L82.397,26.898z M78.864,24.408c-0.151-0.848-0.671-1.348-1.488-1.266c-0.976,0.11-1.171,0.922-1.003,1.799L78.864,24.408z"/>
		<polygon fill-rule="evenodd" clip-rule="evenodd" fill="#E31C24" points="55.598,18.758 46.713,18.758 46.713,21.145 
			51.252,21.145 46.433,28.1 46.433,29.757 55.319,29.757 55.319,27.276 50.862,27.276 55.598,20.416 		"/>
		<path fill-rule="evenodd" clip-rule="evenodd" fill="#E31C24" d="M100.568,21.475c0.6,0,1.098,0.475,1.098,1.095
			c0,0.626-0.498,1.097-1.098,1.097c-0.598,0-1.102-0.471-1.102-1.097C99.467,21.949,99.971,21.475,100.568,21.475 M100.568,23.507
			c0.509,0,0.901-0.406,0.901-0.938c0-0.527-0.393-0.931-0.901-0.931c-0.508,0-0.905,0.403-0.905,0.931
			C99.663,23.101,100.061,23.507,100.568,23.507z M100.141,21.931h0.501c0.299,0,0.439,0.115,0.439,0.366
			c0,0.23-0.145,0.326-0.333,0.345l0.371,0.569H100.9l-0.348-0.554h-0.21v0.554h-0.202V21.931z M100.343,22.497h0.206
			c0.174,0,0.34-0.009,0.34-0.21c0-0.17-0.147-0.196-0.286-0.196h-0.26V22.497z"/>
	</g>
	<path fill-rule="evenodd" clip-rule="evenodd" fill="#E31C24" d="M21.088,24.277v0.339c0,2.611,1.406,5.22,2.728,6.538
		c0.787,0.778,1.606,1.465,2.648,1.98c0.39,0.195,1.23,0.57,1.663,0.658c0.479,0.104,1.441,0.381,1.979,0.381h0.841
		c5.429,0,9.778-4.354,9.778-9.77v-0.545c0-2.641-1.58-5.143-2.921-6.479c-0.83-0.834-1.655-1.363-2.756-1.92
		c-0.823-0.419-2.59-0.917-3.805-0.917h-0.634c-1.203,0-3.077,0.516-3.862,0.944c-1.324,0.724-1.75,0.997-2.813,1.988
		C22.489,18.825,21.088,21.495,21.088,24.277 M22.355,23.772c0-2.165,1.448-4.516,2.573-5.594c1.224-1.166,3.356-2.409,5.724-2.409
		h0.715c1.153,0,2.211,0.45,3.046,0.748c0.457,0.162,2.142,1.187,2.266,1.524l-4.384-0.1l-2.274,0.019l-4.384,0.081
		c-0.353,0.239-1.579,1.545-1.683,1.938l6.277,1.098c-0.069,0.286-2.694,3.993-3.087,4.583c-0.346,0.521-3.065,4.37-3.065,4.596
		v0.087c0,0.192,0.66,0.421,0.926,0.421c0.373,0.248,0.733,0.609,1.164,0.9c0.42,0.279,0.846,0.485,1.31,0.714
		c0.786,0.387,2.219,0.702,3.388,0.702h0.165c4.688,0,8.595-3.94,8.595-8.638c0-1.143-0.216-2.279-0.56-3.102
		c-0.204-0.499-0.351-0.81-0.588-1.266c-0.103-0.189-0.703-1.018-0.703-1.104c0-0.047,0.355-0.494,0.417-0.761
		c0.508,0.34,1.229,1.779,1.544,2.417c0.315,0.643,0.732,2.277,0.732,3.231v0.627c0,5.058-4.26,9.438-9.266,9.438h-0.761
		c-1.555,0-3.379-0.686-4.357-1.293c-0.596-0.359-1.134-0.729-1.616-1.206c-0.287-0.285-1.221-1.147-1.314-1.508h0.168
		c0.187,0,0.672-0.292,0.672-0.459c0,0-0.537-0.835-0.604-0.955c-0.156-0.283-0.391-0.735-0.486-1.03
		c-0.232-0.715-0.549-1.587-0.549-2.521V23.772z M24.963,30.469c0.009-0.341,1.178-1.323,1.446-1.59
		c0.509-0.514,0.986-0.989,1.495-1.494c0.508-0.511,0.984-0.986,1.495-1.491c0.418-0.425,1.151-1.068,1.481-1.518
		c0.376-0.507,5.923-5.95,6.01-5.95h0.672c0.069,0,0.129,0.02,0.129,0.083c0,0.159-2.777,4.112-3.105,4.605
		c-0.383,0.583-3.03,4.328-3.09,4.577l6.49,1.134c-0.089,0.37-1.053,1.441-1.35,1.644l-4.846,0.099l-3.498-0.012L24.963,30.469z
		 M37.426,19.467c0.329,0.239,0.935,1.501,1.121,1.972c0.275,0.69,0.535,1.605,0.535,2.543v0.846c0,0.677-0.162,1.405-0.319,1.95
		c-0.071,0.244-0.563,1.571-0.736,1.543l-5.94-1.04L37.426,19.467z M30.694,32.578c-0.888,0-2.081-0.293-2.727-0.563
		c-0.499-0.216-1.826-0.863-2.076-1.211l4.001,0.057l1.268-0.018l4.76-0.048c-0.08,0.309-1.631,1.077-2.037,1.214
		c-0.779,0.262-1.623,0.568-2.64,0.568H30.694z"/>
</g>
</svg>
