<?xml version="1.0" encoding="utf-8"?>
<!-- Generator: Adobe Illustrator 16.0.0, SVG Export Plug-In . SVG Version: 6.00 Build 0)  -->
<!DOCTYPE svg PUBLIC "-//W3C//DTD SVG 1.1//EN" "http://www.w3.org/Graphics/SVG/1.1/DTD/svg11.dtd">
<svg version="1.1" id="Capa_1" xmlns="http://www.w3.org/2000/svg" xmlns:xlink="http://www.w3.org/1999/xlink" x="0px" y="0px"
	 width="120px" height="50px" viewBox="0 0 120 50" enable-background="new 0 0 120 50" xml:space="preserve">
<g>
	<g>
		<path fill="#BB0411" d="M33.723,17.303c-5.176,0-9.373,4.194-9.373,9.372c0,5.176,4.197,9.372,9.373,9.372
			s9.375-4.196,9.375-9.372C43.097,21.497,38.899,17.303,33.723,17.303z M33.723,35.665c-4.969,0-8.99-4.026-8.99-8.99
			c0-4.966,4.021-8.988,8.99-8.988c4.961,0,8.991,4.022,8.991,8.988C42.713,31.639,38.684,35.665,33.723,35.665z"/>
		<path fill="#BB0411" d="M33.722,18.789c-4.358,0-7.888,3.531-7.888,7.886c0,4.356,3.53,7.889,7.888,7.889
			c4.355,0,7.882-3.532,7.882-7.889C41.604,22.32,38.077,18.789,33.722,18.789z M39.438,30.236l-1.596-0.313
			c-0.008-0.253-0.141-0.45-0.445-0.626c-0.351-0.202-0.447-0.195-0.859-0.125c-0.417,0.069-0.919-0.141-1.199-0.303
			c-0.058-0.035-0.257-0.148-0.544-0.318c0,1.92,0,3.741,0,3.741h-0.55v-4.057c-0.161-0.091-0.331-0.187-0.514-0.297
			c-0.186,0.11-0.36,0.209-0.525,0.303v4.051h-0.553c0,0,0-1.816,0-3.729c-0.276,0.157-0.462,0.267-0.522,0.299
			c-0.281,0.162-0.78,0.371-1.196,0.3c-0.414-0.067-0.506-0.078-0.86,0.123c-0.3,0.177-0.434,0.379-0.442,0.636l-1.596,0.31
			c-0.127,0.031-0.247,0.017-0.285-0.063c-0.047-0.086-0.012-0.2,0.075-0.301l1.071-1.223c0.227,0.12,0.465,0.106,0.77-0.065
			c0.351-0.206,0.394-0.294,0.537-0.683c0.146-0.398,0.577-0.726,0.859-0.889c0.057-0.034,0.251-0.141,0.527-0.3
			c-1.677-0.972-3.287-1.899-3.287-1.899l0.279-0.479l3.561,2.057c0.157-0.093,0.329-0.191,0.51-0.297c0-0.216,0-0.419,0-0.604
			l-3.552-2.055l0.279-0.477c0,0,1.599,0.926,3.273,1.894c0-0.359,0-0.602,0-0.676c0-0.327,0.071-0.867,0.335-1.189
			c0.272-0.32,0.326-0.403,0.326-0.805c0-0.353-0.108-0.568-0.326-0.702l0.529-1.538c0.04-0.128,0.109-0.225,0.199-0.217
			c0.094,0.006,0.18,0.089,0.221,0.217l0.523,1.538c-0.215,0.134-0.325,0.35-0.325,0.702c0,0.401,0.053,0.484,0.325,0.805
			c0.27,0.322,0.335,0.862,0.335,1.189c0,0.074,0,0.316,0,0.684c1.685-0.976,3.3-1.907,3.3-1.907l0.276,0.478l-3.576,2.063
			c0,0.186,0,0.382,0,0.594c0.186,0.105,0.362,0.21,0.522,0.304l3.574-2.063l0.275,0.483c0,0-1.611,0.925-3.293,1.901
			c0.283,0.159,0.478,0.271,0.535,0.308c0.28,0.161,0.716,0.487,0.863,0.884c0.139,0.393,0.187,0.48,0.534,0.683
			c0.304,0.175,0.546,0.191,0.771,0.07l1.069,1.223c0.09,0.1,0.14,0.205,0.085,0.282C39.683,30.236,39.563,30.269,39.438,30.236z"/>
		<polygon fill="#BB0411" points="33.732,27.304 33.207,27.001 33.207,26.408 33.732,26.105 34.246,26.402 34.246,27.009 		"/>
		<path fill="#BB0411" d="M33.207,24.223c0.038-0.429,0.242-0.512,0.515-0.512c0.267,0,0.482,0.083,0.524,0.512v0.95
			c-0.176,0.098-0.345,0.2-0.514,0.294c-0.172-0.098-0.348-0.202-0.525-0.305V24.223z"/>
		<path fill="#BB0411" d="M31.902,28.361c-0.391,0.179-0.564,0.043-0.696-0.188c-0.138-0.236-0.176-0.46,0.178-0.714l0.76-0.438
			c0.17,0.1,0.343,0.201,0.51,0.299c0,0.195,0,0.401,0,0.604L31.902,28.361z"/>
		<path fill="#BB0411" d="M36.275,28.166c-0.133,0.233-0.307,0.381-0.7,0.198l-0.779-0.447c0-0.199,0-0.398,0-0.592
			c0.175-0.1,0.35-0.201,0.522-0.303l0.771,0.443C36.441,27.718,36.409,27.934,36.275,28.166z"/>
	</g>
	<g>
		<polygon fill="#FFFFFF" points="82.392,20.336 82.392,33.02 84.576,33.02 84.576,27.491 87.767,27.491 87.767,33.02 89.961,33.02 
			89.961,20.336 87.767,20.336 87.767,25.329 84.576,25.329 84.576,20.336 		"/>
		<polygon fill="#FFFFFF" points="62.292,33.018 62.292,20.332 65.979,20.332 67.289,25.824 68.67,20.336 72.364,20.332 
			72.364,33.018 70.16,33.018 70.16,24.157 68.178,31.746 66.405,31.746 64.49,24.157 64.49,33.018 		"/>
		<polygon fill="#FFFFFF" points="47.869,33.02 47.869,28.227 45.253,20.336 47.692,20.336 49.271,25.56 51.31,20.336 
			53.436,20.336 50.294,28.196 50.294,33.02 		"/>
		<path fill="#FFFFFF" d="M78.875,20.332h-3.579l-1.984,12.686H75.4l0.465-2.8h2.686l0.566,2.8h2.203L78.875,20.332z M76.18,28.092
			l0.852-5.739l1.121,5.739H76.18z"/>
		<path fill="#FFFFFF" d="M96.587,20.332h-3.579l-1.987,12.686h2.089l0.466-2.8h2.69l0.565,2.8h2.201L96.587,20.332z M93.892,28.092
			l0.855-5.739l1.125,5.739H93.892z"/>
		<path fill="#FFFFFF" d="M58.68,20.332h-3.576l-1.987,12.686h2.091l0.462-2.8h2.693l0.563,2.8h2.199L58.68,20.332z M55.988,28.092
			l0.849-5.739l1.124,5.739H55.988z"/>
		<path fill="#FFFFFF" d="M99.348,20.653c-0.195-0.193-0.427-0.293-0.703-0.293c-0.277,0-0.505,0.1-0.702,0.293
			c-0.191,0.189-0.287,0.423-0.287,0.697c0,0.273,0.095,0.51,0.283,0.703c0.198,0.195,0.427,0.294,0.706,0.294
			c0.275,0,0.508-0.099,0.703-0.294c0.192-0.193,0.289-0.43,0.289-0.703C99.636,21.076,99.54,20.843,99.348,20.653z M99.248,21.957
			c-0.169,0.167-0.366,0.252-0.603,0.252c-0.241,0-0.443-0.085-0.607-0.252c-0.166-0.168-0.247-0.368-0.247-0.606
			c0-0.237,0.081-0.438,0.252-0.606c0.167-0.167,0.366-0.246,0.602-0.246c0.232,0,0.434,0.079,0.603,0.246
			c0.164,0.168,0.247,0.369,0.247,0.606C99.495,21.589,99.412,21.789,99.248,21.957z"/>
		<path fill="#FFFFFF" d="M99.084,21.881c-0.005-0.013-0.007-0.028-0.01-0.059c0-0.029,0-0.057,0-0.08V21.66
			c0-0.054-0.02-0.109-0.058-0.168c-0.042-0.055-0.102-0.093-0.192-0.105c0.071-0.012,0.121-0.029,0.16-0.053
			c0.07-0.048,0.109-0.118,0.109-0.217c0-0.137-0.057-0.227-0.171-0.274c-0.062-0.027-0.163-0.043-0.297-0.043h-0.381v1.095h0.191
			v-0.433h0.152c0.102,0,0.171,0.014,0.209,0.035c0.074,0.039,0.106,0.124,0.106,0.249v0.086l0.006,0.036v0.013
			c0.001,0.003,0.005,0.01,0.005,0.01l0.179,0.004L99.084,21.881z M98.792,21.303c-0.044,0.018-0.103,0.027-0.183,0.027h-0.174
			v-0.394h0.163c0.109,0,0.188,0.013,0.229,0.037c0.05,0.027,0.076,0.082,0.076,0.163S98.867,21.276,98.792,21.303z"/>
	</g>
</g>
</svg>
