<?xml version="1.0" encoding="utf-8"?>
<!-- Generator: Adobe Illustrator 16.0.0, SVG Export Plug-In . SVG Version: 6.00 Build 0)  -->
<!DOCTYPE svg PUBLIC "-//W3C//DTD SVG 1.1//EN" "http://www.w3.org/Graphics/SVG/1.1/DTD/svg11.dtd">
<svg version="1.1" id="Capa_1" xmlns="http://www.w3.org/2000/svg" xmlns:xlink="http://www.w3.org/1999/xlink" x="0px" y="0px"
	 width="120px" height="50px" viewBox="0 0 120 50" enable-background="new 0 0 120 50" xml:space="preserve">
<g>
	<path fill-rule="evenodd" clip-rule="evenodd" fill="#DB1829" d="M41.941,24.343l1.161,0.144c0.434,0,0.434,0.437,0.434,0.726
		v1.307h-4.928v-1.307c0-0.289,0-0.726,0.578-0.726l1.018-0.144v-1.161H33.68v1.161l1.16,0.144c0.434,0,0.581,0.437,0.581,0.726
		v4.199c0,0.291-0.147,0.582-0.581,0.731l-1.16,0.141v1.019h6.524v-1.019l-1.018-0.141c-0.578-0.149-0.578-0.44-0.578-0.731v-1.302
		h4.928v1.302c0,0.291,0,0.582-0.434,0.731l-1.161,0.141v1.019h6.523v-1.019l-1.162-0.141c-0.433-0.149-0.433-0.44-0.433-0.731
		v-4.199c0-0.289,0-0.726,0.433-0.726l1.162-0.144v-1.161h-6.523V24.343L41.941,24.343z"/>
	<path fill-rule="evenodd" clip-rule="evenodd" fill="#DB1829" d="M85.124,23.182h-7.969v1.161l0.869,0.144
		c0.437,0,0.581,0.145,0.581,0.58v4.345c0,0.291,0,0.582-0.436,0.731l-1.159,0.141v1.019h8.114c2.899,0,5.218-1.159,5.218-4.063
		C90.342,24.486,88.023,23.182,85.124,23.182L85.124,23.182L85.124,23.182z M84.542,29.702H81.79v-4.924h2.752
		c1.596,0,2.176,0.724,2.176,2.461C86.718,28.982,86.138,29.702,84.542,29.702L84.542,29.702z"/>
	<path fill-rule="evenodd" clip-rule="evenodd" fill="#DB1829" d="M103.962,30.143c-0.435-0.149-0.581-0.44-0.729-0.584
		c-3.763-5.796-3.763-5.796-3.763-5.796c-0.292-0.438-0.437-0.581-0.87-0.581h-6.085v1.161l1.452,0.144
		c0.139,0,0.431,0.292,0.286,0.726l-2.752,4.49c-0.143,0.149-0.294,0.44-0.582,0.44l-1.159,0.141v1.019h5.218v-1.019l-0.872-0.141
		c-0.435,0-0.578-0.291-0.435-0.584l0.435-0.724h4.928l0.437,0.576c0.291,0.44-0.144,0.731-0.437,0.731l-1.012,0.141v1.019h7.099
		v-1.019L103.962,30.143L103.962,30.143L103.962,30.143z M94.978,27.386l1.448-2.463l1.741,2.463H94.978L94.978,27.386z"/>
	<path fill-rule="evenodd" clip-rule="evenodd" fill="#DB1829" d="M71.357,24.343l1.014,0.144c0.578,0,0.578,0.437,0.578,0.726
		v4.058l-4.199-5.65c-0.29-0.294-0.437-0.438-0.871-0.438c-0.29,0-5.508,0-5.508,0v1.161l1.011,0.144
		c0.585,0,0.585,0.437,0.585,0.726v4.199c0,0.291,0,0.582-0.585,0.731l-1.011,0.141v1.019h5.075v-1.019l-1.017-0.141
		c-0.435-0.149-0.583-0.44-0.583-0.731v-4.054l4.351,5.649c0.148,0.295,0.292,0.295,0.724,0.295c0.146,0,0.146,0,0.146,0
		c0.143,0,1.015,0,3.912,0v-6.09c0-0.289,0-0.726,0.433-0.726l1.16-0.144v-1.161h-5.216V24.343L71.357,24.343z"/>
	<path fill-rule="evenodd" clip-rule="evenodd" fill="#DB1829" d="M55.417,23.035c-5.359,0-6.666,2.177-6.666,4.204
		c0,2.03,1.307,4.348,6.666,4.348c5.217,0,6.521-2.317,6.521-4.348C61.938,25.212,60.634,23.035,55.417,23.035L55.417,23.035
		L55.417,23.035z M55.417,30.143c-2.027,0-2.895-0.873-2.895-2.903c0-1.882,0.868-2.753,2.895-2.753
		c2.028,0,2.898,0.871,2.898,2.753C58.315,29.27,57.446,30.143,55.417,30.143L55.417,30.143z"/>
	<polygon fill-rule="evenodd" clip-rule="evenodd" fill="#DB1829" points="17.981,31.302 16.866,30.27 22.483,29.605 25.207,31.302 
		17.981,31.302 	"/>
	<path fill-rule="evenodd" clip-rule="evenodd" fill="#DB1829" d="M27.437,26.883L15.629,29.11l1.03,0.951l5.451-0.66
		c-0.082-0.043-0.123-0.126-0.123-0.168c0-0.083,0.042-0.164,0.123-0.164c0.085,0,3.053-0.454,3.264-0.454
		c0.08-0.039,0.325-0.087,0.575-0.208c0.248-0.123,0.414-0.249,0.539-0.33c0.042-0.083,0.287-0.327,0.452-0.494
		c0.126-0.124,0.166-0.207,0.246-0.292c0.085-0.081,0.208-0.244,0.292-0.325C27.478,26.922,27.478,26.883,27.437,26.883
		L27.437,26.883z"/>
	<path fill-rule="evenodd" clip-rule="evenodd" fill="#DB1829" d="M29.296,24.321l-14.742,3.802l0.868,0.826l4.542-0.872
		c-0.083-0.083-0.122-0.083-0.122-0.163c0-0.083,0.04-0.164,0.122-0.164l7.391-1.446c0.083,0,0.372-0.04,0.619-0.208
		c0.205-0.166,0.373-0.29,0.414-0.409c0.125-0.087,0.286-0.332,0.415-0.495c0.078-0.125,0.161-0.249,0.243-0.335
		c0.045-0.078,0.21-0.37,0.292-0.495C29.336,24.361,29.336,24.279,29.296,24.321L29.296,24.321z"/>
	<path fill-rule="evenodd" clip-rule="evenodd" fill="#DB1829" d="M27.354,20.031c0.166-0.087,1.157-0.498,1.361-0.62
		c0.247-0.087,0.871-0.377,1.115-0.496c0.289-0.125,1.033-0.493,1.155-0.541c0.581-0.246,1.239-0.574,1.365-0.658
		c0.038,0,0.082,0,0.082,0.084c-0.082,0.247-0.208,0.622-0.415,1.071c-0.084,0.247-0.249,0.578-0.369,0.784
		c-0.166,0.25-0.331,0.416-0.456,0.538c-0.249,0.245-0.496,0.373-0.703,0.454c-0.167,0.082-0.495,0.203-0.699,0.29
		c-0.046,0-0.869,0.331-1.035,0.37l-14.531,5.119c-0.331,0.127-0.745,0.375-0.745,0.783c0,0.207,0.125,0.456,0.33,0.664l3.674,3.428
		c0,0-1.526,0-1.692,0c-0.041-0.086-0.082-0.249-0.124-0.333c-0.08-0.121-0.123-0.207-0.292-0.371
		c-0.163-0.166-0.285-0.328-0.369-0.369l-1.94-1.944c-0.33-0.326-0.538-0.825-0.538-1.237c0-0.576,0.333-1.117,1.28-1.529
		L27.354,20.031L27.354,20.031z"/>
	<path fill-rule="evenodd" clip-rule="evenodd" fill="#DB1829" d="M28.923,21.968c0.206-0.045,0.577-0.206,0.664-0.206
		c0.119-0.04,0.492-0.163,0.533-0.205c0.288-0.124,0.539-0.206,0.826-0.33c0.041,0,0.083,0.042,0.041,0.081
		c-0.041,0.08-0.207,0.414-0.249,0.497c-0.122,0.246-0.205,0.453-0.33,0.619c-0.122,0.164-0.288,0.413-0.368,0.535
		c-0.167,0.203-0.293,0.33-0.539,0.499c-0.289,0.161-0.538,0.243-0.662,0.29l-10.692,2.887c-0.08,0-0.124,0.081-0.124,0.123
		c0,0.081,0.044,0.125,0.124,0.164l-3.796,0.992l-0.333-0.288c-0.123-0.123-0.166-0.25-0.166-0.371c0-0.248,0.209-0.372,0.579-0.497
		L28.923,21.968L28.923,21.968z"/>
</g>
</svg>
