<?xml version="1.0" encoding="utf-8"?>
<!-- Generator: Adobe Illustrator 16.0.0, SVG Export Plug-In . SVG Version: 6.00 Build 0)  -->
<!DOCTYPE svg PUBLIC "-//W3C//DTD SVG 1.1//EN" "http://www.w3.org/Graphics/SVG/1.1/DTD/svg11.dtd">
<svg version="1.1" id="Capa_1" xmlns="http://www.w3.org/2000/svg" xmlns:xlink="http://www.w3.org/1999/xlink" x="0px" y="0px"
	 width="120px" height="50px" viewBox="0 0 120 50" enable-background="new 0 0 120 50" xml:space="preserve">
<g>
	<path fill="#FFFFFF" d="M82.646,21.969h0.976v-0.554H83.02c-0.071,0-0.126-0.009-0.164-0.026c-0.042-0.015-0.068-0.038-0.082-0.079
		c-0.017-0.036-0.023-0.088-0.023-0.159v-1.719h-0.738v1.851c0,0.14,0.023,0.263,0.071,0.365c0.05,0.097,0.115,0.178,0.209,0.236
		C82.387,21.939,82.504,21.969,82.646,21.969 M80.204,20.906c0.029-0.107,0.058-0.211,0.079-0.31
		c0.033-0.099,0.058-0.198,0.08-0.287c0.024-0.085,0.047-0.161,0.067-0.226c0.021-0.065,0.04-0.109,0.054-0.151
		c0.01,0.042,0.027,0.086,0.05,0.151c0.02,0.064,0.038,0.141,0.06,0.226c0.027,0.089,0.048,0.188,0.072,0.287
		c0.027,0.099,0.05,0.202,0.079,0.31H80.204z M79.215,21.969h0.738c0.014-0.07,0.036-0.151,0.053-0.233
		c0.023-0.088,0.041-0.177,0.063-0.266h0.8c0.024,0.089,0.043,0.178,0.061,0.266c0.02,0.082,0.038,0.163,0.051,0.233h0.792v-0.025
		c-0.026-0.118-0.053-0.215-0.076-0.309c-0.019-0.09-0.044-0.176-0.067-0.257c-0.022-0.083-0.046-0.159-0.069-0.239
		c-0.024-0.082-0.048-0.163-0.074-0.252c-0.033-0.11-0.066-0.227-0.106-0.342c-0.035-0.118-0.08-0.229-0.118-0.345
		c-0.04-0.116-0.075-0.222-0.121-0.326c-0.036-0.1-0.071-0.188-0.104-0.265c-0.032-0.077-0.059-0.139-0.08-0.178h-0.924
		c-0.023,0.039-0.048,0.101-0.081,0.178s-0.068,0.165-0.104,0.265c-0.043,0.104-0.079,0.21-0.122,0.326
		c-0.039,0.115-0.082,0.227-0.111,0.345c-0.045,0.115-0.078,0.231-0.106,0.342c-0.031,0.089-0.054,0.17-0.08,0.252
		c-0.028,0.08-0.048,0.156-0.073,0.239c-0.021,0.081-0.043,0.167-0.067,0.257c-0.023,0.094-0.052,0.19-0.075,0.309V21.969z
		 M78.24,21.969h0.734v-2.537H78.24V21.969z M77.152,21.991h0.162c0.047,0,0.098-0.003,0.154-0.004
		c0.058-0.008,0.109-0.019,0.167-0.025c0.055-0.013,0.108-0.025,0.157-0.039c0.051-0.017,0.088-0.031,0.127-0.049v-0.542h-0.025
		c-0.028,0.01-0.061,0.021-0.108,0.036c-0.043,0.01-0.095,0.021-0.147,0.035c-0.053,0.006-0.112,0.019-0.167,0.029
		c-0.058,0.004-0.107,0.008-0.158,0.008h-0.106c-0.117,0-0.216-0.025-0.299-0.077c-0.081-0.054-0.146-0.123-0.188-0.213
		c-0.043-0.094-0.064-0.198-0.064-0.318V20.54c0-0.115,0.016-0.215,0.053-0.298c0.033-0.09,0.093-0.158,0.167-0.208
		c0.07-0.049,0.166-0.069,0.275-0.072c0.019,0,0.043,0.003,0.067,0.003c0.022,0.002,0.047,0.01,0.07,0.012
		c0.02,0.002,0.038,0.008,0.053,0.009v0.292h0.577v-0.767c-0.043-0.018-0.093-0.032-0.154-0.044
		c-0.058-0.01-0.117-0.022-0.179-0.029c-0.061-0.012-0.129-0.017-0.188-0.023c-0.065-0.005-0.127-0.005-0.189-0.005
		c-0.187-0.003-0.368,0.022-0.523,0.062c-0.157,0.048-0.289,0.116-0.408,0.211c-0.116,0.093-0.203,0.212-0.265,0.359
		c-0.063,0.146-0.098,0.325-0.098,0.528v0.263c0,0.246,0.049,0.457,0.144,0.629c0.093,0.174,0.227,0.308,0.419,0.396
		C76.651,21.949,76.88,21.991,77.152,21.991z M74.885,21.969h0.739v-2.537h-0.739V21.969z M72.905,21.969h0.736v-0.875h0.906V20.54
		h-0.906v-0.209c0-0.075,0.017-0.128,0.041-0.183c0.022-0.052,0.059-0.089,0.105-0.12c0.046-0.026,0.103-0.043,0.172-0.043h0.637
		v-0.554h-0.739c-0.148,0-0.277,0.016-0.397,0.053c-0.114,0.034-0.215,0.089-0.297,0.153c-0.081,0.07-0.147,0.156-0.189,0.265
		c-0.047,0.105-0.07,0.229-0.07,0.375V21.969z M71.427,21.415c-0.097-0.006-0.169-0.02-0.23-0.045
		c-0.059-0.031-0.104-0.075-0.135-0.13c-0.031-0.058-0.058-0.125-0.067-0.197c-0.012-0.083-0.015-0.164-0.015-0.267v-0.154
		c0-0.097,0.003-0.186,0.015-0.262c0.009-0.074,0.036-0.146,0.067-0.199c0.031-0.06,0.076-0.098,0.135-0.127
		c0.061-0.032,0.133-0.049,0.23-0.049c0.098,0,0.174,0.017,0.234,0.049c0.058,0.029,0.104,0.067,0.134,0.127
		c0.029,0.054,0.056,0.125,0.069,0.199c0.006,0.076,0.013,0.165,0.013,0.262v0.154c0,0.103-0.006,0.184-0.013,0.267
		c-0.013,0.072-0.04,0.14-0.069,0.197c-0.031,0.055-0.076,0.099-0.134,0.13C71.601,21.396,71.525,21.409,71.427,21.415z
		 M71.427,21.991c0.262,0,0.48-0.042,0.654-0.142c0.176-0.091,0.311-0.226,0.402-0.409c0.088-0.183,0.127-0.397,0.127-0.664v-0.154
		c0-0.262-0.039-0.479-0.127-0.66c-0.091-0.184-0.226-0.316-0.402-0.416c-0.173-0.089-0.392-0.137-0.654-0.137
		c-0.258,0-0.474,0.048-0.654,0.137c-0.176,0.1-0.308,0.232-0.399,0.416c-0.09,0.181-0.132,0.398-0.132,0.66v0.154
		c0,0.267,0.042,0.481,0.132,0.664c0.091,0.184,0.223,0.318,0.399,0.409C70.953,21.949,71.168,21.991,71.427,21.991z M67.94,21.415
		c-0.093-0.006-0.17-0.02-0.229-0.045c-0.063-0.031-0.106-0.075-0.139-0.13c-0.031-0.058-0.051-0.125-0.063-0.197
		c-0.012-0.083-0.017-0.164-0.017-0.267v-0.154c0-0.097,0.005-0.186,0.017-0.262c0.012-0.074,0.032-0.146,0.063-0.199
		c0.033-0.06,0.076-0.098,0.139-0.127c0.06-0.032,0.137-0.049,0.229-0.049c0.096,0,0.172,0.017,0.231,0.049
		c0.064,0.029,0.105,0.067,0.138,0.127c0.034,0.054,0.053,0.125,0.063,0.199c0.012,0.076,0.019,0.165,0.016,0.262v0.154
		c0.003,0.103-0.004,0.184-0.016,0.267c-0.011,0.072-0.029,0.14-0.063,0.197c-0.033,0.055-0.074,0.099-0.138,0.13
		C68.112,21.396,68.036,21.409,67.94,21.415z M67.94,21.991c0.26,0,0.478-0.042,0.655-0.142c0.177-0.091,0.305-0.226,0.396-0.409
		c0.091-0.183,0.137-0.397,0.137-0.664v-0.154c0-0.262-0.046-0.479-0.137-0.66c-0.091-0.184-0.219-0.316-0.396-0.416
		c-0.177-0.089-0.395-0.137-0.655-0.137c-0.259,0-0.478,0.048-0.654,0.137c-0.176,0.1-0.309,0.232-0.4,0.416
		c-0.087,0.181-0.135,0.398-0.135,0.66v0.154c0,0.267,0.047,0.481,0.135,0.664c0.091,0.184,0.224,0.318,0.4,0.409
		C67.462,21.949,67.682,21.991,67.94,21.991z M65.726,21.969h0.736v-2.537h-0.736V21.969z M64.007,20.7v-0.715h0.266
		c0.086,0,0.16,0.015,0.213,0.033c0.056,0.022,0.09,0.059,0.116,0.104c0.026,0.053,0.043,0.12,0.041,0.209
		c0.002,0.094-0.015,0.167-0.032,0.221c-0.025,0.055-0.066,0.091-0.118,0.112c-0.056,0.023-0.128,0.036-0.22,0.036H64.007z
		 M63.269,21.969h0.738v-0.742h0.32c0.044,0.029,0.091,0.07,0.143,0.131c0.047,0.052,0.092,0.114,0.141,0.185
		c0.037,0.069,0.079,0.144,0.113,0.217c0.031,0.073,0.06,0.143,0.077,0.21h0.738v-0.025c-0.024-0.086-0.055-0.17-0.094-0.258
		c-0.043-0.087-0.086-0.178-0.134-0.259c-0.047-0.085-0.097-0.159-0.153-0.231c-0.06-0.065-0.11-0.119-0.16-0.163
		c0.091-0.06,0.163-0.127,0.218-0.193c0.059-0.072,0.102-0.151,0.126-0.236c0.03-0.085,0.039-0.183,0.035-0.297
		c0-0.209-0.039-0.377-0.121-0.504c-0.081-0.128-0.195-0.219-0.343-0.279c-0.151-0.063-0.326-0.091-0.536-0.091h-1.108V21.969z
		 M61.461,20.906c0.029-0.107,0.056-0.211,0.083-0.31s0.052-0.198,0.078-0.287c0.021-0.085,0.042-0.161,0.065-0.226
		c0.021-0.065,0.037-0.109,0.051-0.151c0.014,0.042,0.029,0.086,0.051,0.151c0.015,0.064,0.037,0.141,0.064,0.226
		c0.021,0.089,0.047,0.188,0.07,0.287c0.025,0.099,0.051,0.202,0.073,0.31H61.461z M60.474,21.969h0.734
		c0.019-0.07,0.037-0.151,0.054-0.233c0.02-0.088,0.043-0.177,0.061-0.266h0.805c0.022,0.089,0.041,0.178,0.057,0.266
		c0.022,0.082,0.039,0.163,0.056,0.233h0.789v-0.025c-0.027-0.118-0.05-0.215-0.075-0.309c-0.023-0.09-0.048-0.176-0.07-0.257
		c-0.021-0.083-0.045-0.159-0.068-0.239c-0.024-0.082-0.048-0.163-0.073-0.252c-0.036-0.11-0.066-0.227-0.103-0.342
		c-0.042-0.118-0.081-0.229-0.123-0.345c-0.039-0.116-0.079-0.222-0.118-0.326c-0.039-0.1-0.074-0.188-0.108-0.265
		c-0.031-0.077-0.061-0.139-0.084-0.178h-0.916c-0.022,0.039-0.049,0.101-0.081,0.178s-0.066,0.165-0.105,0.265
		c-0.038,0.104-0.081,0.21-0.119,0.326c-0.04,0.115-0.08,0.227-0.116,0.345c-0.043,0.115-0.075,0.231-0.108,0.342
		c-0.024,0.089-0.05,0.17-0.075,0.252c-0.024,0.08-0.049,0.156-0.073,0.239c-0.024,0.081-0.043,0.167-0.067,0.257
		c-0.023,0.094-0.05,0.19-0.073,0.309V21.969z M57.964,21.969h0.734v-1.321l0.901,1.321h0.637v-2.537h-0.739v1.322l-0.9-1.322
		h-0.634V21.969z M56.487,21.415c-0.1-0.006-0.173-0.02-0.234-0.045c-0.058-0.031-0.103-0.075-0.135-0.13
		c-0.036-0.058-0.058-0.125-0.065-0.197c-0.011-0.083-0.019-0.164-0.019-0.267v-0.154c0-0.097,0.007-0.186,0.019-0.262
		c0.008-0.074,0.029-0.146,0.065-0.199c0.033-0.06,0.077-0.098,0.135-0.127c0.061-0.032,0.134-0.049,0.234-0.049
		c0.092,0,0.167,0.017,0.226,0.049c0.063,0.029,0.108,0.067,0.14,0.127c0.031,0.054,0.052,0.125,0.063,0.199
		c0.013,0.076,0.021,0.165,0.021,0.262v0.154c0,0.103-0.007,0.184-0.021,0.267c-0.011,0.072-0.032,0.14-0.063,0.197
		c-0.032,0.055-0.077,0.099-0.14,0.13C56.655,21.396,56.579,21.409,56.487,21.415z M56.487,21.991c0.253,0,0.474-0.042,0.648-0.142
		c0.18-0.091,0.313-0.226,0.4-0.409c0.092-0.183,0.135-0.397,0.135-0.664v-0.154c0-0.262-0.043-0.479-0.135-0.66
		c-0.087-0.184-0.22-0.316-0.4-0.416c-0.174-0.089-0.395-0.137-0.648-0.137c-0.262,0-0.481,0.048-0.658,0.137
		c-0.175,0.1-0.311,0.232-0.397,0.416c-0.095,0.181-0.138,0.398-0.138,0.66v0.154c0,0.267,0.043,0.481,0.138,0.664
		c0.086,0.184,0.222,0.318,0.397,0.409C56.006,21.949,56.225,21.991,56.487,21.991z M54.268,21.969h0.736v-2.537h-0.736V21.969z
		 M52.762,21.991h0.134c0.11,0,0.216-0.003,0.319-0.022c0.103-0.02,0.198-0.053,0.283-0.087c0.086-0.043,0.163-0.092,0.228-0.153
		c0.062-0.062,0.11-0.134,0.146-0.221c0.038-0.086,0.056-0.183,0.056-0.295c0-0.146-0.024-0.275-0.07-0.374
		c-0.047-0.106-0.11-0.191-0.197-0.254c-0.086-0.067-0.192-0.113-0.318-0.148l-0.342-0.092c-0.036-0.007-0.065-0.021-0.102-0.037
		c-0.033-0.016-0.059-0.039-0.075-0.065c-0.021-0.029-0.031-0.064-0.031-0.111c0-0.034,0.006-0.064,0.024-0.09
		c0.019-0.022,0.039-0.036,0.069-0.053c0.029-0.008,0.063-0.014,0.098-0.021c0.034-0.002,0.07-0.005,0.105-0.005h0.07
		c0.033,0,0.07,0.003,0.113,0.003c0.042,0.002,0.086,0.01,0.136,0.014c0.051,0.002,0.095,0.007,0.144,0.015
		c0.044,0.009,0.09,0.015,0.13,0.025c0.036,0.006,0.073,0.016,0.1,0.022h0.022v-0.543c-0.038-0.011-0.088-0.027-0.144-0.033
		c-0.06-0.014-0.12-0.021-0.179-0.033c-0.068-0.006-0.127-0.011-0.189-0.018c-0.056-0.005-0.111-0.005-0.162-0.005h-0.05
		c-0.109,0-0.209,0.005-0.308,0.022c-0.104,0.016-0.199,0.039-0.284,0.079c-0.083,0.035-0.161,0.081-0.227,0.137
		c-0.069,0.061-0.116,0.127-0.154,0.206c-0.036,0.083-0.055,0.171-0.055,0.277c0,0.111,0.012,0.207,0.04,0.289
		c0.026,0.091,0.062,0.158,0.115,0.213c0.048,0.067,0.103,0.119,0.167,0.158c0.058,0.041,0.128,0.07,0.202,0.096l0.345,0.104
		c0.047,0.017,0.09,0.028,0.132,0.046c0.04,0.015,0.074,0.035,0.092,0.068c0.026,0.025,0.041,0.065,0.041,0.108
		c0,0.061-0.019,0.107-0.047,0.145c-0.034,0.031-0.073,0.052-0.123,0.064c-0.053,0.015-0.111,0.021-0.175,0.019h-0.08
		c-0.045,0-0.098-0.004-0.16-0.008c-0.059-0.006-0.122-0.014-0.184-0.026c-0.067-0.011-0.128-0.025-0.187-0.036
		c-0.058-0.013-0.109-0.028-0.152-0.038h-0.026v0.556c0.043,0.014,0.102,0.028,0.162,0.041c0.063,0.011,0.126,0.022,0.191,0.033
		c0.071,0.007,0.135,0.018,0.193,0.026C52.665,21.988,52.717,21.991,52.762,21.991z M50.522,21.969h1.189v-0.554h-0.817
		c-0.068,0-0.125-0.009-0.164-0.026c-0.039-0.015-0.067-0.038-0.082-0.079c-0.017-0.036-0.024-0.088-0.024-0.159v-0.187h0.929v-0.56
		h-0.929v-0.419h1.056v-0.554h-1.789v1.851c0,0.14,0.021,0.263,0.068,0.365c0.051,0.097,0.12,0.178,0.211,0.236
		C50.262,21.939,50.378,21.969,50.522,21.969z M48.805,21.991h0.159c0.045,0,0.099-0.003,0.151-0.004
		c0.058-0.008,0.112-0.019,0.17-0.025c0.054-0.013,0.106-0.025,0.159-0.039c0.047-0.017,0.089-0.031,0.128-0.049v-0.542h-0.028
		c-0.028,0.01-0.06,0.021-0.106,0.036c-0.046,0.01-0.095,0.021-0.151,0.035c-0.057,0.006-0.107,0.019-0.167,0.029
		c-0.055,0.004-0.107,0.008-0.156,0.008h-0.106c-0.118,0-0.214-0.025-0.302-0.077c-0.083-0.054-0.141-0.123-0.185-0.213
		c-0.042-0.094-0.064-0.198-0.064-0.318V20.54c0-0.115,0.016-0.215,0.054-0.298c0.033-0.09,0.086-0.158,0.166-0.208
		c0.071-0.049,0.165-0.069,0.278-0.072c0.019,0,0.037,0.003,0.063,0.003c0.023,0.002,0.043,0.01,0.07,0.012
		c0.023,0.002,0.036,0.008,0.053,0.009v0.292h0.582v-0.767c-0.05-0.018-0.101-0.032-0.158-0.044
		c-0.053-0.01-0.117-0.022-0.181-0.029c-0.062-0.012-0.126-0.017-0.191-0.023c-0.061-0.005-0.125-0.005-0.186-0.005
		c-0.193-0.003-0.366,0.022-0.527,0.062c-0.154,0.048-0.291,0.116-0.405,0.211c-0.112,0.093-0.203,0.212-0.266,0.359
		c-0.064,0.146-0.094,0.325-0.096,0.528v0.263c0,0.246,0.048,0.457,0.141,0.629c0.093,0.174,0.229,0.308,0.416,0.396
		C48.302,21.949,48.529,21.991,48.805,21.991z M45.007,21.969h0.736v-1.321l0.902,1.321h0.634v-2.537h-0.74v1.322l-0.901-1.322
		h-0.632V21.969z M43.53,21.415c-0.097-0.006-0.175-0.02-0.235-0.045c-0.06-0.031-0.104-0.075-0.134-0.13
		c-0.033-0.058-0.056-0.125-0.066-0.197c-0.011-0.083-0.019-0.164-0.019-0.267v-0.154c0-0.097,0.008-0.186,0.019-0.262
		c0.01-0.074,0.033-0.146,0.066-0.199c0.03-0.06,0.074-0.098,0.134-0.127c0.06-0.032,0.138-0.049,0.235-0.049
		c0.092,0,0.171,0.017,0.229,0.049c0.06,0.029,0.104,0.067,0.133,0.127c0.036,0.054,0.055,0.125,0.067,0.199
		c0.013,0.076,0.016,0.165,0.016,0.262v0.154c0,0.103-0.003,0.184-0.016,0.267c-0.013,0.072-0.032,0.14-0.067,0.197
		c-0.029,0.055-0.073,0.099-0.133,0.13C43.701,21.396,43.622,21.409,43.53,21.415z M43.53,21.991c0.254,0,0.475-0.042,0.647-0.142
		c0.177-0.091,0.312-0.226,0.401-0.409c0.091-0.183,0.134-0.397,0.134-0.664v-0.154c0-0.262-0.043-0.479-0.134-0.66
		c-0.09-0.184-0.224-0.316-0.401-0.416c-0.172-0.089-0.393-0.137-0.647-0.137c-0.261,0-0.482,0.048-0.657,0.137
		c-0.179,0.1-0.31,0.232-0.4,0.416c-0.089,0.181-0.133,0.398-0.133,0.66v0.154c0,0.267,0.044,0.481,0.133,0.664
		c0.09,0.184,0.221,0.318,0.4,0.409C43.047,21.949,43.269,21.991,43.53,21.991z M41.334,21.991h0.163
		c0.042,0,0.097-0.003,0.148-0.004c0.056-0.008,0.11-0.019,0.165-0.025c0.058-0.013,0.11-0.025,0.161-0.039
		c0.049-0.017,0.094-0.031,0.129-0.049v-0.542h-0.026c-0.027,0.01-0.063,0.021-0.107,0.036c-0.047,0.01-0.098,0.021-0.151,0.035
		c-0.06,0.006-0.11,0.019-0.166,0.029c-0.057,0.004-0.112,0.008-0.153,0.008h-0.106c-0.118,0-0.221-0.025-0.301-0.077
		c-0.086-0.054-0.146-0.123-0.189-0.213c-0.042-0.094-0.067-0.198-0.067-0.318V20.54c0-0.115,0.02-0.215,0.055-0.298
		c0.036-0.09,0.089-0.158,0.164-0.208c0.077-0.049,0.171-0.069,0.283-0.072c0.021,0,0.038,0.003,0.065,0.003
		c0.022,0.002,0.045,0.01,0.067,0.012c0.023,0.002,0.04,0.008,0.056,0.009v0.292h0.579v-0.767c-0.045-0.018-0.102-0.032-0.156-0.044
		c-0.057-0.01-0.118-0.022-0.181-0.029c-0.063-0.012-0.125-0.017-0.188-0.023c-0.069-0.005-0.127-0.005-0.185-0.005
		c-0.194-0.003-0.367,0.022-0.526,0.062c-0.155,0.048-0.293,0.116-0.408,0.211c-0.115,0.093-0.204,0.212-0.269,0.359
		c-0.061,0.146-0.093,0.325-0.094,0.528v0.263c0,0.246,0.051,0.457,0.145,0.629c0.088,0.174,0.229,0.308,0.409,0.396
		C40.833,21.949,41.062,21.991,41.334,21.991z"/>
	<polygon fill-rule="evenodd" clip-rule="evenodd" fill="#FFFFFF" points="29.641,32.005 26.445,32.005 26.445,20.825 
		29.641,20.825 29.641,25.142 33.898,20.825 37.956,20.825 33.706,24.989 37.921,32.005 34.288,32.005 31.403,27.036 29.641,28.749 
			"/>
	<path fill-rule="evenodd" clip-rule="evenodd" fill="#FFFFFF" d="M43.386,28.168c-0.644,0.674-2.479,0.422-2.479,1.659
		c0,0.58,0.504,0.926,1.002,0.926c0.754,0,1.354-0.521,1.383-1.051L43.386,28.168z M38.247,26.743
		c0.317-1.963,2.022-2.412,3.793-2.412c3.225,0,4.119,1.204,4.119,3.084v2.664c0,0.812,0.107,1.482,0.52,1.926l0,0h-3.046
		c-0.154-0.251-0.183-0.595-0.218-1.036h-0.028c-0.624,1.002-1.879,1.348-2.591,1.348c-0.979,0-2.83-0.374-2.83-2.301
		c0-1.646,0.972-2.43,3.472-2.43c1.385,0,1.965-0.374,1.965-0.872c0-0.69-0.52-0.913-1.115-0.913c-0.626,0-1.129,0.253-1.159,0.942
		H38.247z"/>
	<polygon fill-rule="evenodd" clip-rule="evenodd" fill="#FFFFFF" points="56.583,29.25 56.618,29.25 57.555,24.641 60.439,24.641 
		58.215,32.005 54.98,32.005 53.579,27.415 53.608,27.388 53.608,27.434 53.579,27.434 52.197,32.005 48.973,32.005 46.749,24.641 
		49.637,24.641 50.572,29.25 50.604,29.25 52.056,24.641 55.129,24.641 	"/>
	<path fill-rule="evenodd" clip-rule="evenodd" fill="#FFFFFF" d="M65.578,28.168c-0.635,0.674-2.462,0.422-2.462,1.659
		c0,0.58,0.498,0.926,0.997,0.926c0.75,0,1.342-0.521,1.378-1.051L65.578,28.168z M60.449,26.743
		c0.313-1.963,2.024-2.412,3.785-2.412c3.229,0,4.124,1.204,4.124,3.084v2.664c0,0.812,0.108,1.482,0.511,1.926l0,0h-3.036
		c-0.157-0.251-0.188-0.595-0.221-1.036h-0.033c-0.625,1.002-1.873,1.348-2.574,1.348c-0.989,0-2.833-0.374-2.833-2.301
		c0-1.646,0.972-2.43,3.475-2.43c1.371,0,1.955-0.374,1.955-0.872c0-0.69-0.524-0.913-1.116-0.913c-0.621,0-1.122,0.253-1.153,0.942
		l0,0H60.449z"/>
	<path fill-rule="evenodd" clip-rule="evenodd" fill="#FFFFFF" d="M71.752,29.979c0.041,0.318,0.155,0.57,0.322,0.742
		c0.191,0.159,0.461,0.247,0.802,0.247c0.671,0,1.13-0.278,1.13-0.877c0-1.455-4.92,0-4.92-3.004c0-1.976,1.727-2.757,4.102-2.757
		c1.628,0,3.384,0.5,3.48,2.412h-2.792c0.033-0.349-0.043-0.602-0.218-0.769c-0.17-0.189-0.424-0.28-0.764-0.301
		c-0.407,0-1.023,0.163-1.023,0.721c0,1.583,4.969,0.111,4.969,3.297c0,2.092-2.302,2.625-4.088,2.625
		c-1.489,0-3.792-0.455-3.792-2.337l0,0H71.752z"/>
	<path fill-rule="evenodd" clip-rule="evenodd" fill="#FFFFFF" d="M82.569,28.168c-0.639,0.674-2.473,0.422-2.473,1.659
		c0,0.58,0.498,0.926,1.002,0.926c0.747,0,1.338-0.521,1.378-1.051L82.569,28.168z M77.433,26.743
		c0.31-1.963,2.023-2.412,3.785-2.412c3.234,0,4.125,1.204,4.125,3.084l0,0v2.664c0,0.812,0.106,1.482,0.512,1.926l0,0h-3.036
		c-0.16-0.251-0.191-0.595-0.221-1.036h-0.029c-0.627,1.002-1.877,1.348-2.583,1.348c-0.992,0-2.835-0.374-2.835-2.301
		c0-1.646,0.973-2.43,3.475-2.43c1.379,0,1.964-0.374,1.964-0.872c0-0.69-0.521-0.913-1.114-0.913c-0.629,0-1.131,0.253-1.159,0.942
		l0,0H77.433z"/>
	<polygon fill-rule="evenodd" clip-rule="evenodd" fill="#FFFFFF" points="86.388,32.005 86.388,20.825 89.392,20.825 
		89.392,26.806 91.333,24.641 94.938,24.641 92.415,27.212 95.203,32.005 91.824,32.005 90.324,29.12 89.381,30.033 89.381,32.005 	
		"/>
	<path fill-rule="evenodd" clip-rule="evenodd" fill="#FFFFFF" d="M95.581,23.52v-2.694h3.005v2.694H95.581z M95.581,24.641h3.005
		v7.364h-3.005V24.641z"/>
</g>
</svg>
