<?xml version="1.0" encoding="utf-8"?>
<!-- Generator: Adobe Illustrator 16.0.0, SVG Export Plug-In . SVG Version: 6.00 Build 0)  -->
<!DOCTYPE svg PUBLIC "-//W3C//DTD SVG 1.1//EN" "http://www.w3.org/Graphics/SVG/1.1/DTD/svg11.dtd">
<svg version="1.1" id="Capa_1" xmlns="http://www.w3.org/2000/svg" xmlns:xlink="http://www.w3.org/1999/xlink" x="0px" y="0px"
	 width="120px" height="50px" viewBox="0 0 120 50" enable-background="new 0 0 120 50" xml:space="preserve">
<path fill-rule="evenodd" clip-rule="evenodd" fill="#0082F3" d="M81.619,25.094l1.52-2.965l1.403,2.965H81.619z M48.999,18.523
	c3.026,0,5.495,2.621,5.495,5.838c0,3.209-2.469,5.833-5.495,5.833c-3.028,0-5.498-2.624-5.498-5.833
	C43.501,21.145,45.971,18.523,48.999,18.523z M28.775,30.383V18.901h4.025l2.589,6.074l2.295-6.168h3.881v1.806
	c0,0,1.944-4.674,7.758-4.652c5.296,0.017,7.113,4.171,7.113,4.171v-1.608h3.235l3.948,5.883v-6.171h5.127
	c2.361,0,4.701,0.613,6.077,3.514v-3.705h2.657v8.643l4.528-8.734h2.445l3.658,8.734v-8.83h3.159v9.302h2.876v2.566h-7.33
	l-1.433-2.472h-4.551l-1.413,2.756h-4.526v-3.705c0,0-0.86,1.899-3.015,3.039c-2.156,1.14-4.459,0.759-4.459,0.759v-2.753
	c0,0,5.103,0.38,5.103-3.322c0-3.701-4.882-3.228-4.882-3.228h-0.868v9.405h-3.308l-4.088-6.178v6.269h-2.942v-2.092
	c0,0-2.081,4.558-7.331,4.558c-5.246,0-7.47-4.363-7.47-4.363v1.985H38.76v-5.028l-2.3,5.128h-2.295l-2.37-5.507v5.316
	L28.775,30.383z"/>
</svg>
