<?xml version="1.0" encoding="utf-8"?>
<!-- Generator: Adobe Illustrator 16.0.0, SVG Export Plug-In . SVG Version: 6.00 Build 0)  -->
<!DOCTYPE svg PUBLIC "-//W3C//DTD SVG 1.1//EN" "http://www.w3.org/Graphics/SVG/1.1/DTD/svg11.dtd">
<svg version="1.1" id="Capa_1" xmlns="http://www.w3.org/2000/svg" xmlns:xlink="http://www.w3.org/1999/xlink" x="0px" y="0px"
	 width="120px" height="50px" viewBox="0 0 120 50" enable-background="new 0 0 120 50" xml:space="preserve">
<g>
	<path fill-rule="evenodd" clip-rule="evenodd" fill="#0456FB" d="M75.315,23.125c-0.902,0-1.927,0.898-2.285,2.002
		c-0.357,1.109,0.08,2.006,0.981,2.006s1.929-0.896,2.286-2.006C76.653,24.023,76.215,23.125,75.315,23.125z"/>
	<path fill-rule="evenodd" clip-rule="evenodd" fill="#0456FB" d="M61.264,23.125c-0.901,0-1.924,0.898-2.283,2.002
		c-0.355,1.109,0.08,2.006,0.982,2.006c0.9,0,1.923-0.896,2.287-2.006C62.609,24.023,62.167,23.125,61.264,23.125z"/>
	<path fill-rule="evenodd" clip-rule="evenodd" fill="#0456FB" d="M102.131,17.734h-0.008h-0.015c-0.739,0-1.482,0-2.226,0
		c-0.631,0-1.108,0.578-1.294,1.129l-0.002,0.006l-0.004,0.004c-0.14,0.459-0.277,0.918-0.411,1.375h-0.012
		c-1.091,0-2.181,0-3.273,0c-1.453,0-2.785,0.48-3.823,1.455c-0.562-1.043-1.723-1.457-2.944-1.457c-2.535,0-5.072,0-7.61,0
		c-0.587-0.006-1.093,0.633-1.289,1.137L79.215,21.4l-0.006,0.014c-0.027,0.1-0.061,0.193-0.083,0.289
		c-0.026-0.031-0.048-0.061-0.074-0.092c-0.835-1.055-2.11-1.559-3.438-1.559c-1.153,0-2.283,0.365-3.258,0.977
		c-0.275-0.406-0.758-0.756-1.237-0.781h-0.015h-0.008c-0.04,0-0.084,0-0.123,0l0.167-0.533l0.003-0.006
		c0.217-0.75-0.46-1.971-1.285-1.975c-0.604,0-1.207,0-1.813,0c-0.657,0.004-1.217,0.465-1.447,1.066l-0.003,0.014l-0.006,0.012
		c-0.133,0.461-0.265,0.922-0.399,1.385h-0.682h-0.014c-0.305,0.029-0.488,0.16-0.665,0.393c-0.13,0.137-0.223,0.316-0.298,0.502
		c-0.809-0.713-1.873-1.053-2.967-1.053c-1.195,0-2.367,0.395-3.371,1.047l0.461-1.57c0.231-0.738-0.355-1.725-1.168-1.717
		c-1.014,0-2.023,0-3.04,0h-0.001h-0.008c-0.577,0.02-0.924,0.301-1.243,0.754h-0.006v0.008c-0.685,1.047-1.366,2.098-2.052,3.146
		l-0.104-2.459v-0.006c-0.059-0.77-0.338-1.428-1.224-1.436c-1.069-0.006-2.14-0.012-3.205-0.021h-0.012h-0.005
		c-0.575,0.027-0.991,0.34-1.171,0.883l-0.003,0.01c-0.912,3.035-1.825,6.078-2.742,9.119l-0.005,0.006
		c-0.22,0.811,0.07,2.021,1.081,2.051c0.784,0.016,1.57,0.023,2.352,0.047c0.496,0.008,0.772-0.211,0.936-0.6
		c0.158,0.344,0.493,0.615,0.886,0.596c0.893,0,1.788,0,2.686,0h0.011h0.01c0.398-0.027,0.613-0.197,0.816-0.527
		c0.006-0.02,0.017-0.033,0.026-0.047l0.004,0.008l0.007,0.02c0.155,0.406,0.535,0.58,0.952,0.584c0.746,0,1.489,0,2.234,0h0.009
		h0.008c0.533-0.025,0.967-0.398,1.181-0.869l0.011-0.025l0.008-0.02c0.049-0.162,0.097-0.332,0.144-0.498
		c0.028,0.047,0.063,0.092,0.096,0.133c0.839,1.057,2.11,1.563,3.438,1.563c1.783,0,3.519-0.885,4.715-2.195
		c0.119,0.484,0.373,0.93,0.783,1.281c0.413,0.359,0.994,0.619,1.539,0.666l0.058,0.008h2.351c0.595-0.01,1.082-0.465,1.299-0.996
		l0.01-0.02l0.007-0.025c0.008-0.027,0.015-0.053,0.021-0.078c0.836,0.918,2.025,1.359,3.271,1.359c1.362,0,2.699-0.521,3.784-1.346
		c0.233,0.518,0.559,1.025,1.18,1.051h0.01h0.008c0.689,0,1.379,0,2.071,0h0.01h0.012c0.383-0.025,0.753-0.217,0.938-0.553
		c0.149,0.264,0.434,0.477,0.746,0.5h0.009h0.015c0.624,0,1.25,0,1.873,0c0.474,0.031,0.9-0.23,1.184-0.594
		c0.051-0.051,0.097-0.107,0.145-0.162l0.096,0.377l0.048,0.057c0.179,0.234,0.446,0.314,0.729,0.322h0.012c0.737,0,1.476,0,2.218,0
		c0.575-0.006,0.91-0.371,1.149-0.855l0.017-0.025l0.006-0.027c0.011-0.025,0.018-0.057,0.025-0.082
		c0.681,0.771,1.718,1.055,2.793,1.055c1.092,0,2.188,0,3.276,0h3.039c0.676,0.01,1.241-0.404,1.492-1.029l0.006-0.014l0.006-0.02
		c0.919-3.096,1.842-6.195,2.764-9.297l0.006-0.014l0.005-0.006C103.456,18.814,102.971,17.787,102.131,17.734z M54.657,28.674
		h-2.273l2.035-6.148l-3.832,6.105h-2.516l-0.28-6.268l-1.677,6.268l-2.353-0.039l2.872-9.537l3.114,0.035l0.278,6.668l4.353-6.668
		h3.073L54.657,28.674z M64.466,25.139c-0.552,2.105-2.749,3.811-4.905,3.811c-2.154,0-3.453-1.705-2.9-3.811
		c0.553-2.104,2.748-3.811,4.904-3.811S65.021,23.035,64.466,25.139z M68.706,23.244l-0.88,3.111c0,0-0.236,0.559,0.361,0.559
		c0.599,0,1.317,0.039,1.317,0.039l-0.438,1.758h-2.357c0,0-1.795-0.16-1.076-2.355c0.718-2.197,0.956-3.152,0.956-3.152h-1.316
		c0,0,0.438-1.678,0.477-1.717h1.399l0.721-2.475h2.151l-0.8,2.514h1.918l-0.438,1.719H68.706z M73.614,28.949
		c-2.159,0-3.459-1.705-2.906-3.811c0.555-2.104,2.748-3.811,4.906-3.811c2.155,0,3.455,1.707,2.906,3.811
		C77.962,27.244,75.769,28.949,73.614,28.949z M90.007,24.051c-0.131,0.488-1.358,4.555-1.358,4.555h-2.251
		c0,0,1.026-3.303,1.279-4.17c0.247-0.859,0-1.08-0.665-1.08c-0.669,0-0.838,0-0.838,0l-1.605,5.25h-2.226l1.638-5.25h-1.806
		l-1.607,5.303H78.4l2.109-7.137c0,0,5.083,0,7.61,0S90.14,23.561,90.007,24.051z M93.449,27.035c0.961,0,2.954,0,2.954,0
		l-0.438,1.639c0,0-2.315,0-3.276,0c-0.955,0-2.792-0.199-2.191-3.234c0.597-3.035,2.713-3.914,4.39-3.914c1.678,0,3.273,0,3.273,0
		l-0.52,1.797c0,0-1.676,0-2.793,0s-1.557,0.998-1.557,0.998h4.031l-0.521,1.678h-4.069C92.733,25.998,92.491,27.035,93.449,27.035z
		 M99.238,28.674h-2.271l2.912-9.662h2.229L99.238,28.674z"/>
	<g>
		<path fill-rule="evenodd" clip-rule="evenodd" fill="#0456FB" d="M22.87,29.826c-0.584,0-1.176,0-1.764,0
			c-0.409,0-0.573-0.322-0.484-0.686v-0.01l0.006-0.012c0.984-3.33,2.054-6.625,3.159-9.918c-0.242,0.023-0.377,0.139-0.467,0.402
			c-1.13,3.365-2.226,6.736-3.233,10.148l-0.003,0.008l-0.005,0.008c-0.088,0.371,0.076,0.691,0.487,0.691c0.587,0,1.175,0,1.765,0
			c0.301,0,0.464-0.088,0.603-0.357c0.059-0.1,0.116-0.203,0.178-0.307C23.038,29.814,22.962,29.826,22.87,29.826z"/>
		<path fill-rule="evenodd" clip-rule="evenodd" fill="#0456FB" d="M26.453,21.646c0.15-0.254,0.304-0.496,0.456-0.74
			c0.17-0.277,0.417-0.674,0.703-1.063c-0.402,0.406-0.762,0.93-1.028,1.344L26.453,21.646z"/>
		<path fill-rule="evenodd" clip-rule="evenodd" fill="#0456FB" d="M30.637,21.865c0.15-0.27,0.304-0.537,0.457-0.805
			c0.176-0.311,0.466-0.805,0.82-1.275c-0.429,0.426-0.815,0.996-1.102,1.457C30.758,21.455,30.697,21.666,30.637,21.865z"/>
		<path fill-rule="evenodd" clip-rule="evenodd" fill="#0456FB" d="M29.952,29.877h-0.01c-0.594-0.01-0.99-0.475-0.779-1.047
			l1.034-3.32c-0.234,0.404-0.461,0.807-0.695,1.211c-0.013,0.029-0.033,0.043-0.048,0.064l-0.834,2.676
			c-0.211,0.578,0.19,1.035,0.78,1.047h0.01c1.915,0,3.827,0,5.745,0h0.307l0.207-0.631C33.762,29.877,31.858,29.877,29.952,29.877z
			"/>
		<path fill-rule="evenodd" clip-rule="evenodd" fill="#0456FB" d="M28.966,27.35c0.062-0.111,0.123-0.225,0.187-0.334
			c-0.086,0.035-0.174,0.061-0.264,0.059c-0.716,0.002-1.435,0.006-2.142,0.006c-0.487,0.006-0.745-0.461-0.635-0.908l0.002-0.01
			l0.602-2.238c-0.224,0.344-0.441,0.695-0.654,1.049l-0.488,1.82l-0.003,0.01c-0.111,0.445,0.147,0.912,0.633,0.906
			c0.715-0.004,1.429-0.006,2.139-0.006C28.596,27.705,28.836,27.566,28.966,27.35z"/>
	</g>
	<path fill-rule="evenodd" clip-rule="evenodd" fill="#0456FB" d="M24.434,18.986c0.729,0,1.457,0,2.186,0
		c0.084,0.004,0.123,0.068,0.097,0.145l-1.646,5.879c0,0,1.28-2.402,2.198-3.879c0.919-1.482,1.583-2.145,2.094-2.145
		c0.513,0,1.274,0.049,1.274,0.049s0.309,0.203,0,1.275c-0.306,1.072-1.429,5.059-1.429,5.059s1.388-2.568,2.255-4.102
		c0.871-1.529,1.629-2.281,2.086-2.281c0.459,0,1.225,0.049,1.225,0.049s0.724,0.307,0.261,1.381
		c-0.912,2.039-2.564,7.965-2.558,7.965h3.572l-0.354,1.068c-1.916,0-3.831,0-5.744,0c-0.341-0.002-0.493-0.207-0.389-0.482
		l2.198-7.072c-0.877,1.535-1.75,3.076-2.624,4.611c-0.051,0.082-0.147,0.143-0.247,0.139c-0.789,0-1.359,0.004-2.149,0.01
		c-0.158,0.004-0.269-0.158-0.217-0.379l1.208-4.484c-1.541,1.867-3.287,5.107-4.634,7.48c-0.066,0.125-0.081,0.131-0.229,0.131
		c-0.596,0-1.167,0-1.764,0c-0.114,0-0.095-0.063-0.071-0.16c1.079-3.631,2.048-6.611,3.231-10.133
		C24.309,18.979,24.311,18.986,24.434,18.986"/>
	<path fill-rule="evenodd" clip-rule="evenodd" fill="#0456FB" d="M28.234,14.578c5.755,0,10.425,4.666,10.425,10.424
		c0,5.76-4.67,10.424-10.425,10.424c-5.759,0-10.427-4.664-10.427-10.424C17.807,19.244,22.475,14.578,28.234,14.578 M28.234,13.445
		c6.378,0,11.558,5.178,11.558,11.557c0,6.377-5.18,11.553-11.558,11.553c-6.38,0-11.552-5.176-11.552-11.553
		C16.682,18.623,21.854,13.445,28.234,13.445z"/>
</g>
</svg>
