<?xml version="1.0" encoding="utf-8"?>
<!-- Generator: Adobe Illustrator 16.0.0, SVG Export Plug-In . SVG Version: 6.00 Build 0)  -->
<!DOCTYPE svg PUBLIC "-//W3C//DTD SVG 1.1//EN" "http://www.w3.org/Graphics/SVG/1.1/DTD/svg11.dtd">
<svg version="1.1" id="Capa_1" xmlns="http://www.w3.org/2000/svg" xmlns:xlink="http://www.w3.org/1999/xlink" x="0px" y="0px"
	 width="145.334px" height="106px" viewBox="0 0 145.334 106" enable-background="new 0 0 145.334 106" xml:space="preserve">
<g>
	<path fill="#000E8F" d="M142.409,50.124c0-25.014-31.079-45.405-69.418-45.405c-38.337,0-69.415,20.392-69.415,45.405
		c0,0.646-0.008,2.432-0.008,2.658c0,26.536,27.164,48.028,69.414,48.028c42.512,0,69.427-21.486,69.427-48.023
		C142.409,51.859,142.409,51.326,142.409,50.124z"/>
	<ellipse fill="#FFC500" cx="73.005" cy="50.101" rx="66.746" ry="42.699"/>
	<g>
		<path fill="#FFFFFF" d="M50.841,36.629c-0.035,0.067-0.701,0.756-0.269,1.31c1.054,1.346,4.307,2.117,7.597,1.38
			c1.959-0.44,4.47-2.438,6.902-4.367c2.636-2.095,5.25-4.191,7.88-5.025c2.783-0.886,4.566-0.506,5.745-0.149
			c1.293,0.386,2.813,1.236,5.237,3.056c4.567,3.434,22.932,19.463,26.104,22.234c2.556-1.154,13.913-6.044,29.347-9.445
			c-1.341-8.229-6.346-15.756-13.937-21.92c-10.579,4.443-23.509,6.762-36.151,0.587c-0.064-0.026-6.907-3.265-13.656-3.105
			c-10.031,0.232-14.377,4.574-18.976,9.17L50.841,36.629z"/>
		<path fill="#FFFFFF" d="M109.292,56.81c-0.215-0.191-21.593-18.897-26.437-22.538c-2.803-2.102-4.361-2.638-5.998-2.847
			c-0.853-0.11-2.029,0.048-2.853,0.273c-2.253,0.613-5.199,2.583-7.815,4.656c-2.708,2.157-5.261,4.188-7.629,4.719
			c-3.028,0.679-6.724-0.122-8.411-1.263c-0.684-0.459-1.164-0.99-1.396-1.53c-0.623-1.444,0.526-2.6,0.715-2.793l5.899-6.381
			c0.686-0.685,1.377-1.369,2.083-2.044c-1.904,0.248-3.663,0.734-5.376,1.211c-2.138,0.602-4.194,1.173-6.273,1.172
			c-0.868,0-5.521-0.763-6.403-1.003c-5.339-1.461-10.024-2.884-17.023-6.151C13.989,28.535,8.38,36.341,6.76,44.94
			c1.205,0.318,3.146,0.896,3.962,1.077c18.979,4.22,24.89,8.567,25.962,9.475c1.161-1.292,2.835-2.109,4.705-2.109
			c2.101,0.003,3.992,1.058,5.143,2.688c1.087-0.858,2.585-1.592,4.523-1.591c0.88,0,1.792,0.163,2.715,0.477
			c2.141,0.734,3.246,2.16,3.819,3.45c0.719-0.324,1.602-0.563,2.642-0.561c1.022,0,2.085,0.233,3.156,0.696
			c3.5,1.502,4.044,4.938,3.727,7.53c0.249-0.029,0.5-0.041,0.755-0.041c4.148,0.003,7.523,3.375,7.521,7.526
			c0,1.284-0.328,2.492-0.899,3.553c1.129,0.635,4.007,2.07,6.533,1.75c2.019-0.254,2.785-0.944,3.06-1.332
			c0.188-0.268,0.387-0.579,0.202-0.803l-5.355-5.949c0,0-0.882-0.834-0.591-1.155c0.303-0.33,0.847,0.144,1.232,0.466
			c2.726,2.276,6.054,5.711,6.054,5.711c0.056,0.037,0.276,0.473,1.507,0.693c1.06,0.189,2.934,0.079,4.232-0.987
			c0.328-0.27,0.655-0.605,0.929-0.952c-0.021,0.017-0.039,0.04-0.06,0.048c1.369-1.752-0.151-3.525-0.151-3.525l-6.252-7.021
			c0,0-0.895-0.826-0.591-1.159c0.272-0.288,0.848,0.147,1.239,0.473c1.979,1.655,4.776,4.462,7.457,7.088
			c0.523,0.383,2.88,1.841,5.999-0.209c1.893-1.241,2.273-2.767,2.22-3.918c-0.132-1.523-1.32-2.608-1.32-2.608l-8.541-8.586
			c0,0-0.901-0.771-0.583-1.16c0.261-0.328,0.847,0.145,1.23,0.466c2.722,2.276,10.086,9.028,10.086,9.028
			c0.104,0.074,2.649,1.886,5.794-0.116c1.124-0.719,1.843-1.803,1.904-3.061C110.834,58.107,109.292,56.81,109.292,56.81z"/>
		<path fill="#FFFFFF" d="M67.869,67.695c-1.324-0.016-2.772,0.771-2.961,0.656c-0.105-0.069,0.081-0.602,0.205-0.908
			c0.127-0.305,1.872-5.552-2.38-7.374c-3.252-1.398-5.241,0.175-5.925,0.885c-0.18,0.186-0.26,0.171-0.28-0.066
			c-0.066-0.944-0.488-3.501-3.296-4.357c-4.012-1.229-6.593,1.572-7.247,2.583c-0.293-2.287-2.227-4.063-4.595-4.064
			c-2.573-0.003-4.66,2.082-4.663,4.654c0,2.572,2.085,4.658,4.658,4.658c1.251,0.003,2.384-0.497,3.22-1.3
			c0.027,0.024,0.037,0.068,0.024,0.157c-0.195,1.151-0.557,5.338,3.827,7.042c1.758,0.683,3.253,0.175,4.493-0.694
			c0.369-0.261,0.429-0.15,0.376,0.196c-0.158,1.076,0.042,3.382,3.274,4.692c2.459,0.999,3.914-0.023,4.867-0.904
			c0.415-0.379,0.528-0.317,0.55,0.268c0.117,3.115,2.705,5.589,5.848,5.592c3.239,0.003,5.863-2.615,5.864-5.852
			C73.729,70.32,71.106,67.73,67.869,67.695z"/>
	</g>
	<path fill="#000E8F" d="M110.119,54.571c-6.585-5.747-21.805-18.979-25.927-22.072c-2.354-1.771-3.961-2.707-5.371-3.127
		c-0.633-0.191-1.51-0.409-2.639-0.41c-1.048,0-2.174,0.189-3.35,0.563c-2.665,0.843-5.318,2.952-7.885,4.992l-0.132,0.104
		c-2.391,1.9-4.862,3.867-6.732,4.285c-0.817,0.184-1.656,0.278-2.493,0.278c-2.095-0.003-3.977-0.607-4.682-1.507
		c-0.116-0.148-0.042-0.39,0.23-0.736l0.036-0.046l5.793-6.243c4.537-4.537,8.823-8.821,18.688-9.048
		c0.162-0.005,0.329-0.008,0.492-0.008c6.141,0.004,12.279,2.753,12.968,3.071c5.758,2.809,11.7,4.235,17.675,4.24
		c6.227,0.002,12.65-1.539,19.404-4.649c-0.754-0.635-1.539-1.252-2.347-1.857c-5.934,2.572-11.587,3.872-17.041,3.87
		c-5.57-0.005-11.137-1.343-16.54-3.979c-0.285-0.136-7.063-3.332-14.116-3.335c-0.185,0-0.372,0.003-0.557,0.006
		c-8.287,0.194-12.954,3.137-16.093,5.715c-3.053,0.074-5.686,0.811-8.03,1.465c-2.091,0.581-3.896,1.085-5.658,1.084
		c-0.726,0-2.031-0.066-2.148-0.07c-2.025-0.062-12.23-2.564-20.347-5.638c-0.829,0.587-1.625,1.192-2.402,1.81
		c8.479,3.477,18.798,6.166,22.056,6.376c0.906,0.06,1.872,0.162,2.837,0.164c2.154,0,4.305-0.604,6.386-1.187
		c1.229-0.346,2.585-0.721,4.012-0.994c-0.381,0.374-0.761,0.753-1.142,1.135L49.18,35.19c-0.463,0.468-1.469,1.716-0.806,3.253
		c0.263,0.62,0.799,1.213,1.547,1.718c1.403,0.944,3.914,1.583,6.247,1.585c0.884,0.001,1.722-0.088,2.493-0.261
		c2.467-0.554,5.054-2.615,7.796-4.795c2.185-1.735,5.289-3.939,7.665-4.587c0.664-0.181,1.479-0.293,2.135-0.293
		c0.196,0.002,0.381,0.008,0.553,0.032c1.57,0.199,3.088,0.733,5.798,2.768c4.831,3.629,26.212,22.333,26.421,22.518
		c0.015,0.012,1.378,1.188,1.283,3.143c-0.051,1.09-0.656,2.059-1.708,2.729c-0.912,0.579-1.854,0.874-2.807,0.874
		c-1.429-0.003-2.413-0.672-2.477-0.718c-0.079-0.064-7.404-6.781-10.099-9.037c-0.43-0.355-0.847-0.676-1.269-0.676
		c-0.226-0.002-0.425,0.095-0.56,0.264c-0.425,0.522,0.051,1.246,0.61,1.723l8.557,8.601c0.012,0.009,1.066,0.998,1.182,2.317
		c0.067,1.426-0.614,2.618-2.031,3.547c-1.01,0.665-2.032,1.003-3.033,1.003c-1.313,0-2.236-0.599-2.44-0.74l-1.228-1.21
		c-2.243-2.207-4.56-4.489-6.255-5.904c-0.413-0.344-0.855-0.661-1.275-0.661c-0.208,0-0.396,0.077-0.539,0.229
		c-0.193,0.215-0.328,0.602,0.153,1.242c0.199,0.264,0.433,0.481,0.433,0.481l6.244,7.014c0.052,0.063,1.287,1.53,0.141,2.992
		l-0.221,0.28c-0.187,0.206-0.389,0.396-0.58,0.56c-1.065,0.874-2.488,0.968-3.052,0.968c-0.301,0-0.592-0.026-0.844-0.072
		c-0.616-0.11-1.03-0.282-1.23-0.519l-0.075-0.079c-0.342-0.353-3.489-3.565-6.094-5.739c-0.343-0.288-0.771-0.65-1.214-0.65
		c-0.219,0-0.413,0.086-0.563,0.252c-0.516,0.564,0.258,1.408,0.586,1.718l5.326,5.873c-0.006,0.052-0.073,0.173-0.202,0.358
		c-0.19,0.264-0.837,0.91-2.769,1.152c-0.231,0.031-0.471,0.043-0.707,0.043c-1.992,0-4.117-0.967-5.212-1.548
		c0.498-1.053,0.757-2.212,0.757-3.375c0.002-4.384-3.558-7.949-7.94-7.952c-0.094,0-0.194,0.003-0.287,0.006
		c0.143-2.001-0.14-5.791-4.029-7.459c-1.12-0.484-2.236-0.731-3.322-0.731c-0.849,0-1.666,0.146-2.435,0.44
		c-0.806-1.566-2.144-2.707-3.89-3.302c-0.964-0.334-1.924-0.503-2.851-0.503c-1.619,0-3.11,0.477-4.44,1.423
		c-1.274-1.585-3.199-2.523-5.226-2.523c-1.773,0-3.48,0.71-4.744,1.962c-1.658-1.266-8.233-5.443-25.833-9.439
		c-0.853-0.192-2.809-0.754-4.007-1.104c-0.199,0.953-0.351,1.916-0.45,2.888c0,0,3.246,0.777,3.884,0.921
		c17.979,3.993,23.92,8.146,24.924,8.931c-0.34,0.816-0.517,1.698-0.519,2.586c-0.002,3.714,3.019,6.739,6.736,6.742
		c0.416,0,0.829-0.036,1.235-0.111c0.56,2.733,2.349,4.806,5.082,5.869c0.799,0.307,1.607,0.465,2.4,0.465
		c0.514,0.001,1.029-0.063,1.535-0.192c0.504,1.282,1.64,2.881,4.18,3.912c0.891,0.358,1.781,0.546,2.646,0.546
		c0.707,0,1.398-0.124,2.057-0.366c1.217,2.964,4.113,4.928,7.342,4.928c2.14,0.003,4.194-0.869,5.692-2.411
		c1.283,0.713,3.99,2.003,6.726,2.007c0.354,0,0.687-0.025,1.019-0.064c2.717-0.344,3.981-1.406,4.563-2.232
		c0.104-0.144,0.199-0.297,0.279-0.456c0.642,0.185,1.347,0.335,2.154,0.337c1.484,0,2.908-0.506,4.348-1.555
		c1.414-1.02,2.419-2.483,2.563-3.729c0.003-0.017,0.006-0.035,0.008-0.054c0.477,0.099,0.966,0.149,1.454,0.149
		c1.527,0,3.03-0.477,4.466-1.417c2.77-1.816,3.251-4.188,3.205-5.74c0.484,0.102,0.979,0.153,1.472,0.153
		c1.435,0,2.842-0.432,4.185-1.287c1.717-1.097,2.75-2.777,2.906-4.732c0.107-1.329-0.222-2.67-0.923-3.822
		c4.641-1.999,15.246-5.868,27.734-8.683c-0.075-0.969-0.215-1.925-0.388-2.877C124.219,48.434,112.943,53.314,110.119,54.571z
		 M67.869,78.993c-2.935-0.003-5.32-2.283-5.428-5.189c-0.008-0.249-0.033-0.911-0.594-0.911c-0.23,0-0.43,0.139-0.661,0.347
		c-0.645,0.598-1.467,1.206-2.667,1.206c-0.544,0-1.134-0.127-1.757-0.382c-3.099-1.255-3.142-3.384-3.016-4.239
		c0.034-0.229,0.046-0.466-0.112-0.65l-0.19-0.171h-0.193c-0.158,0-0.32,0.064-0.539,0.219c-0.896,0.63-1.756,0.936-2.63,0.936
		c-0.481,0-0.975-0.097-1.468-0.287c-4.081-1.588-3.758-5.438-3.559-6.598c0.03-0.234-0.028-0.417-0.178-0.538l-0.288-0.237
		l-0.269,0.258c-0.796,0.767-1.835,1.187-2.929,1.187c-2.337-0.003-4.238-1.901-4.237-4.238c0.002-2.338,1.905-4.235,4.242-4.232
		c2.111,0,3.91,1.588,4.179,3.697l0.146,1.138l0.625-0.963c0.07-0.112,1.782-2.701,4.929-2.698c0.599,0,1.217,0.097,1.839,0.289
		c2.509,0.766,2.934,3.041,3,3.988c0.044,0.553,0.438,0.579,0.514,0.579c0.217,0,0.376-0.138,0.49-0.256
		c0.474-0.494,1.504-1.316,3.119-1.316c0.739,0.003,1.524,0.178,2.336,0.526c3.988,1.711,2.179,6.778,2.157,6.831
		c-0.342,0.84-0.356,1.211-0.034,1.425l0.157,0.075h0.116c0.18,0,0.404-0.078,0.772-0.203c0.543-0.188,1.362-0.47,2.128-0.468h0.001
		c3.002,0.032,5.444,2.476,5.443,5.443C73.312,76.556,70.869,78.993,67.869,78.993z"/>
</g>
</svg>
